<svg width="114" height="114" viewBox="0 0 114 114" fill="none" xmlns="http://www.w3.org/2000/svg">
<path d="M28.5524 88.7467C44.2639 96.2342 69.7361 96.2365 85.4475 88.7467C101.159 81.2569 101.157 69.1182 85.4475 61.6307C69.7383 54.1431 44.2639 54.1431 28.5524 61.6307C12.8409 69.1182 12.8432 81.2592 28.5524 88.7467Z" fill="#F5F5F5"/>
<path d="M85.3929 83.2132C88.2865 83.2132 90.6323 82.0954 90.6323 80.7166C90.6323 79.3377 88.2865 78.22 85.3929 78.22C82.4992 78.22 80.1534 79.3377 80.1534 80.7166C80.1534 82.0954 82.4992 83.2132 85.3929 83.2132Z" fill="#EBEBEB"/>
<path d="M27.36 81.0745L29.2136 80.0052C30.2486 79.1606 31.0363 78.0523 31.4936 76.7972C32.0659 75.2195 31.9861 74.0202 31.5757 73.4183C31.0718 72.6773 29.7654 72.8072 29.7129 74.3668C29.6035 77.4402 28.7075 79.572 27.36 81.0745Z" fill="#BA68C8"/>
<path opacity="0.2" d="M27.36 81.0745L29.2136 80.0052C30.2486 79.1606 31.0363 78.0523 31.4936 76.7972C32.0659 75.2195 31.9861 74.0202 31.5757 73.4183C31.0718 72.6773 29.7654 72.8072 29.7129 74.3668C29.6035 77.4402 28.7075 79.572 27.36 81.0745Z" fill="black"/>
<path d="M27.3599 81.1885C27.3358 81.1882 27.3124 81.1803 27.293 81.1658C27.2737 81.1514 27.2595 81.1311 27.2524 81.1081C27.2453 81.085 27.2457 81.0603 27.2535 81.0374C27.2614 81.0146 27.2763 80.9949 27.2961 80.981C31.5825 78.017 30.7526 73.8834 30.7434 73.8424C30.7403 73.8274 30.7401 73.8119 30.743 73.7969C30.7458 73.7819 30.7515 73.7675 30.7599 73.7547C30.7683 73.7419 30.7791 73.7309 30.7917 73.7223C30.8043 73.7136 30.8185 73.7076 30.8335 73.7044C30.8485 73.7013 30.8639 73.7011 30.8789 73.7039C30.894 73.7068 30.9083 73.7125 30.9211 73.7209C30.9339 73.7292 30.945 73.74 30.9536 73.7527C30.9622 73.7653 30.9683 73.7795 30.9714 73.7945C30.9714 73.8378 31.847 78.1128 27.4329 81.168C27.4115 81.1826 27.3858 81.1898 27.3599 81.1885Z" fill="white"/>
<path d="M23.6458 83.22C23.6458 83.22 23.0006 82.6956 23.1556 81.9842C23.3107 81.2729 23.7279 80.7622 23.0143 79.8456C22.3006 78.929 22.1023 77.707 22.955 77.0458C23.6048 76.5328 24.6194 77.2578 24.9842 75.9058C25.2532 74.9162 25.162 72.7252 26.4229 71.9956C27.6837 71.266 28.4749 72.3649 28.2765 73.8515C28.1032 75.1807 27.857 76.4598 28.0485 76.8155C28.4179 77.4995 29.0494 77.406 29.0198 78.6554C28.9947 79.8182 27.8935 80.7804 27.8935 80.7804L23.6458 83.22Z" fill="#BA68C8"/>
<path d="M25.7639 82.1051C25.736 82.1048 25.7092 82.0945 25.6883 82.0761C25.6673 82.0577 25.6537 82.0324 25.6499 82.0048C25.3239 79.303 26.1059 74.6381 26.7443 73.2518C26.7497 73.2365 26.7583 73.2224 26.7695 73.2106C26.7808 73.1989 26.7945 73.1897 26.8096 73.1836C26.8247 73.1776 26.8409 73.1748 26.8572 73.1756C26.8735 73.1763 26.8894 73.1806 26.9039 73.188C26.9175 73.1941 26.9298 73.2029 26.9399 73.2139C26.9501 73.2248 26.9579 73.2377 26.963 73.2517C26.9681 73.2657 26.9704 73.2806 26.9696 73.2955C26.9688 73.3104 26.9651 73.325 26.9586 73.3385C26.3271 74.7065 25.5724 79.385 25.8847 81.9683C25.8879 81.9982 25.8792 82.0281 25.8604 82.0516C25.8416 82.0751 25.8143 82.0902 25.7844 82.0937L25.7639 82.1051Z" fill="white"/>
<path d="M25.7024 80.0006C25.685 80.0015 25.6676 79.9975 25.6523 79.9892C24.8611 79.6039 24.3595 78.2291 24.339 78.1652C24.3334 78.1511 24.3307 78.1359 24.3311 78.1207C24.3315 78.1054 24.3349 78.0904 24.3412 78.0765C24.3474 78.0626 24.3564 78.0501 24.3676 78.0398C24.3788 78.0294 24.3919 78.0214 24.4063 78.0162C24.4206 78.0111 24.4358 78.0088 24.4511 78.0096C24.4663 78.0104 24.4812 78.0143 24.4949 78.0209C24.5086 78.0276 24.5208 78.0369 24.5309 78.0484C24.5409 78.0599 24.5485 78.0732 24.5533 78.0877C24.5533 78.1014 25.0435 79.4329 25.7526 79.7772C25.7759 79.7885 25.7946 79.8073 25.8057 79.8306C25.8169 79.8539 25.8198 79.8803 25.814 79.9055C25.8081 79.9307 25.7939 79.9531 25.7737 79.9692C25.7534 79.9852 25.7283 79.9939 25.7024 79.9938V80.0006Z" fill="white"/>
<path d="M25.6888 80.9126C25.6659 80.9127 25.6436 80.9057 25.6249 80.8926C25.6061 80.8796 25.5918 80.8611 25.5839 80.8397C25.5725 80.8118 25.5726 80.7807 25.5842 80.7529C25.5957 80.7252 25.6177 80.7031 25.6454 80.6915C26.977 80.158 27.8069 78.5734 27.816 78.5551C27.8299 78.5282 27.8539 78.5079 27.8828 78.4987C27.9117 78.4895 27.943 78.4922 27.9699 78.5061C27.9968 78.52 28.0171 78.544 28.0263 78.5729C28.0355 78.6018 28.0328 78.6331 28.0189 78.66C27.9824 78.7284 27.1411 80.3381 25.7389 80.9035C25.7233 80.9109 25.706 80.9141 25.6888 80.9126Z" fill="white"/>
<path d="M72.2303 68.6462C72.2303 68.6462 71.2339 67.032 71.1359 65.2787C71.0379 63.5254 71.4232 62.7958 71.9521 62.586C72.4811 62.3762 72.5221 63.0215 72.7935 63.4022C73.0648 63.783 73.6188 63.5664 73.824 62.3785C74.0292 61.1906 74.7771 59.1865 76.332 58.7966C78.042 58.3726 77.1255 60.379 76.6945 61.161C76.2636 61.943 75.9307 63.0101 76.2135 63.2996C76.4962 63.5892 76.9362 63.0534 77.3535 63.5504C77.8619 64.1501 76.2819 66.3092 75.3744 66.8314L72.2303 68.6462Z" fill="#BA68C8"/>
<path d="M73.5961 67.9691C73.5811 67.9685 73.5664 67.965 73.5528 67.9587C73.5392 67.9524 73.527 67.9435 73.5168 67.9325C73.5066 67.9215 73.4987 67.9086 73.4936 67.8945C73.4884 67.8804 73.4861 67.8655 73.4867 67.8505C73.6411 65.0301 74.5206 62.2972 76.0403 59.9161C76.0489 59.9037 76.0599 59.8932 76.0727 59.8852C76.0855 59.8771 76.0998 59.8718 76.1147 59.8695C76.1296 59.8671 76.1449 59.8678 76.1595 59.8715C76.1741 59.8752 76.1879 59.8819 76.1999 59.891C76.2238 59.9088 76.2398 59.9352 76.2444 59.9646C76.2491 59.994 76.2421 60.024 76.2249 60.0484C74.7325 62.3946 73.8688 65.0854 73.7169 67.8619C73.7161 67.8769 73.7123 67.8916 73.7057 67.9051C73.6992 67.9186 73.69 67.9306 73.6788 67.9406C73.6676 67.9505 73.6545 67.9582 73.6403 67.9631C73.6261 67.968 73.6111 67.97 73.5961 67.9691Z" fill="white"/>
<path d="M73.726 66.6216C73.707 66.6214 73.6882 66.6167 73.6713 66.6079C73.0329 66.2545 72.6795 65.2057 72.6658 65.1624C72.6608 65.1482 72.6586 65.1331 72.6595 65.1181C72.6603 65.103 72.6641 65.0883 72.6707 65.0747C72.6773 65.0611 72.6865 65.049 72.6978 65.039C72.7091 65.029 72.7222 65.0213 72.7365 65.0165C72.7652 65.0071 72.7965 65.0096 72.8234 65.0232C72.8504 65.0369 72.8708 65.0607 72.8802 65.0894C72.8802 65.0894 73.2222 66.0995 73.7922 66.4073C73.818 66.4225 73.8369 66.4472 73.845 66.4761C73.853 66.505 73.8496 66.5359 73.8355 66.5623C73.8252 66.5819 73.8093 66.5981 73.7898 66.6086C73.7703 66.6192 73.7481 66.6237 73.726 66.6216Z" fill="white"/>
<path d="M73.8378 65.9308C73.8125 65.9305 73.7881 65.9218 73.7682 65.9061C73.7484 65.8905 73.7344 65.8686 73.7283 65.8441C73.7246 65.8297 73.7238 65.8148 73.7259 65.8001C73.728 65.7854 73.733 65.7712 73.7407 65.7585C73.7483 65.7457 73.7584 65.7347 73.7704 65.7259C73.7824 65.7171 73.796 65.7108 73.8104 65.7073C75.4566 65.2901 76.0266 64.4282 76.0311 64.4191C76.0392 64.4064 76.0497 64.3954 76.0621 64.3867C76.0744 64.3781 76.0883 64.3719 76.1031 64.3686C76.1178 64.3653 76.133 64.365 76.1478 64.3676C76.1627 64.3702 76.1769 64.3757 76.1896 64.3838C76.2023 64.3919 76.2133 64.4024 76.222 64.4147C76.2307 64.4271 76.2368 64.441 76.2401 64.4557C76.2434 64.4704 76.2437 64.4856 76.2411 64.5005C76.2385 64.5153 76.233 64.5295 76.2249 64.5422C76.1999 64.581 75.6071 65.4862 73.8674 65.9285L73.8378 65.9308Z" fill="white"/>
<path d="M47.4239 65.1031C47.4239 65.1031 45.2374 64.5696 45.1234 60.4747C45.0026 56.0561 45.6592 50.8987 43.0714 50.4815C40.4836 50.0642 39.0472 53.2175 39.0791 56.8997C39.1088 60.1236 40.4084 67.1232 47.4148 68.4958L47.4239 65.1031Z" fill="#BA68C8"/>
<path opacity="0.2" d="M47.4239 65.1031C47.4239 65.1031 45.2374 64.5696 45.1234 60.4747C45.0026 56.0561 45.6592 50.8987 43.0714 50.4815C40.4836 50.0642 39.0472 53.2175 39.0791 56.8997C39.1088 60.1236 40.4084 67.1232 47.4148 68.4958L47.4239 65.1031Z" fill="black"/>
<path d="M47.424 68.0762H47.4035C45.828 67.789 44.5443 66.9203 43.589 65.4976C40.7573 61.2727 41.6487 53.3839 41.9429 52.0068C41.9494 51.9775 41.9671 51.9518 41.9922 51.9352C42.0173 51.9187 42.0478 51.9124 42.0774 51.9179C42.1069 51.925 42.1326 51.9431 42.1491 51.9685C42.1657 51.994 42.1718 52.0248 42.1663 52.0547C41.8767 53.4227 40.9898 61.2112 43.7783 65.3699C44.1841 66.0148 44.7196 66.5683 45.3508 66.9954C45.9819 67.4224 46.6949 67.7136 47.4445 67.8505C47.4594 67.8532 47.4736 67.8589 47.4862 67.8672C47.4989 67.8754 47.5098 67.8861 47.5183 67.8987C47.5268 67.9112 47.5327 67.9253 47.5357 67.9401C47.5387 67.9549 47.5387 67.9702 47.5357 67.985C47.5309 68.011 47.517 68.0344 47.4965 68.0511C47.4761 68.0678 47.4504 68.0767 47.424 68.0762Z" fill="white"/>
<path d="M47.4239 78.5848C45.1645 78.8903 41.4959 78.8857 39.3778 77.2168C37.2597 75.5478 37.702 74.1114 38.516 73.5118C39.3299 72.9121 40.0367 72.2281 38.6368 70.8966C37.2369 69.5651 34.9888 67.4264 34.2592 64.2185C33.5296 61.0105 33.8899 59.0041 35.3217 58.3361C36.7102 57.6886 37.0773 58.7191 37.9277 60.8441C38.7782 62.969 40.6911 61.1473 42.3281 61.8108C43.9652 62.4743 43.8991 63.7876 44.0017 64.9162C44.1043 66.0448 44.6446 66.3571 45.5726 66.3571C46.5005 66.3571 47.4239 66.8906 47.4239 67.9531V78.5848Z" fill="#BA68C8"/>
<path d="M47.424 74.8592C47.4142 74.8614 47.4041 74.8614 47.3943 74.8592C47.2963 74.8319 44.9593 74.1524 41.5553 71.0266C37.9301 67.6978 36.2201 62.7046 36.2018 62.6544C36.1931 62.6257 36.1958 62.5947 36.2094 62.5679C36.223 62.5411 36.2464 62.5207 36.2748 62.5108C36.3032 62.5013 36.3342 62.5034 36.3611 62.5166C36.388 62.5299 36.4086 62.5532 36.4184 62.5814C36.4344 62.6316 38.1284 67.5701 41.7103 70.8578C45.0665 73.9427 47.4308 74.6335 47.4559 74.6404C47.4703 74.6446 47.4837 74.6515 47.4953 74.6609C47.507 74.6703 47.5167 74.6819 47.5239 74.695C47.5311 74.7081 47.5357 74.7225 47.5373 74.7374C47.5389 74.7523 47.5376 74.7673 47.5334 74.7817C47.526 74.8047 47.5114 74.8248 47.4916 74.8387C47.4719 74.8527 47.4481 74.8599 47.424 74.8592Z" fill="white"/>
<path d="M42.506 71.82C42.4831 71.8204 42.4607 71.8135 42.4418 71.8004C42.423 71.7873 42.4088 71.7687 42.4012 71.747C41.6693 69.8683 41.5028 65.8487 41.4892 65.6777C41.4885 65.6476 41.4996 65.6184 41.52 65.5963C41.5404 65.5742 41.5686 65.5609 41.5986 65.5591C41.6284 65.5595 41.6569 65.571 41.6788 65.5912C41.7007 65.6114 41.7144 65.6389 41.7172 65.6686C41.7172 65.7096 41.8882 69.8204 42.6064 71.665C42.6119 71.679 42.6145 71.694 42.6141 71.7091C42.6138 71.7242 42.6104 71.7391 42.6043 71.7529C42.5981 71.7667 42.5893 71.7791 42.5783 71.7894C42.5673 71.7998 42.5544 71.8079 42.5402 71.8132C42.5292 71.8171 42.5177 71.8194 42.506 71.82Z" fill="white"/>
<path d="M42.4877 74.5218C42.2775 74.5234 42.0674 74.5128 41.8585 74.4899C41.8435 74.4881 41.829 74.4834 41.8159 74.476C41.8027 74.4686 41.7912 74.4587 41.7819 74.4468C41.7725 74.435 41.7657 74.4214 41.7616 74.4069C41.7575 74.3923 41.7563 74.3772 41.7581 74.3622C41.7599 74.3472 41.7647 74.3328 41.7721 74.3196C41.7794 74.3065 41.7893 74.2949 41.8012 74.2856C41.8131 74.2763 41.8266 74.2694 41.8412 74.2653C41.8557 74.2613 41.8709 74.2601 41.8858 74.2619C41.9063 74.2619 44.029 74.5036 45.0026 73.5118C45.0127 73.4998 45.0252 73.49 45.0393 73.483C45.0534 73.4761 45.0688 73.4722 45.0845 73.4714C45.1002 73.4707 45.1158 73.4733 45.1305 73.4789C45.1452 73.4845 45.1585 73.4931 45.1697 73.5041C45.1809 73.5152 45.1897 73.5284 45.1955 73.543C45.2014 73.5576 45.2041 73.5732 45.2036 73.5889C45.2031 73.6046 45.1994 73.62 45.1927 73.6342C45.1859 73.6484 45.1763 73.6611 45.1645 73.6714C44.4599 74.3987 43.231 74.5218 42.4877 74.5218Z" fill="white"/>
<path d="M40.8463 31.3477L40.6001 29.9273L39.3324 30.7618C39.2166 30.5338 39.0524 30.3338 38.8513 30.1758L39.4578 28.5342L38.3178 28.2811L37.4833 29.8771C37.1814 29.928 36.8887 30.0233 36.6146 30.1598L36.2521 28.956L34.8978 30.0208L34.9867 31.4344C34.7109 31.7433 34.4608 32.0742 34.2389 32.4239L33.1217 32.3669L32.3373 34.1248L33.2972 34.5352C33.197 34.8988 33.1336 35.2715 33.108 35.6478L31.8882 36.7696L32.1321 38.1923L33.4021 37.3578C33.5173 37.5856 33.6816 37.7849 33.8832 37.9415L33.2881 39.5854L34.4281 39.8362L35.6228 38.6734C35.8987 38.63 35.8303 38.1102 36.1313 37.962L36.4938 39.1613L37.8458 38.0988L37.8116 37.5425C38.0852 37.237 39.1203 36.5644 39.3438 36.2132L39.6242 35.7572L40.4085 33.9994L40.0437 33.3382L39.6379 32.4763L40.8463 31.3477ZM36.7081 36.024C35.6684 36.8402 35.3401 37.0204 35.1645 35.9282C34.989 34.8361 35.5841 33.1763 36.6237 32.3578C37.6634 31.5392 38.0601 31.4822 38.2471 32.5721C38.4341 33.6619 37.7501 35.2169 36.7081 36.024Z" fill="#E0E0E0"/>
<path d="M38.3268 28.2811L39.8065 29.1338L38.972 30.7253L37.4923 29.8726L38.3268 28.2811Z" fill="#F5F5F5"/>
<path d="M42.0797 30.78L40.812 31.6145L39.3323 30.7618L40.6 29.9273L42.0797 30.78Z" fill="#F5F5F5"/>
<path d="M41.8769 34.8452L40.917 34.4371L39.4373 33.5844L40.3971 33.9925L41.8769 34.8452Z" fill="#E0E0E0"/>
<path d="M33.2858 39.5854L34.7655 40.4358L35.372 38.7942L33.8922 37.9415L33.2858 39.5854Z" fill="#E0E0E0"/>
<path d="M37.9597 40.014L36.4823 39.1613L36.1198 37.962L37.5995 38.8147L37.9597 40.014Z" fill="#E0E0E0"/>
<path d="M42.3237 32.2004L42.0797 30.78L40.812 31.6145C40.6954 31.3864 40.5304 31.1864 40.3287 31.0285L40.9352 29.3869L39.8066 29.1338L38.9698 30.7298C38.6679 30.7808 38.3752 30.876 38.1011 31.0126L37.7409 29.8133L36.3866 30.878L36.4755 32.2916C36.1994 32.6028 35.9493 32.936 35.7276 33.288L34.6082 33.231L33.8238 34.9889L34.7837 35.3993C34.6844 35.7638 34.621 36.1373 34.5945 36.5142L33.377 37.62L33.6209 39.0427L34.8886 38.2082C35.0053 38.4357 35.1703 38.6349 35.372 38.7919L34.7655 40.4335L35.9055 40.6866L36.74 39.0906C37.043 39.0402 37.3367 38.9441 37.6109 38.8056L37.9712 40.0049L39.3255 38.9424L39.2366 37.5288C39.5123 37.2199 39.7625 36.8889 39.9844 36.5393L41.1039 36.594L41.8882 34.8361L40.9146 34.428C41.0156 34.0637 41.0797 33.6902 41.1062 33.3131L42.3237 32.2004ZM38.19 36.8858C37.1526 37.7021 36.1586 37.4809 35.9693 36.3911C35.7801 35.3012 36.4709 33.7531 37.5106 32.9369C38.5503 32.1206 39.5421 32.3441 39.7313 33.4339C39.9206 34.5238 39.2297 36.0696 38.19 36.8858Z" fill="#EBEBEB"/>
<path d="M37.7409 29.8087L36.2612 28.956L34.9069 30.0208L36.3866 30.8735L37.7409 29.8087Z" fill="#F5F5F5"/>
<path d="M34.9069 30.0208L34.9958 31.4344L36.4755 32.2871L36.3866 30.8735L34.9069 30.0208Z" fill="#E0E0E0"/>
<path d="M35.7277 33.2766L34.2479 32.4239L33.1307 32.3692L34.6082 33.2219L35.7277 33.2766Z" fill="#F5F5F5"/>
<path d="M33.1308 32.3692L32.3464 34.1248L33.8239 34.9775L34.6082 33.2219L33.1308 32.3692Z" fill="#E0E0E0"/>
<path d="M34.5945 36.5005L33.117 35.6478L31.8972 36.7696L33.3747 37.6223L34.5945 36.5005Z" fill="#F5F5F5"/>
<path d="M33.6209 39.045L32.1412 38.1923L31.8972 36.7696L33.3747 37.6223L33.6209 39.045Z" fill="#E0E0E0"/>
<path d="M39.8066 29.1338L38.3269 28.2811L39.4578 28.5342L40.9352 29.3869L39.8066 29.1338Z" fill="#F5F5F5"/>
<path d="M34.2206 24.8999V22.7772L32.5311 23.5387C32.4416 23.1786 32.2871 22.8378 32.0751 22.5332L33.1398 20.3878L31.8402 19.6376L30.5133 21.6326C30.1435 21.6003 29.7709 21.6367 29.4143 21.7398L29.2274 19.8953L27.3897 20.9578L27.205 23.0098C26.8051 23.3641 26.4373 23.7533 26.106 24.1726L24.7791 23.7166L23.4795 25.9692L24.542 26.8812C24.3456 27.3777 24.1931 27.8903 24.086 28.4134L22.3965 29.6012V31.7262L24.086 30.9647C24.1754 31.3248 24.33 31.6656 24.542 31.9702L23.484 34.1179L24.7836 34.868L26.1106 32.873C26.4804 32.9052 26.853 32.8689 27.2096 32.7659L27.3942 34.6104L29.2319 33.5479L29.4189 31.4959C29.9925 31.2866 30.5006 30.9296 30.8918 30.4608L31.8448 30.796L33.1444 28.5456L32.3464 27.8616C32.5196 27.2912 32.5838 26.6933 32.5356 26.0992L34.2206 24.8999ZM28.3085 30.2032C26.8995 31.0171 26.0285 30.4312 26.0285 28.8101C26.0285 27.189 27.1936 25.1849 28.6049 24.3709C30.0162 23.557 30.869 24.1429 30.869 25.7777C30.869 27.4124 29.7198 29.3869 28.3085 30.2032Z" fill="#E0E0E0"/>
<path d="M33.3177 20.4881L31.8403 19.6376L30.5133 21.6326L31.9907 22.4854L33.3177 20.4881Z" fill="#F5F5F5"/>
<path d="M35.7003 23.6299L34.2206 22.7772L32.5311 23.5387L34.0108 24.3914L35.7003 23.6299Z" fill="#F5F5F5"/>
<path d="M28.8671 35.4631L27.3896 34.6104L27.205 32.7659L28.6824 33.6186L28.8671 35.4631Z" fill="#E0E0E0"/>
<path d="M23.4772 34.1179L24.9569 34.9706L26.0217 32.8252L24.5419 31.9724L23.4772 34.1179Z" fill="#E0E0E0"/>
<path d="M35.7003 25.764V23.6413L34.0108 24.396C33.9223 24.0355 33.7677 23.6946 33.5548 23.3905L34.6196 21.245L33.32 20.4926L31.993 22.4899C31.6232 22.4565 31.2504 22.4928 30.8941 22.5971L30.7071 20.748L28.8694 21.8105L28.6825 23.8625C28.2831 24.2175 27.9154 24.6065 27.5835 25.0253L26.2565 24.5693L24.9569 26.8219L26.0217 27.7339C25.8243 28.23 25.6717 28.7428 25.5657 29.2661L23.8762 30.454V32.5789L25.5657 31.8174C25.6542 32.1779 25.8088 32.5188 26.0217 32.8229L24.9569 34.9684L26.2565 35.7185L27.5835 33.7235C27.9533 33.7558 28.3259 33.7195 28.6825 33.6163L28.8694 35.4608L30.7071 34.3984L30.8918 32.3464C31.2917 31.992 31.6595 31.6029 31.9907 31.1836L33.3177 31.6396L34.6173 29.3892L33.5525 28.4772C33.7498 27.9811 33.9024 27.4683 34.0085 26.945L35.7003 25.764ZM29.7883 31.0673C28.3769 31.8812 27.2324 31.22 27.2324 29.5921C27.2324 27.9642 28.3724 25.9829 29.7883 25.1666C31.2041 24.3504 32.3419 25.0139 32.3419 26.6418C32.3419 28.2697 31.1973 30.2396 29.7883 31.0559V31.0673Z" fill="#EBEBEB"/>
<path d="M26.106 24.1771L27.5835 25.0298L26.2565 24.567L24.7791 23.712L26.106 24.1771Z" fill="#F0F0F0"/>
<path d="M24.779 23.7143L23.479 25.9677L24.9582 26.8211L26.2582 24.5677L24.779 23.7143Z" fill="#F5F5F5"/>
<path d="M23.4772 25.9646L24.9569 26.8174L26.0217 27.7339L24.5419 26.8835L23.4772 25.9646Z" fill="#E0E0E0"/>
<path d="M24.086 28.4156L25.5657 29.2684L23.8762 30.4562L22.3965 29.6035L24.086 28.4156Z" fill="#F5F5F5"/>
<path d="M22.3965 29.6035L23.8762 30.4562V32.5812L22.3965 31.7285V29.6035Z" fill="#E0E0E0"/>
<path d="M30.707 20.748L29.2273 19.8953L27.3896 20.9578L28.8671 21.8105L30.707 20.748Z" fill="#F5F5F5"/>
<path d="M49.6767 81.6354L71.1087 69.2596C71.1559 69.243 71.1968 69.2121 71.2257 69.1713C71.2547 69.1304 71.2702 69.0816 71.2702 69.0316C71.2702 68.9815 71.2547 68.9327 71.2257 68.8919C71.1968 68.851 71.1559 68.8202 71.1087 68.8036L69.1274 67.6636C69.0046 67.6018 68.8692 67.5696 68.7318 67.5696C68.5944 67.5696 68.4589 67.6018 68.3362 67.6636L46.8974 80.028C46.8501 80.0446 46.8092 80.0755 46.7803 80.1163C46.7514 80.1571 46.7358 80.206 46.7358 80.256C46.7358 80.3061 46.7514 80.3549 46.7803 80.3957C46.8092 80.4366 46.8501 80.4674 46.8974 80.484L48.8855 81.624C49.0074 81.6875 49.1424 81.7216 49.2798 81.7236C49.4171 81.7256 49.5531 81.6954 49.6767 81.6354Z" fill="#E0E0E0"/>
<path d="M70.5204 21.4776L51.1951 32.6359C50.9078 32.8234 50.6688 33.0759 50.4972 33.373C50.3257 33.6701 50.2266 34.0034 50.2079 34.3459V80.1899C50.2079 80.8192 50.6502 81.0745 51.1951 80.7599L70.5204 69.6016C70.8081 69.4145 71.0474 69.1621 71.219 68.8649C71.3906 68.5677 71.4895 68.2342 71.5076 67.8916V22.0476C71.5076 21.4183 71.0676 21.163 70.5204 21.4776Z" fill="#455A64"/>
<path d="M51.1951 32.6359L70.5204 21.4776C71.0083 21.1949 71.4119 21.3704 71.494 21.8606C71.4484 21.5524 71.3381 21.2574 71.1703 20.9949C71.0025 20.7324 70.781 20.5084 70.5204 20.3376L69.7179 19.8816C69.4119 19.7264 69.0737 19.6455 68.7306 19.6455C68.3876 19.6455 68.0493 19.7264 67.7434 19.8816L48.4158 31.0308C48.1247 31.2133 47.8847 31.4667 47.7181 31.7672L50.4975 33.3632C50.6639 33.0651 50.9042 32.8147 51.1951 32.6359Z" fill="#37474F"/>
<path d="M47.4241 78.5848C47.4428 78.9273 47.5419 79.2606 47.7134 79.5577C47.885 79.8548 48.124 80.1073 48.4113 80.2948L49.2162 80.7508C49.4947 80.8901 49.7996 80.9691 50.1108 80.9824C50.4219 80.9958 50.7324 80.9432 51.0219 80.8283C50.5659 81.0061 50.2034 80.7439 50.2034 80.1808V34.3459C50.2148 34.0019 50.3145 33.6667 50.493 33.3724L47.7136 31.7764C47.5377 32.0684 47.4381 32.4001 47.4241 32.7408V78.5848Z" fill="#263238"/>
<path d="M51.7263 38.744L69.996 28.199C70.3243 28.0121 70.5888 28.1648 70.5888 28.541V62.472C70.5778 62.6776 70.5184 62.8778 70.4154 63.0561C70.3124 63.2344 70.1687 63.3858 69.996 63.498L51.7332 74.043C51.4049 74.2322 51.1404 74.0795 51.1404 73.701V39.77C51.1508 39.5651 51.2092 39.3654 51.311 39.1872C51.4128 39.0089 51.5551 38.8571 51.7263 38.744Z" fill="white"/>
<path d="M60.8578 28.7941C60.7569 28.8603 60.6731 28.9493 60.6129 29.0538C60.5527 29.1584 60.5179 29.2756 60.5112 29.396C60.5112 29.624 60.6663 29.7084 60.8578 29.5967C60.959 29.5309 61.0432 29.442 61.1034 29.3374C61.1637 29.2328 61.1983 29.1153 61.2044 28.9948C61.2044 28.7736 61.0493 28.6847 60.8578 28.7941Z" fill="#37474F"/>
<path d="M60.8577 70.3927C60.4592 70.6535 60.1276 71.0044 59.8899 71.4172C59.6523 71.8299 59.5152 72.2929 59.4897 72.7685C59.4897 73.6417 60.1031 73.9974 60.8577 73.5596C61.2562 73.2988 61.5877 72.9478 61.8253 72.535C62.063 72.1223 62.2001 71.6595 62.2257 71.1839C62.2303 70.3106 61.6147 69.955 60.8577 70.3927Z" fill="#37474F"/>
<path d="M57.5768 32.3236C57.3764 32.4566 57.2101 32.6348 57.0913 32.8439C56.9725 33.0531 56.9045 33.2872 56.8928 33.5274C56.8928 33.9697 57.2029 34.1498 57.5768 33.9287C57.7793 33.7969 57.9478 33.6192 58.0687 33.41C58.1895 33.2008 58.2593 32.9661 58.2722 32.7248C58.2722 32.2825 57.9621 32.1024 57.5768 32.3236Z" fill="#37474F"/>
<path d="M59.28 32.1731C59.28 32.4695 59.508 32.5812 59.7748 32.4239L64.3348 29.7859C64.476 29.6977 64.5945 29.5774 64.6804 29.4348C64.7664 29.2921 64.8175 29.1312 64.8295 28.9651C64.8295 28.671 64.6016 28.5593 64.3348 28.7166L59.7748 31.3546C59.6338 31.4426 59.5156 31.5625 59.4296 31.7047C59.3437 31.8469 59.2924 32.0074 59.28 32.1731Z" fill="#37474F"/>
<path d="M48.9653 40.2124C49.1271 40.3178 49.2618 40.4598 49.3584 40.627C49.4551 40.7941 49.511 40.9817 49.5216 41.1745C49.5216 41.5302 49.2731 41.6738 48.9653 41.496C48.804 41.3902 48.6699 41.248 48.5737 41.0809C48.4774 40.9138 48.4218 40.7264 48.4113 40.5338C48.4113 40.1804 48.6598 40.0368 48.9653 40.2124Z" fill="#37474F"/>
<path d="M48.9653 44.4942C49.1271 44.5996 49.2618 44.7416 49.3584 44.9088C49.4551 45.076 49.511 45.2636 49.5216 45.4564C49.5216 45.8098 49.2731 45.9534 48.9653 45.7778C48.804 45.6721 48.6699 45.5299 48.5737 45.3628C48.4774 45.1956 48.4218 45.0082 48.4113 44.8157C48.4113 44.46 48.6598 44.3164 48.9653 44.4942Z" fill="#37474F"/>
<path d="M48.792 40.299C48.9538 40.4044 49.0885 40.5464 49.1852 40.7136C49.2818 40.8808 49.3377 41.0684 49.3484 41.2612C49.3484 41.6146 49.0998 41.7582 48.792 41.5826C48.6302 41.4773 48.4955 41.3352 48.3989 41.168C48.3022 41.0009 48.2463 40.8133 48.2357 40.6205C48.238 40.2648 48.4865 40.128 48.792 40.299Z" fill="#455A64"/>
<path d="M48.792 44.5786C48.9541 44.6842 49.089 44.8266 49.1857 44.9942C49.2824 45.1618 49.3381 45.3498 49.3484 45.543C49.3484 45.8964 49.0998 46.04 48.792 45.8622C48.6299 45.7572 48.4949 45.6153 48.3982 45.448C48.3015 45.2808 48.2458 45.093 48.2357 44.9C48.238 44.5466 48.4865 44.403 48.792 44.5786Z" fill="#455A64"/>
<path d="M74.287 29.6149C74.287 29.2364 74.0225 29.0837 73.6942 29.2729L71.5077 30.5338L55.4314 39.8179C55.2587 39.9301 55.115 40.0815 55.012 40.2599C54.909 40.4382 54.8496 40.6383 54.8386 40.8439V74.7658C54.8386 75.1442 55.1031 75.297 55.4314 75.1078L71.5145 65.8213L73.6942 64.5628C73.8669 64.4506 74.0106 64.2991 74.1136 64.1208C74.2166 63.9425 74.2761 63.7424 74.287 63.5368V29.6149Z" fill="white"/>
<path d="M74.515 29.6149C74.5293 29.5006 74.5096 29.3845 74.4584 29.2813C74.4071 29.1781 74.3266 29.0923 74.2268 29.0347C74.127 28.977 74.0125 28.95 73.8975 28.9571C73.7824 28.9642 73.6721 29.0051 73.5802 29.0746L71.494 30.2807L55.3174 39.6287C55.1091 39.7601 54.9359 39.9403 54.8128 40.1536C54.6896 40.3669 54.6202 40.6069 54.6106 40.853V74.7658C54.6014 74.8796 54.6233 74.9938 54.6739 75.0961C54.7245 75.1985 54.8019 75.2853 54.8978 75.3472C54.9795 75.3946 55.0725 75.419 55.1669 75.4178C55.3005 75.4137 55.4309 75.3752 55.5454 75.3061L71.7334 65.9581L73.815 64.7566C74.0221 64.6238 74.1943 64.4434 74.3173 64.2303C74.4403 64.0173 74.5104 63.7779 74.5218 63.5322L74.515 29.6149ZM71.4985 65.5682L71.3116 65.6777L55.3265 74.9071C55.2996 74.9278 55.2685 74.9422 55.2353 74.9493C55.2022 74.9564 55.1679 74.956 55.135 74.9482C55.1053 74.9299 55.0757 74.8661 55.0757 74.7612V40.8439C55.0875 40.6784 55.1367 40.5177 55.2196 40.3739C55.3026 40.2301 55.4171 40.1071 55.5545 40.014L71.5236 30.78L73.8036 29.4599C73.8305 29.4392 73.8616 29.4248 73.8947 29.4177C73.9279 29.4106 73.9621 29.411 73.9951 29.4188C74.0248 29.4371 74.0544 29.5009 74.0544 29.6058V63.5368C74.0426 63.7023 73.9934 63.863 73.9104 64.0068C73.8275 64.1505 73.713 64.2736 73.5756 64.3667L71.494 65.5682H71.4985Z" fill="#BA68C8"/>
<path d="M64.5628 37.4969C66.6148 36.3158 68.2678 37.2689 68.2678 39.6378C68.2678 42.0067 66.6079 44.8818 64.5628 46.0537C62.5176 47.2256 60.8578 46.2817 60.8578 43.9151C60.8578 41.5484 62.5176 38.6802 64.5628 37.4969Z" fill="#BA68C8"/>
<path d="M64.5628 39.3574C65.2263 38.9743 65.7643 39.2844 65.7643 40.0414C65.7418 40.4584 65.6212 40.8642 65.4125 41.2259C65.2037 41.5875 64.9126 41.8949 64.5628 42.123C63.8993 42.506 63.3612 42.196 63.3612 41.439C63.3837 41.022 63.5043 40.6162 63.7131 40.2545C63.9218 39.8928 64.213 39.5855 64.5628 39.3574Z" fill="#BA68C8"/>
<path d="M66.9043 43.4431C66.9043 42.1846 66.022 41.6738 64.9298 42.3031L64.2458 42.6976C63.156 43.3268 62.2714 44.859 62.2714 46.1176V46.4573C62.9029 46.6648 63.6964 46.553 64.5514 46.0537C65.4985 45.4695 66.2995 44.6763 66.8929 43.735L66.9043 43.4431Z" fill="#BA68C8"/>
<path opacity="0.7" d="M64.5628 39.3574C65.2263 38.9743 65.7643 39.2844 65.7643 40.0414C65.7418 40.4584 65.6212 40.8642 65.4125 41.2259C65.2037 41.5875 64.9126 41.8949 64.5628 42.123C63.8993 42.506 63.3612 42.196 63.3612 41.439C63.3837 41.022 63.5043 40.6162 63.7131 40.2545C63.9218 39.8928 64.213 39.5855 64.5628 39.3574Z" fill="white"/>
<path opacity="0.7" d="M66.9043 43.4431C66.9043 42.1846 66.022 41.6738 64.9298 42.3031L64.2458 42.6976C63.156 43.3268 62.2714 44.859 62.2714 46.1176V46.4573C62.9029 46.6648 63.6964 46.553 64.5514 46.0537C65.4985 45.4695 66.2995 44.6763 66.8929 43.735L66.9043 43.4431Z" fill="white"/>
<path d="M57.3944 51.2635L62.1619 48.5116C62.3899 48.3862 62.5564 48.4865 62.5564 48.7396V48.8969C62.5491 49.0339 62.5097 49.1673 62.4411 49.2861C62.3726 49.405 62.2769 49.506 62.1619 49.5809L57.3944 52.3328C57.1778 52.4582 57 52.3556 57 52.1048V51.9475C57.0074 51.8105 57.047 51.6772 57.1155 51.5584C57.184 51.4396 57.2796 51.3385 57.3944 51.2635Z" fill="#BA68C8"/>
<path opacity="0.1" d="M57.3944 51.2635L62.1619 48.5116C62.3899 48.3862 62.5564 48.4865 62.5564 48.7396V48.8969C62.5491 49.0339 62.5097 49.1673 62.4411 49.2861C62.3726 49.405 62.2769 49.506 62.1619 49.5809L57.3944 52.3328C57.1778 52.4582 57 52.3556 57 52.1048V51.9475C57.0074 51.8105 57.047 51.6772 57.1155 51.5584C57.184 51.4396 57.2796 51.3385 57.3944 51.2635Z" fill="black"/>
<path d="M57.1984 54.5855L71.6216 46.2589C71.7288 46.1951 71.8177 46.2452 71.8177 46.3729V48.0556C71.8137 48.1238 71.7939 48.1903 71.7599 48.2496C71.7259 48.309 71.6785 48.3596 71.6216 48.3976L57.1984 56.7241C57.0889 56.788 57 56.7355 57 56.6101V54.9275C57.0039 54.8589 57.0239 54.7922 57.0584 54.7328C57.0928 54.6734 57.1408 54.6229 57.1984 54.5855Z" fill="#BA68C8"/>
<path opacity="0.2" d="M57.1984 54.5855L71.6216 46.2589C71.7288 46.1951 71.8177 46.2452 71.8177 46.3729V48.0556C71.8137 48.1238 71.7939 48.1903 71.7599 48.2496C71.7259 48.309 71.6785 48.3596 71.6216 48.3976L57.1984 56.7241C57.0889 56.788 57 56.7355 57 56.6101V54.9275C57.0039 54.8589 57.0239 54.7922 57.0584 54.7328C57.0928 54.6734 57.1408 54.6229 57.1984 54.5855Z" fill="white"/>
<path d="M57.3944 58.7488L62.1619 55.9968C62.3899 55.8714 62.5564 55.974 62.5564 56.2248V56.3821C62.5493 56.5192 62.5099 56.6526 62.4413 56.7715C62.3728 56.8904 62.277 56.9914 62.1619 57.0661L57.3944 59.8181C57.1778 59.9458 57 59.8432 57 59.5901V59.4328C57.0078 59.2959 57.0475 59.1627 57.116 59.0439C57.1845 58.9251 57.2798 58.824 57.3944 58.7488Z" fill="#BA68C8"/>
<path opacity="0.1" d="M57.3944 58.7488L62.1619 55.9968C62.3899 55.8714 62.5564 55.974 62.5564 56.2248V56.3821C62.5493 56.5192 62.5099 56.6526 62.4413 56.7715C62.3728 56.8904 62.277 56.9914 62.1619 57.0661L57.3944 59.8181C57.1778 59.9458 57 59.8432 57 59.5901V59.4328C57.0078 59.2959 57.0475 59.1627 57.116 59.0439C57.1845 58.9251 57.2798 58.824 57.3944 58.7488Z" fill="black"/>
<path d="M57.1984 62.0707L71.6216 53.7442C71.7288 53.6803 71.8177 53.7328 71.8177 53.8582V55.5408C71.8137 55.6091 71.7939 55.6755 71.7599 55.7349C71.7259 55.7942 71.6785 55.8448 71.6216 55.8828L57.1984 64.2094C57.0889 64.2732 57 64.223 57 64.0954V62.4127C57.0039 62.3442 57.0239 62.2775 57.0584 62.2181C57.0928 62.1586 57.1408 62.1082 57.1984 62.0707Z" fill="#BA68C8"/>
<path opacity="0.2" d="M57.1984 62.0707L71.6216 53.7442C71.7288 53.6803 71.8177 53.7328 71.8177 53.8582V55.5408C71.8137 55.6091 71.7939 55.6755 71.7599 55.7349C71.7259 55.7942 71.6785 55.8448 71.6216 55.8828L57.1984 64.2094C57.0889 64.2732 57 64.223 57 64.0954V62.4127C57.0039 62.3442 57.0239 62.2775 57.0584 62.2181C57.0928 62.1586 57.1408 62.1082 57.1984 62.0707Z" fill="white"/>
<path d="M62.9508 63.026L68.6508 59.7406C68.8788 59.6129 69.0476 59.7155 69.0476 59.9686V61.7287C69.0401 61.8659 69.0002 61.9995 68.9313 62.1183C68.8623 62.2372 68.7662 62.3381 68.6508 62.4127L62.9508 65.7005C62.7228 65.8259 62.5564 65.7233 62.5564 65.4725V63.71C62.5643 63.5732 62.6041 63.4401 62.6726 63.3213C62.7411 63.2026 62.8364 63.1014 62.9508 63.026Z" fill="#BA68C8"/>
<path opacity="0.1" d="M62.9508 63.026L68.6508 59.7406C68.8788 59.6129 69.0476 59.7155 69.0476 59.9686V61.7287C69.0401 61.8659 69.0002 61.9995 68.9313 62.1183C68.8623 62.2372 68.7662 62.3381 68.6508 62.4127L62.9508 65.7005C62.7228 65.8259 62.5564 65.7233 62.5564 65.4725V63.71C62.5643 63.5732 62.6041 63.4401 62.6726 63.3213C62.7411 63.2026 62.8364 63.1014 62.9508 63.026Z" fill="black"/>
<path d="M76.4484 55.5978C76.4484 55.5978 73.6486 51.7355 73.4844 51.2658C73.3544 50.9192 73.4844 50.404 73.5254 50.1646C73.5665 49.9252 73.603 49.3916 73.644 49.2526C73.7124 48.9926 73.3772 49.0451 73.188 49.2822C72.9988 49.5193 72.9349 49.9936 72.8369 50.0711C72.7388 50.1486 71.9933 49.061 71.6034 48.5594C71.2135 48.0578 70.9696 47.7523 70.7302 47.9393C70.5592 48.0738 70.6868 48.3656 70.9696 48.7943C71.1347 49.0251 71.2869 49.2649 71.4256 49.5125C71.4689 49.606 71.2363 49.6128 71.1109 49.8066C71.0129 49.9571 71.1109 50.201 70.9741 50.3173C70.8899 50.3814 70.8322 50.4742 70.8121 50.578C70.7919 50.6819 70.8106 50.7895 70.8647 50.8805C71.1185 51.279 71.4458 51.6257 71.8291 51.9019C72.2486 52.1915 72.4174 52.2941 72.6659 52.6885C72.9144 53.083 75.1442 57.1117 75.2947 57.3534C75.4452 57.5951 75.7348 58.0876 76.1748 58.1012C76.6148 58.1149 80.2172 55.0141 80.4019 54.8591C80.9947 54.3643 81.184 54.2936 81.2843 54.7382C81.3189 54.8963 81.3448 55.0561 81.3618 55.217C81.4325 55.7825 81.8178 57.8026 81.8178 57.8026C81.8178 57.8026 83.6418 58.6849 85.1398 58.2586C86.6377 57.8322 87.1439 57.1961 87.1439 57.1961L86.3938 55.974C86.5967 55.4701 87.5338 53.4272 87.837 51.9977L83.1402 51.2384C83.0444 51.2179 82.8894 51.1792 82.6842 51.1267C82.4266 51.0583 81.7722 50.8326 81.2774 51.2658C79.6632 52.6726 76.453 55.5978 76.453 55.5978" fill="#FFA8A7"/>
<path d="M85.7599 79.2961L84.9186 80.4658C85.3009 80.6443 85.7187 80.7339 86.1407 80.728C86.8953 80.7553 87.1028 80.5 87.1302 80.4498C87.2579 80.1762 87.0595 79.6837 87.0048 79.2596L85.7599 79.2961Z" fill="#37474F"/>
<path d="M84.9665 79.9049C84.9665 79.9049 83.945 79.8388 83.2405 79.7521C82.536 79.6655 81.9774 80.0075 82.1415 80.297C82.3057 80.5866 82.6956 80.8283 83.3021 81.0312C83.8196 81.2068 84.4421 81.3322 84.9801 81.4872C85.5182 81.6422 85.8921 81.8452 86.2045 81.7357C86.5533 81.6149 86.7038 81.4758 86.6742 81.2204C86.598 80.8572 86.5037 80.498 86.3915 80.1443L84.9665 79.9049Z" fill="#37474F"/>
<path d="M87.1302 78.1219C87.1302 78.1219 87.0025 79.1844 86.9934 79.4124C86.9843 79.6404 85.956 79.7134 85.76 79.2961L85.728 77.9965L87.1302 78.1219Z" fill="#F28F8F"/>
<path d="M86.0951 78.774L86.4622 80.3882C86.4622 80.3882 86.4964 80.5843 85.6574 80.7097C84.8183 80.8351 83.5005 80.2697 83.2747 80.1557C83.049 80.0417 83.024 79.8114 83.8493 79.857C84.6747 79.9026 84.9665 79.9049 84.9665 79.9049L84.6975 79.1912L86.0951 78.774Z" fill="#FFA8A7"/>
<path d="M87.8233 51.984L88.4047 51.8221C88.4047 51.8221 89.6199 55.6685 89.7545 56.0401C89.889 56.4118 90.0417 56.8039 89.7795 57.2622C89.4672 57.8071 87.8233 59.9982 87.8233 59.9982L86.7791 58.9768L87.9647 56.8062L86.9159 54.6858L87.8233 51.984Z" fill="#F28F8F"/>
<path d="M81.8521 46.9885C81.7158 46.7326 81.6466 46.4464 81.651 46.1565C81.6553 45.8666 81.7332 45.5826 81.8771 45.331C82.4563 44.2571 83.7467 43.735 85.2835 43.9333C85.9948 44.0268 86.8338 44.6173 87.2921 45.4997C87.7983 46.4778 87.8462 48.4477 87.9761 49.1933L81.8521 46.9885Z" fill="#37474F"/>
<path d="M81.8109 47.4103C81.8109 47.4103 81.4461 48.1057 81.5099 48.1696C81.6045 48.2248 81.7078 48.2633 81.8155 48.2836L81.8109 47.4103Z" fill="#FFA8A7"/>
<path d="M82.919 45.2124C82.5223 45.47 81.8383 45.9443 81.8087 47.5061C81.7767 49.1021 82.0047 49.6288 82.2419 49.8134C82.4015 49.9388 83.3385 49.875 83.7398 49.7815C84.1411 49.688 85.2971 49.1158 85.7143 48.2471C86.2045 47.2256 86.1042 45.7391 85.3769 45.2831C85.0067 45.0642 84.587 44.9428 84.1571 44.9305C83.7272 44.9181 83.3012 45.0151 82.919 45.2124Z" fill="#FFA8A7"/>
<path d="M87.1302 57.187C87.8325 58.2814 88.4982 59.239 88.6441 60.4747C88.9451 63.0716 87.9601 66.0402 87.7481 67.9622C88.1469 68.5089 88.3767 69.1605 88.4093 69.8364C88.4093 70.6321 87.1302 78.1219 87.1302 78.1219C87.1302 78.1219 86.2 78.4046 85.728 77.9965L84.8502 64.2185L85.3062 62.5404L87.1302 57.187Z" fill="#BA68C8"/>
<path opacity="0.2" d="M87.1302 57.187C87.8325 58.2814 88.4982 59.239 88.6441 60.4747C88.9451 63.0716 87.9601 66.0402 87.7481 67.9622C88.1469 68.5089 88.3767 69.1605 88.4093 69.8364C88.4093 70.6321 87.1302 78.1219 87.1302 78.1219C87.1302 78.1219 86.2 78.4046 85.728 77.9965L84.8502 64.2185L85.3062 62.5404L87.1302 57.187Z" fill="black"/>
<path d="M84.8502 64.2185L85.3062 62.5404C86.1793 62.3106 87.0214 61.976 87.8142 61.544C87.8142 61.544 87.34 62.4082 85.9765 62.8824L85.272 65.037L85.2127 69.9732L84.8502 64.2185Z" fill="#BA68C8"/>
<path opacity="0.3" d="M84.8502 64.2185L85.3062 62.5404C86.1793 62.3106 87.0214 61.976 87.8142 61.544C87.8142 61.544 87.34 62.4082 85.9765 62.8824L85.272 65.037L85.2127 69.9732L84.8502 64.2185Z" fill="black"/>
<path d="M87.1302 57.187C87.5064 57.8026 88.4047 58.8514 88.2132 59.8614C87.9852 61.0835 87.324 61.943 85.313 62.5404L83.4252 69.3804C83.4252 69.3804 84.4079 70.2924 84.7088 71.1748C85.0098 72.0571 86.0951 78.7786 86.0951 78.7786C86.0951 78.7786 85.7576 79.328 84.6974 79.1958C84.6974 79.1958 81.0015 70.7598 80.7416 70.2103C80.4261 69.6538 80.3156 69.0044 80.4293 68.3749C80.5455 67.4903 81.7973 57.8071 81.7973 57.8071L87.1302 57.187Z" fill="#BA68C8"/>
<path opacity="0.2" d="M87.1302 57.187C87.5064 57.8026 88.4047 58.8514 88.2132 59.8614C87.9852 61.0835 87.324 61.943 85.313 62.5404L83.4252 69.3804C83.4252 69.3804 84.4079 70.2924 84.7088 71.1748C85.0098 72.0571 86.0951 78.7786 86.0951 78.7786C86.0951 78.7786 85.7576 79.328 84.6974 79.1958C84.6974 79.1958 81.0015 70.7598 80.7416 70.2103C80.4261 69.6538 80.3156 69.0044 80.4293 68.3749C80.5455 67.4903 81.7973 57.8071 81.7973 57.8071L87.1302 57.187Z" fill="black"/>
<path d="M87.8234 51.984L83.1265 51.2248C83.0308 51.2042 82.8757 51.1655 82.6705 51.113C82.6705 51.113 82.4699 54.0588 81.2638 54.7337C81.2934 54.875 81.3185 55.0324 81.3413 55.2125C81.412 55.7779 81.7973 57.798 81.7973 57.798C81.7973 57.798 83.6213 58.6804 85.1193 58.254C86.6172 57.8276 87.1234 57.1915 87.1234 57.1915L86.3733 55.9694C86.583 55.461 87.527 53.4181 87.8234 51.984Z" fill="#BA68C8"/>
<path opacity="0.7" d="M87.8234 51.984L83.1265 51.2248C83.0308 51.2042 82.8757 51.1655 82.6705 51.113C82.6705 51.113 82.4699 54.0588 81.2638 54.7337C81.2934 54.875 81.3185 55.0324 81.3413 55.2125C81.412 55.7779 81.7973 57.798 81.7973 57.798C81.7973 57.798 83.6213 58.6804 85.1193 58.254C86.6172 57.8276 87.1234 57.1915 87.1234 57.1915L86.3733 55.9694C86.583 55.461 87.527 53.4181 87.8234 51.984Z" fill="white"/>
<path d="M86.5853 55.4838C85.9616 55.8583 85.308 56.1809 84.6313 56.4482C85.2455 56.436 85.8468 56.2698 86.3801 55.9649L86.5853 55.4838Z" fill="#BA68C8"/>
<path d="M82.8027 45.2899C82.8027 45.2899 82.5747 46.7719 83.1128 47.6429C83.1128 47.6429 83.3135 47.0524 83.8128 47.1641C84.3121 47.2758 84.3395 47.9347 83.9883 48.3041C83.8991 48.4077 83.7824 48.484 83.6518 48.5244C83.5211 48.5647 83.3817 48.5674 83.2496 48.5321C83.2496 48.5321 83.1698 49.6037 83.1265 50.502C83.0832 51.4003 82.8461 53.3588 83.8561 54.15C84.8661 54.9412 87.4015 55.2193 88.5894 53.5595C89.2506 52.6361 88.3728 51.0036 87.9647 49.1728C87.5885 47.4901 87.3764 44.9958 85.5912 44.5945C83.8059 44.1932 82.8027 45.2899 82.8027 45.2899Z" fill="#37474F"/>
<path d="M89.3532 25.0412L88.977 25.2692C89.0086 25.1354 89.0262 24.9986 89.0295 24.8611C89.0295 24.0973 88.4937 23.7895 87.8325 24.1771C87.6312 24.2985 87.4517 24.4526 87.3012 24.6331C87.3012 23.6071 86.5807 23.1899 85.6915 23.7029C85.223 24.0085 84.833 24.4202 84.5534 24.9047C84.2737 25.3892 84.1122 25.9327 84.0819 26.4913C84.0819 26.5438 84.0819 26.5939 84.0819 26.6441C83.8528 26.6153 83.621 26.6686 83.4275 26.7946C83.0791 27.0216 82.7891 27.3276 82.5812 27.6877C82.3732 28.0478 82.253 28.4518 82.2305 28.8671C82.2304 28.9636 82.2403 29.0599 82.2602 29.1544L82.0595 29.2706C81.5146 29.5853 81.0723 30.1986 81.0723 30.6386C81.0723 31.0787 81.5146 31.1836 82.0595 30.8666L89.3555 26.66C89.9004 26.3454 90.3427 25.7321 90.3427 25.292C90.3427 24.852 89.8981 24.7243 89.3532 25.0412Z" fill="#EBEBEB"/>
</svg>
