<svg width="347" height="321" viewBox="0 0 347 321" fill="none" xmlns="http://www.w3.org/2000/svg">
<path d="M67.8143 265.032C128.335 296.222 226.465 296.222 286.986 265.032C347.507 233.843 347.507 183.273 286.986 152.077C226.465 120.881 128.363 120.887 67.8143 152.077C7.26583 183.266 7.32119 233.843 67.8143 265.032Z" fill="#F5F5F5"/>
<path d="M50.9438 213.883L31.2708 202.681V161.054L50.9438 172.262V213.883Z" fill="#E0E0E0"/>
<path d="M50.9438 172.262L79.0522 156.255V197.875L50.9438 213.883V172.262Z" fill="#EBEBEB"/>
<path d="M79.0521 156.255L50.9438 172.262L31.2708 161.054L59.3791 145.046L79.0521 156.255Z" fill="#F5F5F5"/>
<path d="M53.7602 173.86L76.2427 161.054L76.7617 161.347V176.768L54.2723 189.574L53.7533 189.28L53.7602 173.86Z" fill="#E0E0E0"/>
<path d="M54.2722 174.16L76.7616 161.347V176.768L54.2722 189.574V174.16Z" fill="#F5F5F5"/>
<path d="M63.0881 171.75L66.9147 169.573C67.406 169.286 67.8074 169.416 67.8074 169.86C67.7717 170.131 67.6725 170.391 67.5176 170.619C67.3627 170.846 67.1563 171.035 66.9147 171.17L63.0881 173.348C62.5898 173.634 62.1885 173.505 62.1885 173.061C62.2244 172.789 62.3244 172.528 62.4806 172.3C62.6368 172.073 62.8448 171.884 63.0881 171.75Z" fill="#E0E0E0"/>
<path d="M53.2412 193.369L75.7237 180.563V195.984L76.2427 196.277L53.7533 209.084L53.2412 208.79V193.369Z" fill="#E0E0E0"/>
<path d="M53.7533 193.663L76.2427 180.857V196.277L53.7533 209.084V193.663Z" fill="#F5F5F5"/>
<path d="M62.5691 191.26L66.4303 189.089C66.9286 188.803 67.3299 188.932 67.3299 189.376C67.294 189.649 67.194 189.909 67.0378 190.137C66.8816 190.364 66.6736 190.553 66.4303 190.687L62.6037 192.864C62.1055 193.151 61.7041 193.021 61.7041 192.578C61.7352 192.307 61.8295 192.047 61.9796 191.818C62.1297 191.59 62.3315 191.399 62.5691 191.26Z" fill="#E0E0E0"/>
<path d="M50.9438 169.859L31.2708 158.651V117.031L50.9438 128.233V169.859Z" fill="#E0E0E0"/>
<path d="M50.9438 128.233L79.0522 112.225V153.852L50.9438 169.86V128.233Z" fill="#EBEBEB"/>
<path d="M79.0521 112.225L50.9438 128.233L31.2708 117.031L59.3791 101.023L79.0521 112.225Z" fill="#F5F5F5"/>
<path d="M53.7533 129.837L76.2427 117.031L76.7617 117.324V132.745L54.2723 145.551L53.7533 145.251V129.837Z" fill="#E0E0E0"/>
<path d="M63.0881 127.721L66.9078 125.543C67.406 125.263 67.8074 125.393 67.8074 125.837C67.7705 126.109 67.67 126.369 67.5139 126.596C67.3578 126.824 67.1503 127.012 66.9078 127.147L63.0881 129.325C62.5898 129.605 62.1885 129.482 62.1885 129.038C62.2249 128.765 62.3251 128.504 62.4812 128.275C62.6373 128.046 62.845 127.857 63.0881 127.721Z" fill="#E0E0E0"/>
<path d="M53.2412 149.346L75.7237 136.54V151.954L76.2427 152.248L53.7533 165.054L53.2412 164.76V149.346Z" fill="#E0E0E0"/>
<path d="M53.7533 149.64L76.2427 136.834V152.248L53.7533 165.054V149.64Z" fill="#F5F5F5"/>
<path d="M62.5691 147.23L66.4304 145.053C66.9217 144.773 67.33 144.902 67.33 145.346C67.291 145.618 67.1897 145.877 67.0339 146.104C66.878 146.331 66.6716 146.52 66.4304 146.657L62.5691 148.814C62.0709 149.094 61.6696 148.964 61.6696 148.527C61.709 148.258 61.8106 148 61.9665 147.776C62.1225 147.551 62.3286 147.364 62.5691 147.23Z" fill="#E0E0E0"/>
<path d="M53.7533 129.837L76.2427 117.031V132.444L53.7533 145.251V129.837Z" fill="#E0E0E0"/>
<path d="M87.4874 124.649L75.177 117.638V131.222L87.4874 138.226V124.649Z" fill="#E0E0E0"/>
<path d="M62.1885 147.449V128.233L67.0116 125.475L67.8074 126.635L81.8615 118.628V136.24L62.1885 147.449Z" fill="#EBEBEB"/>
<path d="M62.1885 147.449L63.5932 130.635L83.2663 119.433L81.8615 136.24L62.1885 147.449Z" fill="#F5F5F5"/>
<path d="M64.9979 137.455L54.2722 131.345V144.93L64.9979 151.032V137.455Z" fill="#EBEBEB"/>
<path d="M64.9979 136.24L87.4874 123.434V138.848L64.9979 151.654V136.24Z" fill="#F5F5F5"/>
<path d="M73.8139 133.83L77.6336 131.653C78.1319 131.373 78.5332 131.502 78.5332 131.946C78.4958 132.218 78.3951 132.478 78.2391 132.705C78.083 132.933 77.8758 133.121 77.6336 133.257L73.8139 135.434C73.3157 135.714 72.9143 135.584 72.9143 135.148C72.9507 134.874 73.0509 134.613 73.207 134.384C73.3631 134.156 73.5708 133.966 73.8139 133.83Z" fill="#E0E0E0"/>
<path d="M64.998 136.24L64.2506 135.817V151.23L64.998 151.654V136.24Z" fill="#E0E0E0"/>
<path d="M64.2506 135.817L86.7331 123.004L87.4874 123.434L64.998 136.24L64.2506 135.817Z" fill="#EBEBEB"/>
<path d="M283.367 188.666L263.687 177.457V135.837L283.367 147.039V188.666Z" fill="#E0E0E0"/>
<path d="M283.367 147.039L311.475 131.031V172.658L283.367 188.666V147.039Z" fill="#EBEBEB"/>
<path d="M311.475 131.031L283.367 147.039L263.687 135.837L291.802 119.823L311.475 131.031Z" fill="#F5F5F5"/>
<path d="M286.176 148.643L308.666 135.837L309.185 136.131L309.178 151.545L286.695 164.351L286.176 164.057V148.643Z" fill="#E0E0E0"/>
<path d="M286.695 148.937L309.185 136.131L309.178 151.544L286.695 164.351V148.937Z" fill="#F5F5F5"/>
<path d="M295.511 146.527L299.331 144.35C299.829 144.07 300.23 144.199 300.23 144.636C300.194 144.91 300.094 145.171 299.938 145.399C299.782 145.628 299.574 145.818 299.331 145.954L295.511 148.131C295.013 148.411 294.612 148.282 294.612 147.845C294.648 147.571 294.748 147.31 294.904 147.082C295.06 146.853 295.268 146.663 295.511 146.527Z" fill="#E0E0E0"/>
<path d="M285.657 168.153L308.147 155.34V170.761L308.666 171.054L286.176 183.86L285.657 183.567V168.153Z" fill="#E0E0E0"/>
<path d="M286.176 168.446L308.666 155.64V171.054L286.176 183.86V168.446Z" fill="#F5F5F5"/>
<path d="M294.992 166.037L298.819 163.859C299.31 163.579 299.712 163.709 299.712 164.146C299.675 164.418 299.575 164.679 299.421 164.907C299.266 165.136 299.06 165.326 298.819 165.463L294.992 167.641C294.494 167.921 294.093 167.791 294.093 167.347C294.13 167.075 294.231 166.816 294.387 166.588C294.543 166.361 294.75 166.172 294.992 166.037Z" fill="#E0E0E0"/>
<path d="M96.1856 232.17C96.1856 232.17 96.2617 221.344 89.3419 213.227C83.2178 206.039 79.9586 201.479 81.8892 199.377C83.8199 197.274 87.9718 196.769 93.5699 202.585C99.168 208.401 99.604 224.511 98.829 228.156L96.1856 232.17Z" fill="#BA68C8"/>
<path opacity="0.2" d="M96.1856 232.17C96.1856 232.17 96.2617 221.344 89.3419 213.227C83.2178 206.039 79.9586 201.479 81.8892 199.377C83.8199 197.274 87.9718 196.769 93.5699 202.585C99.168 208.401 99.604 224.511 98.829 228.156L96.1856 232.17Z" fill="black"/>
<path d="M97.348 220.531C97.2692 220.532 97.1927 220.506 97.131 220.457C97.0694 220.409 97.0263 220.341 97.009 220.265C94.587 209.09 88.373 202.913 84.8785 200.223C84.8062 200.168 84.759 200.086 84.7473 199.997C84.7357 199.907 84.7604 199.817 84.8162 199.745C84.8736 199.673 84.9572 199.627 85.0491 199.615C85.1411 199.604 85.2339 199.628 85.3076 199.684C88.8713 202.414 95.2167 208.735 97.6871 220.122C97.6973 220.165 97.6985 220.21 97.6907 220.254C97.6829 220.298 97.6662 220.34 97.6417 220.378C97.6172 220.415 97.5854 220.448 97.548 220.473C97.5106 220.498 97.4685 220.516 97.4242 220.525L97.348 220.531Z" fill="white"/>
<path d="M95.9226 236.191L93.1063 237.795C92.8058 236.985 92.2992 236.265 91.635 235.705C90.9709 235.144 90.1717 234.761 89.3142 234.594C86.2349 233.911 83.0379 234.027 80.8789 231.392C78.7199 228.757 81.3495 225.89 80.8789 223.951C80.4084 222.013 80.1039 221.453 76.2426 219.514C72.3814 217.575 70.859 214.36 73.7653 212.183C76.6717 210.005 81.3772 211.602 84.2281 213.548C86.7608 215.255 89.1689 215.705 91.9991 216.053C94.8293 216.401 99.4379 217.951 98.7321 224.436C98.2699 228.45 97.3268 232.396 95.9226 236.191Z" fill="#BA68C8"/>
<path d="M85.1139 227.672C85.0402 227.671 84.9685 227.648 84.9089 227.605C84.8493 227.562 84.8049 227.502 84.7817 227.433C84.7555 227.346 84.7647 227.252 84.8074 227.172C84.85 227.092 84.9228 227.031 85.0101 227.003C85.2592 226.928 91.2379 225.057 93.7775 227.064C93.8405 227.123 93.8789 227.203 93.8851 227.288C93.8913 227.373 93.8648 227.458 93.8109 227.525C93.7569 227.592 93.6795 227.636 93.5939 227.649C93.5082 227.663 93.4207 227.644 93.3485 227.597C91.1064 225.822 85.28 227.638 85.2177 227.658L85.1139 227.672Z" fill="white"/>
<path d="M96.234 235.672C96.1497 235.673 96.0683 235.642 96.0057 235.587C95.943 235.531 95.9035 235.454 95.8949 235.372C94.3518 220.996 76.7962 214.176 76.6232 214.108C76.5803 214.092 76.541 214.068 76.5077 214.037C76.4743 214.006 76.4475 213.969 76.4288 213.927C76.4102 213.886 76.4 213.841 76.3989 213.796C76.3978 213.751 76.4058 213.706 76.4225 213.664C76.4565 213.581 76.5215 213.515 76.6039 213.478C76.6863 213.441 76.7799 213.437 76.8654 213.466C77.0522 213.541 94.9953 220.504 96.58 235.31C96.5897 235.4 96.5632 235.49 96.5061 235.56C96.4491 235.63 96.3662 235.675 96.2755 235.686L96.234 235.672Z" fill="white"/>
<path d="M268.351 226.75C268.427 226.511 271.396 211.439 268.351 200.749C265.583 190.946 261.971 187.328 256.822 186.529C251.674 185.731 249.439 189.39 252.172 194.346C254.906 199.301 261.486 205.875 263.099 216.948C263.791 221.507 264.317 225.467 264.317 225.467L268.351 226.75Z" fill="#BA68C8"/>
<path opacity="0.2" d="M268.351 226.75C268.427 226.511 271.396 211.439 268.351 200.749C265.583 190.946 261.971 187.328 256.822 186.529C251.674 185.731 249.439 189.39 252.172 194.346C254.906 199.301 261.486 205.875 263.099 216.948C263.791 221.507 264.317 225.467 264.317 225.467L268.351 226.75Z" fill="black"/>
<path d="M266.614 218.094C266.568 218.092 266.524 218.08 266.483 218.061C266.442 218.041 266.405 218.014 266.375 217.98C266.345 217.946 266.322 217.907 266.307 217.865C266.292 217.822 266.286 217.777 266.289 217.733C266.981 205.527 262.939 194.632 255.694 189.287C255.621 189.233 255.572 189.152 255.56 189.062C255.547 188.973 255.57 188.882 255.625 188.809C255.681 188.738 255.763 188.692 255.853 188.679C255.944 188.666 256.036 188.689 256.11 188.741C263.535 194.202 267.7 205.343 266.974 217.774C266.968 217.863 266.928 217.947 266.86 218.007C266.793 218.067 266.705 218.098 266.614 218.094Z" fill="white"/>
<path d="M276.316 234.6C275.921 231.795 277.554 227.59 281.436 226.593C285.318 225.597 287.048 223.398 285.65 220.996C284.253 218.593 284.578 216.388 288.1 215.391C291.622 214.395 294.708 212.661 292.681 208.988C291.207 206.333 290.882 204.612 294.494 199.383C297.49 195.042 295.041 192.496 291.29 192.974C287.54 193.451 285.221 197.861 282.876 198.598C280.53 199.336 279.99 195.404 276.897 197.165C273.804 198.926 273.991 203.438 273.894 206.585C273.797 209.732 273.589 210.442 270.794 210.06C267.998 209.678 265.258 210.128 265.32 216.797C265.368 222.518 268.462 229.604 268.462 229.604L276.316 234.6Z" fill="#BA68C8"/>
<path d="M271.409 230.334H271.375C271.282 230.324 271.198 230.278 271.139 230.206C271.081 230.134 271.054 230.043 271.063 229.952C273.015 212.756 287.975 198.25 291.878 195.308C291.952 195.253 292.044 195.229 292.136 195.241C292.227 195.253 292.31 195.3 292.366 195.373C292.422 195.445 292.447 195.537 292.434 195.627C292.422 195.717 292.374 195.799 292.3 195.854C288.446 198.755 273.679 213.07 271.755 230.027C271.745 230.111 271.705 230.188 271.641 230.245C271.577 230.301 271.495 230.333 271.409 230.334Z" fill="white"/>
<path d="M278.232 211.951C278.162 211.95 278.094 211.929 278.036 211.89C277.978 211.851 277.933 211.796 277.907 211.732C277.878 211.646 277.883 211.552 277.921 211.47C277.96 211.387 278.029 211.322 278.115 211.289C283.692 209.241 290.017 210.21 290.287 210.251C290.376 210.266 290.456 210.315 290.509 210.388C290.563 210.461 290.584 210.551 290.57 210.64C290.554 210.728 290.503 210.807 290.43 210.86C290.357 210.913 290.266 210.937 290.176 210.927C290.114 210.927 283.761 209.944 278.357 211.93C278.317 211.944 278.275 211.951 278.232 211.951Z" fill="white"/>
<path d="M273.264 222.286C273.215 222.285 273.167 222.275 273.123 222.255C273.079 222.235 273.04 222.206 273.008 222.17C270.688 219.505 269.116 216.288 268.448 212.838C268.441 212.794 268.443 212.748 268.454 212.705C268.465 212.661 268.484 212.62 268.511 212.584C268.538 212.548 268.572 212.517 268.611 212.494C268.65 212.471 268.693 212.456 268.738 212.449C268.783 212.442 268.829 212.444 268.873 212.455C268.918 212.466 268.959 212.485 268.996 212.512C269.032 212.538 269.063 212.572 269.087 212.61C269.11 212.649 269.126 212.691 269.133 212.736C269.794 216.05 271.307 219.141 273.527 221.712C273.57 221.763 273.598 221.824 273.607 221.889C273.617 221.954 273.607 222.021 273.579 222.081C273.552 222.141 273.508 222.192 273.452 222.229C273.396 222.265 273.331 222.285 273.264 222.286Z" fill="white"/>
<path d="M95.9226 130.54V236.198L205.547 173.764L205.54 77.7109L124.031 124.137L121.215 116.13L95.9226 130.54Z" fill="#BA68C8"/>
<path opacity="0.7" d="M95.9226 130.54V236.198L205.547 173.764L205.54 77.7109L124.031 124.137L121.215 116.13L95.9226 130.54Z" fill="black"/>
<path d="M95.9226 236.198L101.542 140.145L211.165 77.7109L205.546 173.764L95.9226 236.198Z" fill="#E0E0E0"/>
<path d="M95.9226 236.198L104.351 141.749L213.975 79.3083L205.546 173.764L95.9226 236.198Z" fill="#BA68C8"/>
<path opacity="0.7" d="M95.9226 236.198L104.351 141.749L213.975 79.3083L205.546 173.764L95.9226 236.198Z" fill="black"/>
<path d="M112.786 140.145V245.809L222.41 183.369V87.3156L140.895 133.741L138.085 125.734L112.786 140.145Z" fill="#BA68C8"/>
<path opacity="0.5" d="M112.786 140.145V245.809L222.41 183.369V87.3156L140.895 133.741L138.085 125.734L112.786 140.145Z" fill="black"/>
<path d="M112.786 245.809L118.405 149.749L228.029 87.3156L222.41 183.369L112.786 245.809Z" fill="#E0E0E0"/>
<path d="M112.786 245.809L121.215 151.353L230.838 88.913L222.41 183.369L112.786 245.809Z" fill="#BA68C8"/>
<path opacity="0.5" d="M112.786 245.809L121.215 151.353L230.838 88.913L222.41 183.369L112.786 245.809Z" fill="black"/>
<path d="M205.519 279.429C185.839 268.22 167.584 256.035 159.253 241.741L184.579 227.317L205.519 279.429Z" fill="#E0E0E0"/>
<path d="M132.459 151.353V257.011L242.083 194.578V98.5244L160.568 144.95L157.758 136.943L132.459 151.353Z" fill="#BA68C8"/>
<path opacity="0.2" d="M132.459 151.353V257.011L242.083 194.578V98.5244L160.568 144.95L157.758 136.943L132.459 151.353Z" fill="black"/>
<path d="M164.041 182.591C163.765 182.591 163.723 182.277 163.723 182.092V91.9849C163.745 91.6353 163.849 91.2956 164.027 90.9924C164.205 90.6892 164.451 90.4308 164.747 90.2373L243.868 45.1836C243.977 45.1169 244.101 45.0792 244.228 45.0743C244.505 45.0743 244.547 45.3884 244.547 45.5727V135.68C244.525 136.031 244.421 136.372 244.243 136.676C244.066 136.98 243.819 137.24 243.522 137.435L164.401 182.488C164.292 182.552 164.168 182.587 164.041 182.591Z" fill="white"/>
<path d="M244.187 45.3883C244.192 45.4382 244.192 45.4886 244.187 45.5385V135.646C244.164 135.937 244.076 136.219 243.928 136.471C243.781 136.724 243.579 136.941 243.336 137.107L164.214 182.161L164.076 182.222C164.067 182.172 164.067 182.122 164.076 182.072V91.9644C164.1 91.6749 164.188 91.3943 164.336 91.1429C164.483 90.8914 164.685 90.6753 164.927 90.5104L244.048 45.4566C244.092 45.4265 244.141 45.4056 244.194 45.3951M244.235 44.7125C244.047 44.718 243.863 44.7722 243.702 44.8695L164.581 89.9233C164.233 90.1487 163.944 90.4513 163.736 90.807C163.528 91.1626 163.407 91.5613 163.384 91.9712V182.079C163.384 182.611 163.654 182.918 164.076 182.918C164.264 182.913 164.448 182.859 164.609 182.761L243.73 137.708C244.079 137.484 244.37 137.182 244.578 136.826C244.786 136.47 244.906 136.07 244.927 135.66V45.5522C244.927 45.0197 244.657 44.7057 244.235 44.7125Z" fill="#BA68C8"/>
<path opacity="0.7" d="M244.187 45.3883C244.192 45.4382 244.192 45.4886 244.187 45.5385V135.646C244.164 135.937 244.076 136.219 243.928 136.471C243.781 136.724 243.579 136.941 243.336 137.107L164.214 182.161L164.076 182.222C164.067 182.172 164.067 182.122 164.076 182.072V91.9644C164.1 91.6749 164.188 91.3943 164.336 91.1429C164.483 90.8914 164.685 90.6753 164.927 90.5104L244.048 45.4566C244.092 45.4265 244.141 45.4056 244.194 45.3951M244.235 44.7125C244.047 44.718 243.863 44.7722 243.702 44.8695L164.581 89.9233C164.233 90.1487 163.944 90.4513 163.736 90.807C163.528 91.1626 163.407 91.5613 163.384 91.9712V182.079C163.384 182.611 163.654 182.918 164.076 182.918C164.264 182.913 164.448 182.859 164.609 182.761L243.73 137.708C244.079 137.484 244.37 137.182 244.578 136.826C244.786 136.47 244.906 136.07 244.927 135.66V45.5522C244.927 45.0197 244.657 44.7057 244.235 44.7125Z" fill="white"/>
<path d="M171.812 95.4048L199.921 79.3971V111.413L171.812 127.42V95.4048Z" fill="#BA68C8"/>
<path opacity="0.8" d="M171.812 95.4048L199.921 79.3971V111.413L171.812 127.42V95.4048Z" fill="white"/>
<path d="M195.706 87.3771V97.0022L194.821 97.4869V94.5447C194.821 92.9201 193.485 92.3671 191.824 93.3092L179.915 100.101C178.262 101.043 176.919 103.125 176.919 104.75V107.692L176.04 108.211V98.6064L195.706 87.3771Z" fill="white"/>
<path d="M190.295 111.884C188.856 112.703 187.686 111.843 187.686 109.952V94.5447L184.067 96.4834V112.013C184.067 113.897 182.898 116.109 181.459 116.908L178.843 118.396V119.42L192.897 111.413V110.395L190.295 111.884Z" fill="white"/>
<path d="M205.519 77.8202C205.519 78.7076 206.328 78.9602 207.318 78.4005L234.665 62.8023C235.15 62.531 235.565 62.1525 235.877 61.6965C236.19 61.2406 236.39 60.7195 236.464 60.1742C236.464 59.2936 235.655 59.0342 234.665 59.6007L207.339 75.1648C206.845 75.4356 206.424 75.817 206.108 76.2783C205.791 76.7396 205.59 77.2678 205.519 77.8202Z" fill="#455A64"/>
<path d="M205.519 87.377C205.519 88.2644 206.328 88.5238 207.318 87.9573L234.644 72.3932C235.13 72.1219 235.544 71.7435 235.857 71.2875C236.169 70.8315 236.37 70.3104 236.443 69.7651C236.443 68.8845 235.634 68.6251 234.644 69.1917L207.318 84.7557C206.834 85.0263 206.419 85.4037 206.107 85.8585C205.795 86.3132 205.594 86.8329 205.519 87.377Z" fill="#455A64"/>
<path d="M205.519 97.0022C205.519 97.8896 206.328 98.149 207.318 97.5824L234.644 82.0184C235.129 81.7478 235.543 81.3704 235.855 80.9157C236.167 80.461 236.369 79.9412 236.443 79.3971C236.443 78.5097 235.634 78.2503 234.644 78.8169L207.318 94.3809C206.834 94.6515 206.419 95.0289 206.107 95.4836C205.795 95.9383 205.594 96.4581 205.519 97.0022Z" fill="#455A64"/>
<path d="M205.519 106.607C205.519 107.494 206.328 107.754 207.318 107.187L234.644 91.623C235.129 91.3524 235.543 90.975 235.855 90.5203C236.167 90.0656 236.369 89.5459 236.443 89.0017C236.443 88.1143 235.634 87.8549 234.644 88.4215L207.318 103.986C206.834 104.256 206.419 104.634 206.107 105.088C205.795 105.543 205.594 106.063 205.519 106.607Z" fill="#455A64"/>
<path d="M171.812 135.428C171.812 136.315 172.615 136.574 173.611 136.008L234.665 101.194C235.15 100.924 235.565 100.547 235.877 100.092C236.189 99.6369 236.39 99.1168 236.464 98.5723C236.464 97.6849 235.655 97.4323 234.665 97.9921L173.611 132.806C173.126 133.076 172.711 133.453 172.399 133.908C172.086 134.363 171.886 134.883 171.812 135.428Z" fill="#455A64"/>
<path d="M171.812 145.032C171.812 145.92 172.615 146.179 173.611 145.612L234.665 110.839C235.15 110.568 235.565 110.189 235.877 109.733C236.189 109.277 236.39 108.756 236.464 108.211C236.464 107.33 235.655 107.071 234.665 107.638L173.611 142.411C173.126 142.68 172.711 143.057 172.399 143.512C172.086 143.967 171.886 144.488 171.812 145.032Z" fill="#455A64"/>
<path d="M171.812 154.644C171.812 155.524 172.615 155.784 173.611 155.217L234.665 120.444C235.15 120.172 235.565 119.794 235.877 119.338C236.189 118.882 236.39 118.361 236.464 117.816C236.464 116.935 235.655 116.676 234.665 117.242L173.611 152.016C173.125 152.286 172.709 152.664 172.397 153.12C172.085 153.576 171.885 154.098 171.812 154.644Z" fill="#455A64"/>
<path d="M132.459 257.011L152.132 172.167L261.756 109.726L242.083 194.578L132.459 257.011Z" fill="#BA68C8"/>
<path d="M159.281 178.809V241.741L184.579 227.33V164.405L159.281 178.809Z" fill="#BA68C8"/>
<path opacity="0.2" d="M159.281 178.809V241.741L184.579 227.33V164.405L159.281 178.809Z" fill="black"/>
<path d="M205.567 279.019C203.415 277.436 182.67 261.797 172.124 239.427C160.9 215.644 160.914 187.902 160.914 177.464V177.136L236.118 134.308C236.118 144.841 236.118 172.624 247.391 196.489C257.694 218.333 277.644 233.775 280.806 236.136L205.567 279.019Z" fill="white"/>
<path d="M235.772 134.922C235.772 145.899 235.987 173.15 247.079 196.66C257.037 217.753 275.97 232.921 280.184 236.123L205.588 278.61C202.675 276.446 182.711 261.066 172.442 239.311C161.232 215.596 161.232 187.908 161.232 177.485V177.355L235.745 134.916M236.437 133.735L160.54 176.966C160.54 186.789 160.332 215.33 171.785 239.597C183.057 263.414 205.519 279.429 205.519 279.429L281.436 236.191C281.436 236.191 258.947 220.176 247.709 196.359C236.25 172.092 236.464 143.551 236.464 133.728L236.437 133.735Z" fill="#BA68C8"/>
<path opacity="0.7" d="M235.772 134.922C235.772 145.899 235.987 173.15 247.079 196.66C257.037 217.753 275.97 232.921 280.184 236.123L205.588 278.61C202.675 276.446 182.711 261.066 172.442 239.311C161.232 215.596 161.232 187.908 161.232 177.485V177.355L235.745 134.916M236.437 133.735L160.54 176.966C160.54 186.789 160.332 215.33 171.785 239.597C183.057 263.414 205.519 279.429 205.519 279.429L281.436 236.191C281.436 236.191 258.947 220.176 247.709 196.359C236.25 172.092 236.464 143.551 236.464 133.728L236.437 133.735Z" fill="white"/>
<path d="M227.877 148.234L203.879 161.886C203.398 162.147 202.989 162.519 202.685 162.969C202.382 163.42 202.193 163.936 202.135 164.474C202.17 165.341 203.007 165.586 203.996 165.02L228.001 151.367C228.476 151.109 228.881 150.742 229.183 150.298C229.485 149.854 229.676 149.345 229.738 148.814C229.697 147.913 228.873 147.667 227.877 148.234Z" fill="#455A64"/>
<path d="M228.389 157.552L204.391 171.204C203.916 171.456 203.514 171.822 203.221 172.269C202.928 172.715 202.755 173.227 202.716 173.757C202.792 174.597 203.664 174.822 204.654 174.256L228.659 160.603C229.131 160.352 229.531 159.987 229.82 159.541C230.109 159.096 230.279 158.585 230.312 158.057C230.243 157.21 229.385 157.006 228.389 157.552Z" fill="#455A64"/>
<path d="M229.351 166.61L205.346 180.263C204.356 180.83 203.637 181.956 203.754 182.768C203.872 183.581 204.778 183.792 205.775 183.226L229.78 169.573C230.769 169.006 231.475 167.887 231.35 167.074C231.226 166.262 230.34 166.044 229.351 166.61Z" fill="#455A64"/>
<path d="M230.79 175.396L206.785 189.048C205.796 189.615 205.11 190.721 205.277 191.513C205.443 192.305 206.384 192.482 207.352 191.916L231.35 178.263C232.347 177.696 233.011 176.597 232.845 175.805C232.679 175.014 231.814 174.829 230.79 175.396Z" fill="#455A64"/>
<path d="M232.741 183.888L208.737 197.54C207.747 198.107 207.103 199.185 207.353 199.943C207.602 200.701 208.55 200.872 209.539 200.305L233.544 186.652C234.541 186.086 235.163 185.014 234.928 184.249C234.693 183.485 233.731 183.321 232.741 183.888Z" fill="#455A64"/>
<path d="M235.274 192.072L176.774 225.392C175.784 225.958 175.182 227.01 175.452 227.74C175.722 228.47 176.753 228.607 177.743 228.04L236.243 194.721C237.239 194.154 237.814 193.11 237.544 192.373C237.274 191.636 236.229 191.506 235.274 192.072Z" fill="#455A64"/>
<path d="M238.353 199.889L179.86 233.208C178.864 233.775 178.317 234.799 178.649 235.495C178.981 236.191 180.033 236.3 181.043 235.734L239.543 202.414C240.54 201.848 241.073 200.824 240.741 200.128C240.408 199.431 239.35 199.329 238.353 199.889Z" fill="#455A64"/>
<path d="M242.194 207.336L183.694 240.655C182.697 241.222 182.206 242.219 182.6 242.881C182.995 243.543 184.123 243.611 185.119 243.045L243.578 209.725C244.567 209.166 245.045 208.176 244.65 207.514C244.256 206.851 243.163 206.77 242.194 207.336Z" fill="#455A64"/>
<path d="M246.671 214.381L188.178 247.693C187.181 248.26 186.738 249.236 187.188 249.857C187.638 250.479 188.821 250.54 189.818 249.967L248.311 216.647C249.307 216.081 249.736 215.118 249.287 214.49C248.837 213.862 247.667 213.814 246.671 214.381Z" fill="#455A64"/>
<path d="M251.778 221.078L193.278 254.39C192.288 254.957 191.894 255.905 192.392 256.499C192.89 257.093 194.115 257.121 195.111 256.554L253.611 223.221C254.601 222.654 254.995 221.719 254.483 221.125C253.971 220.531 252.774 220.49 251.778 221.078Z" fill="#455A64"/>
<path d="M257.417 227.453L198.938 260.766C197.941 261.332 197.554 262.261 198.135 262.814C198.717 263.367 199.948 263.38 200.938 262.814L259.438 229.494C260.434 228.928 260.78 228.013 260.227 227.447C259.673 226.88 258.428 226.894 257.417 227.453Z" fill="#455A64"/>
<path d="M263.645 233.549L205.145 266.862C204.156 267.428 203.83 268.336 204.453 268.876C205.076 269.415 206.349 269.394 207.346 268.828L265.797 235.508C266.787 234.942 267.098 234.054 266.489 233.508C265.88 232.962 264.614 232.983 263.645 233.549Z" fill="#455A64"/>
<path d="M195.18 166.863L167.584 182.563C167.889 192.427 169.03 206.653 173.21 220.982L200.813 205.281C196.627 190.953 195.485 176.72 195.18 166.863Z" fill="#BA68C8"/>
<path opacity="0.8" d="M195.18 166.863L167.584 182.563C167.889 192.427 169.03 206.653 173.21 220.982L200.813 205.281C196.627 190.953 195.485 176.72 195.18 166.863Z" fill="white"/>
<path d="M178.836 180.393C178.873 179.756 178.773 179.119 178.541 178.523C178.31 177.928 177.953 177.387 177.493 176.938L167.584 182.577C167.667 185.185 167.806 188.1 168.048 191.24C169.337 191.386 170.641 191.148 171.791 190.557C175.687 188.796 178.836 184.229 178.836 180.393Z" fill="#BA68C8"/>
<path opacity="0.6" d="M178.836 180.393C178.873 179.756 178.773 179.119 178.541 178.523C178.31 177.928 177.953 177.387 177.493 176.938L167.584 182.577C167.667 185.185 167.806 188.1 168.048 191.24C169.337 191.386 170.641 191.148 171.791 190.557C175.687 188.796 178.836 184.229 178.836 180.393Z" fill="white"/>
<path d="M198.467 195.861C196.627 193.574 192.883 186.509 191.285 183.43C191.222 183.309 191.124 183.208 191.002 183.142C190.881 183.076 190.743 183.048 190.605 183.06C190.467 183.073 190.336 183.126 190.229 183.212C190.122 183.299 190.044 183.415 190.005 183.546C188.275 189.378 187.271 195.395 187.015 201.466C184.711 199.661 182.729 197.487 181.154 195.035C181.087 194.94 180.994 194.866 180.885 194.822C180.777 194.777 180.658 194.764 180.542 194.784C180.426 194.804 180.319 194.857 180.233 194.935C180.146 195.013 180.084 195.114 180.054 195.226C177.037 206.688 178.552 217.965 178.552 217.965L200.813 205.281C199.886 202.114 199.118 198.96 198.467 195.861Z" fill="#BA68C8"/>
<path opacity="0.6" d="M198.467 195.861C196.627 193.574 192.883 186.509 191.285 183.43C191.222 183.309 191.124 183.208 191.002 183.142C190.881 183.076 190.743 183.048 190.605 183.06C190.467 183.073 190.336 183.126 190.229 183.212C190.122 183.299 190.044 183.415 190.005 183.546C188.275 189.378 187.271 195.395 187.015 201.466C184.711 199.661 182.729 197.487 181.154 195.035C181.087 194.94 180.994 194.866 180.885 194.822C180.777 194.777 180.658 194.764 180.542 194.784C180.426 194.804 180.319 194.857 180.233 194.935C180.146 195.013 180.084 195.114 180.054 195.226C177.037 206.688 178.552 217.965 178.552 217.965L200.813 205.281C199.886 202.114 199.118 198.96 198.467 195.861Z" fill="white"/>
</svg>
