<svg width="292" height="277" viewBox="0 0 292 277" fill="none" xmlns="http://www.w3.org/2000/svg">
<path d="M262.742 220.763H243.4V220.902H262.742V220.763Z" fill="#EBEBEB"/>
<path d="M193.433 222.27H188.358V222.409H193.433V222.27Z" fill="#EBEBEB"/>
<path d="M242.815 215.622H231.609V215.761H242.815V215.622Z" fill="#EBEBEB"/>
<path d="M55.8596 216.553H30.6366V216.692H55.8596V216.553Z" fill="#EBEBEB"/>
<path d="M64.7597 216.553H61.063V216.692H64.7597V216.553Z" fill="#EBEBEB"/>
<path d="M131.488 218.891H76.7784V219.029H131.488V218.891Z" fill="#EBEBEB"/>
<path d="M139.226 187.141H26.4552C25.5708 187.141 24.7227 186.808 24.0973 186.215C23.4719 185.621 23.1206 184.817 23.1206 183.978V33.6056C23.1283 32.7714 23.483 31.9739 24.1076 31.3867C24.7321 30.7994 25.5759 30.4699 26.4552 30.47H139.226C139.664 30.47 140.097 30.5518 140.502 30.7108C140.906 30.8697 141.274 31.1027 141.584 31.3965C141.893 31.6902 142.139 32.039 142.306 32.4228C142.474 32.8065 142.56 33.2179 142.56 33.6333V183.978C142.56 184.393 142.474 184.805 142.306 185.188C142.139 185.572 141.893 185.921 141.584 186.215C141.274 186.508 140.906 186.741 140.502 186.9C140.097 187.059 139.664 187.141 139.226 187.141ZM26.4552 30.5808C25.61 30.5822 24.7999 30.9014 24.2022 31.4683C23.6046 32.0353 23.2681 32.8038 23.2666 33.6056V183.978C23.2681 184.78 23.6046 185.548 24.2022 186.115C24.7999 186.682 25.61 187.001 26.4552 187.003H139.226C140.071 187.001 140.881 186.682 141.479 186.115C142.076 185.548 142.413 184.78 142.414 183.978V33.6056C142.413 32.8038 142.076 32.0353 141.479 31.4683C140.881 30.9014 140.071 30.5822 139.226 30.5808H26.4552Z" fill="#EBEBEB"/>
<path d="M265.545 187.141H152.774C151.89 187.141 151.042 186.808 150.416 186.215C149.791 185.621 149.44 184.817 149.44 183.978V33.6056C149.447 32.7714 149.802 31.9739 150.427 31.3867C151.051 30.7994 151.895 30.4699 152.774 30.47H265.545C266.429 30.47 267.277 30.8033 267.903 31.3965C268.528 31.9897 268.879 32.7943 268.879 33.6333V183.978C268.879 184.817 268.528 185.621 267.903 186.215C267.277 186.808 266.429 187.141 265.545 187.141ZM152.774 30.5808C151.929 30.5822 151.119 30.9014 150.521 31.4683C149.924 32.0353 149.587 32.8038 149.586 33.6056V183.978C149.587 184.78 149.924 185.548 150.521 186.115C151.119 186.682 151.929 187.001 152.774 187.003H265.545C266.39 187.001 267.2 186.682 267.798 186.115C268.395 185.548 268.732 184.78 268.733 183.978V33.6056C268.732 32.8038 268.395 32.0353 267.798 31.4683C267.2 30.9014 266.39 30.5822 265.545 30.5808H152.774Z" fill="#EBEBEB"/>
<path d="M292 211.85H0V211.988H292V211.85Z" fill="#EBEBEB"/>
<path d="M219 208.01L202.601 204.753V124.229H197.345V204.753L180.947 208.01C180.017 208.196 179.182 208.679 178.584 209.379C177.985 210.079 177.658 210.954 177.659 211.855H222.265C222.266 210.957 221.943 210.085 221.349 209.385C220.755 208.686 219.926 208.2 219 208.01Z" fill="#E0E0E0"/>
<path d="M199.588 76.0919H208.932C213.105 76.0919 217.106 77.6643 220.057 80.4633C223.007 83.2622 224.665 87.0584 224.665 91.0167V111.476C224.665 113.436 224.258 115.377 223.467 117.187C222.677 118.998 221.518 120.643 220.057 122.029C218.596 123.415 216.861 124.515 214.953 125.265C213.044 126.015 210.998 126.401 208.932 126.401H199.588V76.0975V76.0919Z" fill="#E6E6E6"/>
<path d="M208.961 120.323H199.588V126.417H208.961C213.133 126.416 217.133 124.843 220.082 122.044C223.031 119.245 224.688 115.45 224.688 111.492V105.398C224.688 109.356 223.031 113.151 220.082 115.95C217.133 118.749 213.133 120.322 208.961 120.323Z" fill="#E0E0E0"/>
<path d="M200.697 76.0919H186.629C181.797 76.0919 177.881 79.8075 177.881 84.3908V118.096C177.881 122.68 181.797 126.395 186.629 126.395H200.697C205.529 126.395 209.446 122.68 209.446 118.096V84.3908C209.446 79.8075 205.529 76.0919 200.697 76.0919Z" fill="#F0F0F0"/>
<path d="M193.666 98.9555C199.443 98.9555 204.126 94.5132 204.126 89.0333C204.126 83.5535 199.443 79.1112 193.666 79.1112C187.89 79.1112 183.207 83.5535 183.207 89.0333C183.207 94.5132 187.89 98.9555 193.666 98.9555Z" fill="#E0E0E0"/>
<path d="M193.666 122.689C199.443 122.689 204.126 118.246 204.126 112.767C204.126 107.287 199.443 102.844 193.666 102.844C187.89 102.844 183.207 107.287 183.207 112.767C183.207 118.246 187.89 122.689 193.666 122.689Z" fill="#E0E0E0"/>
<path d="M193.666 97.3045C198.482 97.3045 202.385 93.6014 202.385 89.0333C202.385 84.4652 198.482 80.7621 193.666 80.7621C188.851 80.7621 184.947 84.4652 184.947 89.0333C184.947 93.6014 188.851 97.3045 193.666 97.3045Z" fill="#EBEBEB"/>
<path d="M197.153 89.0334C197.153 89.6908 196.947 90.3334 196.562 90.8801C196.177 91.4267 195.63 91.8527 194.989 92.1043C194.349 92.3559 193.645 92.4217 192.965 92.2935C192.285 92.1652 191.661 91.8486 191.171 91.3838C190.681 90.9189 190.347 90.3266 190.212 89.6818C190.077 89.037 190.146 88.3687 190.411 87.7613C190.676 87.1539 191.126 86.6348 191.702 86.2695C192.278 85.9043 192.956 85.7094 193.649 85.7094C194.578 85.7094 195.469 86.0596 196.126 86.6829C196.783 87.3063 197.153 88.1518 197.153 89.0334Z" fill="#E0E0E0"/>
<path d="M193.666 121.038C198.482 121.038 202.385 117.335 202.385 112.767C202.385 108.199 198.482 104.495 193.666 104.495C188.851 104.495 184.947 108.199 184.947 112.767C184.947 117.335 188.851 121.038 193.666 121.038Z" fill="#EBEBEB"/>
<path d="M197.153 112.767C197.153 113.424 196.947 114.067 196.562 114.613C196.177 115.16 195.63 115.586 194.989 115.838C194.349 116.089 193.645 116.155 192.965 116.027C192.285 115.898 191.661 115.582 191.171 115.117C190.681 114.652 190.347 114.06 190.212 113.415C190.077 112.77 190.146 112.102 190.411 111.495C190.676 110.887 191.126 110.368 191.702 110.003C192.278 109.638 192.956 109.443 193.649 109.443C194.578 109.443 195.469 109.793 196.126 110.416C196.783 111.04 197.153 111.885 197.153 112.767Z" fill="#E0E0E0"/>
<path d="M251.447 45.7327H40.1675C39.9545 45.7334 39.7436 45.6942 39.5466 45.6175C39.3497 45.5407 39.1707 45.4277 39.0198 45.2852C38.869 45.1426 38.7493 44.9732 38.6677 44.7866C38.586 44.6001 38.544 44.4001 38.544 44.1981C38.5432 43.9956 38.5847 43.795 38.666 43.6078C38.7473 43.4207 38.8668 43.2506 39.0178 43.1074C39.1687 42.9643 39.3479 42.8509 39.5453 42.7737C39.7426 42.6966 39.9541 42.6572 40.1675 42.658H251.447C251.66 42.6572 251.872 42.6966 252.069 42.7737C252.267 42.8509 252.446 42.9643 252.597 43.1074C252.748 43.2506 252.867 43.4207 252.949 43.6078C253.03 43.795 253.071 43.9956 253.071 44.1981C253.071 44.4001 253.028 44.6001 252.947 44.7866C252.865 44.9732 252.745 45.1426 252.595 45.2852C252.444 45.4277 252.265 45.5407 252.068 45.6175C251.871 45.6942 251.66 45.7334 251.447 45.7327Z" fill="#E6E6E6"/>
<path d="M75.4352 64.3194C74.9065 64.8211 74.2787 65.2191 73.5878 65.4906C72.8969 65.7621 72.1564 65.9019 71.4085 65.9019C70.6607 65.9019 69.9202 65.7621 69.2293 65.4906C68.5384 65.2191 67.9106 64.8211 67.3819 64.3194L65.2736 62.3195C64.2073 61.3067 63.6084 59.9338 63.6084 58.5024C63.6084 57.071 64.2073 55.6981 65.2736 54.6854C65.8024 54.1837 66.4301 53.7857 67.121 53.5142C67.8119 53.2427 68.5525 53.1029 69.3003 53.1029C70.0482 53.1029 70.7887 53.2427 71.4796 53.5142C72.1705 53.7857 72.7982 54.1837 73.327 54.6854L75.4352 56.6798C75.9641 57.1813 76.3836 57.7769 76.6698 58.4323C76.9561 59.0877 77.1034 59.7902 77.1034 60.4996C77.1034 61.209 76.9561 61.9115 76.6698 62.5669C76.3836 63.2223 75.9641 63.8178 75.4352 64.3194Z" fill="#E0E0E0"/>
<path d="M69.5836 62.1532C69.3107 62.4069 69.0936 62.7094 68.9447 63.0432C68.7958 63.377 68.7182 63.7355 68.7162 64.0979C68.7143 64.4604 68.7881 64.8196 68.9335 65.1548C69.0788 65.49 69.2927 65.7946 69.5629 66.0509C69.8331 66.3072 70.1541 66.5101 70.5075 66.648C70.8608 66.7858 71.2395 66.8559 71.6216 66.854C72.0037 66.8522 72.3816 66.7785 72.7334 66.6373C73.0853 66.4961 73.4042 66.2901 73.6716 66.0312L77.2457 62.6407C77.5186 62.387 77.7358 62.0845 77.8847 61.7507C78.0335 61.4169 78.1112 61.0584 78.1131 60.696C78.1151 60.3335 78.0412 59.9743 77.8959 59.6391C77.7506 59.3039 77.5366 58.9993 77.2665 58.743C76.9963 58.4867 76.6752 58.2838 76.3219 58.1459C75.9685 58.0081 75.5898 57.938 75.2078 57.9399C74.8257 57.9417 74.4478 58.0153 74.0959 58.1566C73.744 58.2978 73.4251 58.5038 73.1577 58.7627L69.5836 62.1532Z" fill="#F5F5F5"/>
<path d="M70.0275 55.4C70.0275 55.9965 69.7777 56.5686 69.333 56.9904C68.8884 57.4122 68.2853 57.6492 67.6564 57.6492C67.0276 57.6492 66.4245 57.4122 65.9799 56.9904C65.5352 56.5686 65.2854 55.9965 65.2854 55.4V45.3448H70.0275V55.4Z" fill="#F0F0F0"/>
<path d="M68.9588 55.4C68.9588 55.6443 68.8824 55.8832 68.7393 56.0863C68.5962 56.2895 68.3928 56.4478 68.1548 56.5414C67.9169 56.6349 67.655 56.6593 67.4024 56.6117C67.1498 56.564 66.9177 56.4463 66.7356 56.2735C66.5534 56.1008 66.4294 55.8806 66.3792 55.641C66.3289 55.4013 66.3547 55.1529 66.4533 54.9272C66.5518 54.7015 66.7187 54.5085 66.9329 54.3728C67.1471 54.237 67.3989 54.1646 67.6564 54.1646C67.8275 54.1646 67.9968 54.1965 68.1548 54.2586C68.3128 54.3207 68.4564 54.4117 68.5773 54.5264C68.6983 54.6411 68.7942 54.7773 68.8596 54.9272C68.9251 55.0771 68.9588 55.2377 68.9588 55.4Z" fill="#E0E0E0"/>
<path d="M127.224 64.3194C126.696 64.8211 126.068 65.2191 125.377 65.4906C124.686 65.7621 123.946 65.9019 123.198 65.9019C122.45 65.9019 121.709 65.7621 121.018 65.4906C120.328 65.2191 119.7 64.8211 119.171 64.3194L117.063 62.3195C115.997 61.3067 115.398 59.9338 115.398 58.5024C115.398 57.071 115.997 55.6981 117.063 54.6854C117.592 54.1837 118.219 53.7857 118.91 53.5142C119.601 53.2427 120.342 53.1029 121.089 53.1029C121.837 53.1029 122.578 53.2427 123.269 53.5142C123.96 53.7857 124.587 54.1837 125.116 54.6854L127.224 56.6798C127.753 57.1813 128.173 57.7769 128.459 58.4323C128.745 59.0877 128.893 59.7902 128.893 60.4996C128.893 61.209 128.745 61.9115 128.459 62.5669C128.173 63.2223 127.753 63.8178 127.224 64.3194Z" fill="#E0E0E0"/>
<path d="M121.373 62.1532C121.1 62.4069 120.883 62.7094 120.734 63.0432C120.585 63.377 120.507 63.7355 120.505 64.0979C120.503 64.4604 120.577 64.8196 120.723 65.1548C120.868 65.49 121.082 65.7946 121.352 66.0509C121.622 66.3072 121.943 66.5101 122.297 66.648C122.65 66.7858 123.029 66.8559 123.411 66.854C123.793 66.8522 124.171 66.7785 124.523 66.6373C124.874 66.4961 125.193 66.2901 125.461 66.0312L129.035 62.6407C129.308 62.387 129.525 62.0845 129.674 61.7507C129.823 61.4169 129.9 61.0584 129.902 60.696C129.904 60.3335 129.83 59.9743 129.685 59.6391C129.54 59.3039 129.326 58.9993 129.056 58.743C128.785 58.4867 128.464 58.2838 128.111 58.1459C127.758 58.0081 127.379 57.938 126.997 57.9399C126.615 57.9417 126.237 58.0153 125.885 58.1566C125.533 58.2978 125.214 58.5038 124.947 58.7627L121.373 62.1532Z" fill="#F5F5F5"/>
<path d="M121.817 55.4C121.817 55.9965 121.567 56.5686 121.122 56.9904C120.677 57.4122 120.074 57.6492 119.446 57.6492C118.817 57.6492 118.214 57.4122 117.769 56.9904C117.324 56.5686 117.074 55.9965 117.074 55.4V45.3448H121.817V55.4Z" fill="#F0F0F0"/>
<path d="M120.748 55.4C120.748 55.6443 120.671 55.8832 120.528 56.0863C120.385 56.2895 120.182 56.4478 119.944 56.5414C119.706 56.6349 119.444 56.6593 119.191 56.6117C118.939 56.564 118.707 56.4463 118.525 56.2735C118.342 56.1008 118.218 55.8806 118.168 55.641C118.118 55.4013 118.144 55.1529 118.242 54.9272C118.341 54.7015 118.508 54.5085 118.722 54.3728C118.936 54.237 119.188 54.1646 119.446 54.1646C119.791 54.1646 120.122 54.2947 120.366 54.5264C120.611 54.7581 120.748 55.0723 120.748 55.4Z" fill="#E0E0E0"/>
<path d="M221.4 64.3193C221.929 64.821 222.557 65.219 223.248 65.4905C223.939 65.762 224.679 65.9018 225.427 65.9018C226.175 65.9018 226.915 65.762 227.606 65.4905C228.297 65.219 228.925 64.821 229.454 64.3193L231.556 62.3194C232.085 61.8183 232.504 61.2232 232.79 60.5683C233.076 59.9133 233.224 59.2113 233.224 58.5023C233.224 57.7933 233.076 57.0913 232.79 56.4364C232.504 55.7814 232.085 55.1864 231.556 54.6853C231.028 54.1837 230.4 53.7859 229.71 53.5144C229.02 53.243 228.28 53.1033 227.532 53.1033C226.785 53.1033 226.045 53.243 225.354 53.5144C224.664 53.7859 224.037 54.1837 223.508 54.6853L221.4 56.6797C220.871 57.1812 220.452 57.7767 220.166 58.4322C219.879 59.0876 219.732 59.7901 219.732 60.4995C219.732 61.2089 219.879 61.9114 220.166 62.5668C220.452 63.2222 220.871 63.8177 221.4 64.3193Z" fill="#E0E0E0"/>
<path d="M227.252 62.1533C227.525 62.407 227.742 62.7095 227.891 63.0433C228.04 63.3771 228.117 63.7356 228.119 64.098C228.121 64.4605 228.047 64.8197 227.902 65.1549C227.757 65.4901 227.543 65.7947 227.273 66.051C227.002 66.3072 226.681 66.5102 226.328 66.6481C225.975 66.7859 225.596 66.856 225.214 66.8541C224.832 66.8523 224.454 66.7786 224.102 66.6374C223.75 66.4962 223.431 66.2901 223.164 66.0313L219.613 62.602C219.34 62.3483 219.123 62.0458 218.974 61.712C218.825 61.3782 218.748 61.0197 218.746 60.6573C218.744 60.2948 218.818 59.9356 218.963 59.6004C219.108 59.2652 219.322 58.9606 219.592 58.7043C219.863 58.448 220.184 58.2451 220.537 58.1072C220.89 57.9694 221.269 57.8993 221.651 57.9012C222.033 57.903 222.411 57.9767 222.763 58.1179C223.115 58.2591 223.434 58.4651 223.701 58.724L227.252 62.1533Z" fill="#F5F5F5"/>
<path d="M226.808 55.4C226.808 55.9965 227.058 56.5686 227.503 56.9904C227.947 57.4122 228.55 57.6492 229.179 57.6492C229.808 57.6492 230.411 57.4122 230.856 56.9904C231.3 56.5686 231.55 55.9965 231.55 55.4V45.3448H226.808V55.4Z" fill="#F0F0F0"/>
<path d="M227.877 55.4C227.877 55.6443 227.953 55.8832 228.096 56.0863C228.239 56.2895 228.443 56.4478 228.681 56.5414C228.919 56.6349 229.181 56.6593 229.433 56.6117C229.686 56.564 229.918 56.4463 230.1 56.2735C230.282 56.1008 230.406 55.8806 230.456 55.641C230.507 55.4013 230.481 55.1529 230.382 54.9272C230.284 54.7015 230.117 54.5085 229.903 54.3728C229.689 54.237 229.437 54.1646 229.179 54.1646C229.008 54.1646 228.839 54.1965 228.681 54.2586C228.523 54.3207 228.379 54.4117 228.258 54.5264C228.137 54.6411 228.041 54.7773 227.976 54.9272C227.911 55.0771 227.877 55.2377 227.877 55.4Z" fill="#E0E0E0"/>
<path d="M169.611 64.3193C170.14 64.821 170.768 65.219 171.459 65.4905C172.149 65.762 172.89 65.9018 173.638 65.9018C174.386 65.9018 175.126 65.762 175.817 65.4905C176.508 65.219 177.136 64.821 177.665 64.3193L179.767 62.3194C180.296 61.8183 180.715 61.2232 181.001 60.5683C181.287 59.9133 181.435 59.2113 181.435 58.5023C181.435 57.7933 181.287 57.0913 181.001 56.4364C180.715 55.7814 180.296 55.1864 179.767 54.6853C179.239 54.1837 178.611 53.7859 177.921 53.5144C177.231 53.243 176.491 53.1033 175.743 53.1033C174.996 53.1033 174.256 53.243 173.565 53.5144C172.875 53.7859 172.248 54.1837 171.719 54.6853L169.611 56.6797C169.082 57.1812 168.663 57.7767 168.377 58.4322C168.09 59.0876 167.943 59.7901 167.943 60.4995C167.943 61.2089 168.09 61.9114 168.377 62.5668C168.663 63.2222 169.082 63.8177 169.611 64.3193Z" fill="#E0E0E0"/>
<path d="M175.463 62.1533C175.736 62.407 175.953 62.7095 176.102 63.0433C176.251 63.3771 176.328 63.7356 176.33 64.098C176.332 64.4605 176.258 64.8197 176.113 65.1549C175.968 65.4901 175.754 65.7947 175.484 66.051C175.213 66.3072 174.892 66.5102 174.539 66.6481C174.186 66.7859 173.807 66.856 173.425 66.8541C173.043 66.8523 172.665 66.7786 172.313 66.6374C171.961 66.4962 171.642 66.2901 171.375 66.0313L167.824 62.602C167.551 62.3483 167.334 62.0458 167.185 61.712C167.036 61.3782 166.959 61.0197 166.957 60.6573C166.955 60.2948 167.029 59.9356 167.174 59.6004C167.319 59.2652 167.533 58.9606 167.803 58.7043C168.074 58.448 168.395 58.2451 168.748 58.1072C169.101 57.9694 169.48 57.8993 169.862 57.9012C170.244 57.903 170.622 57.9767 170.974 58.1179C171.326 58.2591 171.645 58.4651 171.912 58.724L175.463 62.1533Z" fill="#F5F5F5"/>
<path d="M175.019 55.4C175.019 55.9965 175.269 56.5686 175.713 56.9904C176.158 57.4122 176.761 57.6492 177.39 57.6492C178.019 57.6492 178.622 57.4122 179.067 56.9904C179.511 56.5686 179.761 55.9965 179.761 55.4V45.3448H175.019V55.4Z" fill="#F0F0F0"/>
<path d="M176.088 55.4C176.088 55.6443 176.164 55.8832 176.307 56.0863C176.45 56.2895 176.654 56.4478 176.892 56.5414C177.13 56.6349 177.391 56.6593 177.644 56.6117C177.897 56.564 178.129 56.4463 178.311 56.2735C178.493 56.1008 178.617 55.8806 178.667 55.641C178.718 55.4013 178.692 55.1529 178.593 54.9272C178.495 54.7015 178.328 54.5085 178.114 54.3728C177.899 54.237 177.648 54.1646 177.39 54.1646C177.045 54.1646 176.713 54.2947 176.469 54.5264C176.225 54.7581 176.088 55.0723 176.088 55.4Z" fill="#E0E0E0"/>
<path d="M146.473 236.564C216.405 236.564 273.096 233.756 273.096 230.292C273.096 226.829 216.405 224.021 146.473 224.021C76.5412 224.021 19.8502 226.829 19.8502 230.292C19.8502 233.756 76.5412 236.564 146.473 236.564Z" fill="#F5F5F5"/>
<path opacity="0.3" d="M248.463 166.355C255.932 166.355 261.252 171.635 260.861 178.671L260.003 194.05C259.94 195.187 259.422 196.259 258.553 197.046C257.684 197.833 256.532 198.275 255.331 198.282H225.313L231.515 178.671C233.705 171.635 240.988 166.355 248.463 166.355Z" fill="white"/>
<path d="M94.7132 223.799H25.626V230.176H94.7132V223.799Z" fill="#BA68C8"/>
<path opacity="0.3" d="M94.7132 223.799H25.626V230.176H94.7132V223.799Z" fill="white"/>
<path d="M200.896 223.799H88.8849V230.176H200.896V223.799Z" fill="#BA68C8"/>
<path opacity="0.7" d="M200.896 223.799H88.8849V230.176H200.896V223.799Z" fill="white"/>
<path d="M50.9014 223.661C50.7474 223.648 50.6049 223.578 50.5053 223.466C50.4057 223.354 50.357 223.209 50.37 223.063L62.1201 89.5098H63.2881V90.6178H63.1946L51.5146 223.157C51.5012 223.3 51.4298 223.432 51.3154 223.526C51.201 223.62 51.0526 223.669 50.9014 223.661Z" fill="#263238"/>
<path d="M103.117 223.661C103.194 223.655 103.268 223.635 103.337 223.602C103.406 223.569 103.467 223.523 103.517 223.468C103.567 223.412 103.604 223.348 103.628 223.278C103.652 223.209 103.66 223.135 103.654 223.063L91.904 89.5098H90.736V90.6178H90.8353L98.3455 176.022H60.5432L52.9512 89.5098H51.7832V90.6178H51.8766L63.5566 223.157C63.57 223.303 63.6439 223.438 63.7622 223.532C63.8804 223.627 64.0333 223.673 64.1874 223.661C64.3414 223.648 64.4838 223.578 64.5835 223.466C64.6831 223.354 64.7318 223.209 64.7188 223.063L60.6775 177.13H98.4798L102.527 223.157C102.54 223.296 102.608 223.425 102.718 223.518C102.827 223.612 102.97 223.663 103.117 223.661Z" fill="#263238"/>
<path d="M105.821 158.383H49.9961L42.9473 78.2635H98.7718L105.821 158.383Z" fill="#BA68C8"/>
<path opacity="0.8" d="M105.821 158.383H49.9961L42.9473 78.2635H98.7718L105.821 158.383Z" fill="white"/>
<path d="M98.7251 80.1471H42.8597C42.3687 80.1471 41.8978 79.9621 41.5506 79.6328C41.2035 79.3034 41.0084 78.8567 41.0084 78.3909C41.0084 77.9252 41.2035 77.4785 41.5506 77.1491C41.8978 76.8198 42.3687 76.6348 42.8597 76.6348H98.7251C99.2161 76.6348 99.687 76.8198 100.034 77.1491C100.381 77.4785 100.576 77.9252 100.576 78.3909C100.576 78.8567 100.381 79.3034 100.034 79.6328C99.687 79.9621 99.2161 80.1471 98.7251 80.1471Z" fill="#BA68C8"/>
<path opacity="0.5" d="M98.7251 80.1471H42.8597C42.3687 80.1471 41.8978 79.9621 41.5506 79.6328C41.2035 79.3034 41.0084 78.8567 41.0084 78.3909C41.0084 77.9252 41.2035 77.4785 41.5506 77.1491C41.8978 76.8198 42.3687 76.6348 42.8597 76.6348H98.7251C99.2161 76.6348 99.687 76.8198 100.034 77.1491C100.381 77.4785 100.576 77.9252 100.576 78.3909C100.576 78.8567 100.381 79.3034 100.034 79.6328C99.687 79.9621 99.2161 80.1471 98.7251 80.1471Z" fill="white"/>
<path d="M75.7506 128.207L74.9213 118.827C74.9149 118.755 74.9238 118.681 74.9474 118.612C74.971 118.542 75.0088 118.478 75.0588 118.422C75.1087 118.367 75.1697 118.321 75.2383 118.288C75.307 118.255 75.3818 118.235 75.4586 118.229C75.6127 118.217 75.7656 118.263 75.8838 118.358C76.002 118.452 76.076 118.587 76.0893 118.733L76.9128 128.112C76.9257 128.259 76.877 128.404 76.7774 128.516C76.6778 128.628 76.5354 128.698 76.3813 128.711C76.2273 128.723 76.0744 128.677 75.9561 128.582C75.8379 128.488 75.764 128.353 75.7506 128.207Z" fill="#BA68C8"/>
<path d="M66.3891 119.055C59.1299 119.055 52.706 113.448 52.0694 106.562C51.8868 104.972 52.063 103.364 52.5862 101.844C53.1094 100.324 53.9677 98.9266 55.104 97.7455C56.2403 96.5643 57.6286 95.6261 59.1766 94.9932C60.7246 94.3603 62.3969 94.0472 64.0823 94.0747C67.6645 94.1391 71.0982 95.4445 73.7359 97.7447C76.3737 100.045 78.0333 103.181 78.4019 106.562C78.5835 108.152 78.4066 109.76 77.8831 111.28C77.3596 112.8 76.5013 114.197 75.3653 115.378C74.2293 116.559 72.8415 117.498 71.294 118.132C69.7464 118.766 68.0745 119.08 66.3891 119.055ZM64.1348 94.6287C62.5244 94.6033 60.9267 94.9031 59.4477 95.5082C57.9688 96.1133 56.6424 97.0099 55.5566 98.1384C54.4708 99.2669 53.6504 100.602 53.1499 102.054C52.6493 103.506 52.4801 105.043 52.6534 106.562C53.0025 109.794 54.5871 112.793 57.1081 114.993C59.6291 117.193 62.9119 118.44 66.3365 118.501C67.9475 118.526 69.5457 118.226 71.0251 117.621C72.5045 117.015 73.8313 116.118 74.9172 114.989C76.003 113.86 76.8233 112.524 77.3234 111.071C77.8236 109.619 77.9921 108.081 77.8179 106.562C77.4675 103.331 75.8823 100.333 73.3614 98.1342C70.8406 95.9357 67.5585 94.6888 64.1348 94.6287Z" fill="#BA68C8"/>
<path d="M84.6799 119.055C77.4208 119.055 70.9968 113.448 70.3602 106.562C70.1786 104.972 70.3555 103.364 70.879 101.845C71.4026 100.325 72.2609 98.9283 73.397 97.7474C74.5331 96.5664 75.921 95.6282 77.4686 94.995C79.0161 94.3618 80.688 94.0481 82.3731 94.0747C85.9554 94.1391 89.389 95.4445 92.0268 97.7447C94.6645 100.045 96.3242 103.181 96.6928 106.562C96.8753 108.152 96.6991 109.76 96.1759 111.281C95.6527 112.801 94.7946 114.198 93.6584 115.38C92.5222 116.562 91.134 117.5 89.586 118.134C88.038 118.767 86.3656 119.081 84.6799 119.055ZM82.4257 94.6287C80.8152 94.6033 79.2175 94.9031 77.7386 95.5082C76.2596 96.1134 74.9332 97.0099 73.8474 98.1384C72.7616 99.267 71.9412 100.602 71.4407 102.054C70.9402 103.506 70.7709 105.043 70.9442 106.562C71.2933 109.794 72.878 112.793 75.3989 114.993C77.9199 117.193 81.2027 118.44 84.6273 118.501C86.2383 118.526 87.8366 118.226 89.316 117.621C90.7954 117.015 92.1221 116.118 93.208 114.989C94.2939 113.86 95.1141 112.524 95.6143 111.071C96.1144 109.619 96.283 108.081 96.1088 106.562C95.7585 103.331 94.1741 100.334 91.6544 98.136C89.1348 95.9377 85.8542 94.6901 82.4315 94.6287H82.4257Z" fill="#BA68C8"/>
<path d="M70.664 106.795L76.1886 101.055C76.0835 100.883 75.9667 100.712 75.8557 100.545L70.5997 106.002C70.5997 106.191 70.5997 106.379 70.6348 106.556C70.664 106.639 70.664 106.717 70.664 106.795Z" fill="#BA68C8"/>
<path d="M76.9069 102.302C76.8134 102.113 76.72 101.925 76.6149 101.748L70.8333 107.758C70.8741 107.997 70.9267 108.229 70.9851 108.456L76.9069 102.302Z" fill="#BA68C8"/>
<path d="M77.4734 103.676C77.4033 103.465 77.3274 103.26 77.2456 103.055L71.2479 109.299C71.318 109.509 71.3939 109.714 71.4698 109.919L77.4734 103.676Z" fill="#BA68C8"/>
<path d="M75.4177 99.9139L75.0381 99.4485L70.7223 103.936C70.6756 104.252 70.6464 104.567 70.6289 104.889L75.4177 99.9139Z" fill="#BA68C8"/>
<path d="M74.5241 98.8723C74.3898 98.7283 74.2496 98.5898 74.1036 98.4513L71.4873 101.177C71.2992 101.616 71.1411 102.065 71.0143 102.523L74.5241 98.8723Z" fill="#BA68C8"/>
<path d="M77.4325 111.587C77.5922 111.169 77.7267 110.744 77.8355 110.312L74.168 114.124C74.3023 114.268 74.4424 114.412 74.5826 114.55L77.4325 111.587Z" fill="#BA68C8"/>
<path d="M75.9725 114.213L75.1199 115.099L75.1783 115.154C75.4606 114.854 75.7258 114.54 75.9725 114.213Z" fill="#BA68C8"/>
<path d="M77.8997 105.199C77.853 104.966 77.7946 104.739 77.7362 104.512L71.7969 110.689C71.8864 110.878 71.9799 111.062 72.0772 111.243L77.8997 105.199Z" fill="#BA68C8"/>
<path d="M78.0807 108.944C78.1157 108.639 78.1391 108.329 78.1449 108.019L73.2627 113.094C73.3853 113.254 73.508 113.409 73.6365 113.564L78.0807 108.944Z" fill="#BA68C8"/>
<path d="M78.1333 106.922C78.1333 106.8 78.1333 106.678 78.1333 106.556L78.0807 106.135L72.4977 111.941C72.6028 112.115 72.7138 112.287 72.8306 112.456L78.1333 106.922Z" fill="#BA68C8"/>
<path d="M95.3322 133.791H58.5869C58.0662 133.781 57.5672 133.591 57.1841 133.256C56.8011 132.922 56.5605 132.465 56.5078 131.974C56.4859 131.743 56.5149 131.511 56.5931 131.292C56.6712 131.073 56.7968 130.871 56.9617 130.701C57.1267 130.53 57.3273 130.394 57.5509 130.301C57.7744 130.209 58.0159 130.161 58.2598 130.162H95.0051C95.5249 130.172 96.0232 130.361 96.4061 130.695C96.789 131.028 97.0301 131.483 97.0842 131.974C97.107 132.205 97.0786 132.438 97.0008 132.658C96.9231 132.877 96.7976 133.08 96.6326 133.251C96.4676 133.422 96.2666 133.558 96.0427 133.651C95.8187 133.744 95.5767 133.792 95.3322 133.791Z" fill="#BA68C8"/>
<path d="M91.4427 141.143H65.7934C65.2727 141.133 64.7737 140.943 64.3907 140.608C64.0077 140.273 63.7671 139.817 63.7144 139.325C63.6924 139.095 63.7215 138.863 63.7996 138.643C63.8778 138.424 64.0033 138.223 64.1683 138.052C64.3332 137.882 64.5339 137.746 64.7574 137.653C64.9809 137.56 65.2224 137.513 65.4664 137.514H91.104C91.6242 137.522 92.1231 137.711 92.5063 138.045C92.8894 138.379 93.1302 138.834 93.183 139.325C93.2058 139.555 93.1777 139.787 93.1006 140.007C93.0235 140.226 92.8992 140.427 92.7354 140.598C92.5717 140.769 92.3721 140.906 92.1495 141C91.927 141.093 91.6862 141.142 91.4427 141.143Z" fill="#BA68C8"/>
<path d="M95.3322 133.791H58.5869C58.0662 133.781 57.5672 133.591 57.1841 133.256C56.8011 132.922 56.5605 132.465 56.5078 131.974C56.4859 131.743 56.5149 131.511 56.5931 131.292C56.6712 131.073 56.7968 130.871 56.9617 130.701C57.1267 130.53 57.3273 130.394 57.5509 130.301C57.7744 130.209 58.0159 130.161 58.2598 130.162H95.0051C95.5249 130.172 96.0232 130.361 96.4061 130.695C96.789 131.028 97.0301 131.483 97.0842 131.974C97.107 132.205 97.0786 132.438 97.0008 132.658C96.9231 132.877 96.7976 133.08 96.6326 133.251C96.4676 133.422 96.2666 133.558 96.0427 133.651C95.8187 133.744 95.5767 133.792 95.3322 133.791Z" fill="#BA68C8"/>
<path d="M91.4427 141.143H65.7934C65.2727 141.133 64.7737 140.943 64.3907 140.608C64.0077 140.273 63.7671 139.817 63.7144 139.325C63.6924 139.095 63.7215 138.863 63.7996 138.643C63.8778 138.424 64.0033 138.223 64.1683 138.052C64.3332 137.882 64.5339 137.746 64.7574 137.653C64.9809 137.56 65.2224 137.513 65.4664 137.514H91.104C91.6242 137.522 92.1231 137.711 92.5063 138.045C92.8894 138.379 93.1302 138.834 93.183 139.325C93.2058 139.555 93.1777 139.787 93.1006 140.007C93.0235 140.226 92.8992 140.427 92.7354 140.598C92.5717 140.769 92.3721 140.906 92.1495 141C91.927 141.093 91.6862 141.142 91.4427 141.143Z" fill="#BA68C8"/>
<path d="M137.018 218.459L140.662 217.367L139.191 209.429L135.541 210.52L137.018 218.459Z" fill="#CE7A63"/>
<path d="M140.744 216.919L136.656 218.143C136.587 218.163 136.528 218.206 136.49 218.264C136.451 218.322 136.436 218.391 136.446 218.459L136.995 221.506C137.011 221.586 137.046 221.661 137.096 221.727C137.147 221.793 137.212 221.847 137.287 221.887C137.363 221.926 137.446 221.949 137.532 221.954C137.618 221.959 137.703 221.946 137.783 221.916C139.202 221.467 139.868 221.185 141.673 220.647C142.782 220.315 147.513 218.985 149.054 218.548C150.596 218.11 150.222 216.708 149.51 216.775C146.461 217.079 142.654 217.373 141.439 216.935C141.216 216.854 140.971 216.848 140.744 216.919Z" fill="#263238"/>
<path opacity="0.2" d="M135.541 210.52L139.191 209.429L139.95 213.523L136.3 214.614L135.541 210.52Z" fill="black"/>
<path d="M134.32 130.19C134.32 130.19 136.703 158.998 137.269 169.048C137.888 180.056 141.357 212.26 141.357 212.26L134.612 213.988C134.612 213.988 128.077 182.798 126.401 172.1C124.579 160.466 120.999 130.212 120.999 130.212L134.32 130.19Z" fill="#263238"/>
<path d="M134.402 214.06L141.626 212.215L141.743 209.49L133.561 212.099L134.402 214.06Z" fill="#263238"/>
<path d="M142.198 217.118C141.871 217.208 141.534 217.266 141.194 217.29C141.178 217.29 141.162 217.286 141.149 217.278C141.135 217.271 141.125 217.259 141.118 217.246C141.108 217.233 141.103 217.217 141.103 217.201C141.103 217.185 141.108 217.17 141.118 217.157C141.217 217.046 142.087 216.088 142.572 216.115C142.626 216.117 142.679 216.133 142.725 216.161C142.77 216.189 142.806 216.229 142.829 216.276C142.872 216.346 142.895 216.425 142.895 216.506C142.895 216.587 142.872 216.666 142.829 216.736C142.672 216.929 142.449 217.064 142.198 217.118ZM141.404 217.118C142.087 217.041 142.572 216.88 142.695 216.669C142.722 216.624 142.736 216.572 142.736 216.52C142.736 216.467 142.722 216.416 142.695 216.37C142.684 216.348 142.667 216.329 142.645 216.315C142.623 216.301 142.598 216.294 142.572 216.293C142.297 216.265 141.76 216.73 141.404 217.107V217.118Z" fill="#BA68C8"/>
<path d="M141.217 217.284H141.176C141.162 217.281 141.149 217.275 141.138 217.266C141.127 217.257 141.118 217.247 141.112 217.234C141.112 217.19 140.773 216.248 141.059 215.811C141.097 215.755 141.147 215.707 141.205 215.669C141.263 215.632 141.329 215.607 141.398 215.595C141.467 215.573 141.541 215.576 141.608 215.602C141.674 215.629 141.729 215.677 141.76 215.739C141.941 216.082 141.568 216.946 141.258 217.257L141.217 217.284ZM141.375 215.772C141.305 215.792 141.245 215.835 141.205 215.894C141.087 216.267 141.097 216.667 141.235 217.035C141.511 216.69 141.642 216.259 141.603 215.827C141.603 215.783 141.544 215.739 141.416 215.761L141.375 215.772Z" fill="#BA68C8"/>
<path opacity="0.6" d="M125.928 139.098C124.538 133.957 123.119 135.187 122.109 137.436C122.214 139.015 122.325 140.677 122.447 142.422C123.277 149.176 124.328 157.536 125.245 164.294C126.962 157.524 127.896 146.256 125.928 139.098Z" fill="black"/>
<path d="M109.518 220.005H113.249L114.487 211.811H110.762L109.518 220.005Z" fill="#CE7A63"/>
<path d="M113.483 219.595H109.29C109.218 219.595 109.148 219.62 109.094 219.665C109.039 219.709 109.003 219.771 108.992 219.838L108.501 222.985C108.491 223.064 108.498 223.143 108.522 223.219C108.546 223.295 108.588 223.365 108.643 223.424C108.698 223.484 108.767 223.531 108.843 223.563C108.919 223.595 109.002 223.612 109.085 223.611C110.545 223.611 111.246 223.506 113.092 223.506C114.225 223.506 119.037 223.622 120.602 223.622C122.167 223.622 122.26 222.154 121.606 222.016C118.686 221.423 115.077 220.597 114.096 219.8C113.922 219.667 113.706 219.594 113.483 219.595Z" fill="#263238"/>
<path opacity="0.2" d="M110.756 211.811H114.487L113.851 216.038H110.119L110.756 211.811Z" fill="black"/>
<path d="M127.616 129.979C127.616 129.979 125.478 157.026 123.937 167.158C122.255 178.238 115.544 215.018 115.544 215.018H108.712C108.712 215.018 112.216 179.153 112.8 168.167C113.454 156.245 114.715 129.979 114.715 129.979H127.616Z" fill="#263238"/>
<path d="M108.437 215.019H115.819L116.456 212.559L108.268 212.941L108.437 215.019Z" fill="#263238"/>
<path d="M114.75 220.215C114.419 220.208 114.09 220.165 113.769 220.088C113.752 220.084 113.737 220.076 113.726 220.064C113.714 220.052 113.707 220.037 113.705 220.021C113.705 220.005 113.71 219.989 113.718 219.974C113.726 219.96 113.738 219.948 113.752 219.938C113.874 219.86 114.995 219.174 115.433 219.345C115.484 219.363 115.528 219.395 115.56 219.436C115.592 219.478 115.611 219.527 115.615 219.578C115.632 219.658 115.628 219.742 115.602 219.82C115.577 219.899 115.531 219.97 115.469 220.027C115.26 220.167 115.006 220.234 114.75 220.215ZM114.014 219.966C114.453 220.112 114.934 220.092 115.358 219.91C115.397 219.872 115.425 219.825 115.44 219.774C115.456 219.723 115.457 219.669 115.445 219.617C115.444 219.591 115.436 219.567 115.42 219.546C115.405 219.525 115.383 219.509 115.358 219.5C115.124 219.384 114.464 219.705 114.014 219.966Z" fill="#BA68C8"/>
<path d="M113.787 220.088H113.746C113.734 220.08 113.724 220.071 113.717 220.059C113.71 220.048 113.705 220.034 113.705 220.021C113.705 219.977 113.705 218.957 114.125 218.614C114.175 218.569 114.235 218.535 114.301 218.515C114.367 218.495 114.437 218.489 114.505 218.498C114.577 218.5 114.646 218.526 114.699 218.571C114.753 218.617 114.787 218.679 114.797 218.747C114.844 219.135 114.213 219.855 113.833 220.082C113.819 220.089 113.802 220.09 113.787 220.088ZM114.429 218.653C114.358 218.654 114.289 218.68 114.236 218.725C114.005 219.052 113.883 219.438 113.886 219.833C114.236 219.572 114.657 219.013 114.622 218.758C114.622 218.714 114.593 218.653 114.47 218.642L114.429 218.653Z" fill="#BA68C8"/>
<path d="M135.862 101.188C136.773 103.188 137.807 105.271 138.899 107.199C139.442 108.174 140.026 109.11 140.651 109.969C141.178 110.777 141.808 111.521 142.525 112.185C142.648 112.294 142.779 112.394 142.917 112.484C143.022 112.556 143.092 112.584 143.092 112.589C143.092 112.595 143.022 112.617 143.092 112.623C143.184 112.626 143.276 112.609 143.36 112.573C143.733 112.428 144.079 112.226 144.382 111.974C144.795 111.667 145.185 111.334 145.55 110.977C147.107 109.34 148.527 107.589 149.796 105.742L152.132 106.784C151.333 109.144 150.181 111.383 148.71 113.432C148.304 113.983 147.855 114.506 147.367 114.994C146.794 115.566 146.137 116.057 145.416 116.451C144.961 116.704 144.469 116.891 143.956 117.005C143.347 117.124 142.719 117.124 142.111 117.005C141.139 116.802 140.231 116.386 139.459 115.792C138.328 114.916 137.328 113.898 136.487 112.767C135.712 111.756 134.996 110.705 134.343 109.62C133.707 108.551 133.105 107.482 132.562 106.39C132.019 105.299 131.494 104.23 131.009 103.066L135.862 101.188Z" fill="#CE7A63"/>
<path d="M142.035 109.692L136.142 113.864C136.142 113.864 135.914 113.631 135.558 113.221C135.284 112.916 134.933 112.517 134.525 112.052C132.235 109.404 128.889 104.573 128.86 102.208C128.819 98.6786 132.679 98.1578 137.036 101.764C138.904 103.321 139.886 105.908 140.832 107.509C141.147 108.036 141.416 108.501 141.62 108.861C141.871 109.365 142.035 109.692 142.035 109.692Z" fill="#BA68C8"/>
<path opacity="0.6" d="M142.035 109.692L136.142 113.864C136.142 113.864 135.914 113.631 135.558 113.221C135.284 112.916 134.933 112.517 134.525 112.052C132.235 109.404 128.889 104.573 128.86 102.208C128.819 98.6786 132.679 98.1578 137.036 101.764C138.904 103.321 139.886 105.908 140.832 107.509C141.147 108.036 141.416 108.501 141.62 108.861C141.871 109.365 142.035 109.692 142.035 109.692Z" fill="white"/>
<path opacity="0.3" d="M128.801 102.595C130.133 101.759 131.108 103.925 133.742 105.748C134.91 106.562 137.485 111.875 137.275 113.044L136.136 113.847C136.136 113.847 128.772 106.113 128.801 102.595Z" fill="black"/>
<path d="M149.463 105.886L150.748 102.008L154.077 104.329C154.077 104.329 152.26 107.797 151.028 107.482L149.463 105.886Z" fill="#CE7A63"/>
<path d="M142.035 109.133L135.593 113.703L136.393 114.501L142.525 110.207L142.035 109.133Z" fill="#BA68C8"/>
<path opacity="0.8" d="M142.035 109.133L135.593 113.703L136.393 114.501L142.525 110.207L142.035 109.133Z" fill="white"/>
<path d="M134.676 130.19H114.721C114.581 128.528 114.99 122.988 114.686 115.997C114.494 110.805 113.829 105.639 112.7 100.557C112.613 100.174 112.519 99.7976 112.426 99.4153C112.426 99.4153 113.436 99.2214 114.885 99.022C116.088 98.8558 117.6 98.6785 119.078 98.612C121.902 98.4623 124.733 98.4623 127.557 98.612C128.86 98.7284 130.133 98.9333 131.149 99.1217C132.451 99.371 133.216 99.5815 133.216 99.5815C133.216 99.5815 138.134 110.246 134.676 130.19Z" fill="#BA68C8"/>
<path opacity="0.6" d="M134.676 130.19H114.721C114.581 128.528 114.99 122.988 114.686 115.997C114.494 110.805 113.829 105.639 112.7 100.557C112.613 100.174 112.519 99.7976 112.426 99.4153C112.426 99.4153 113.436 99.2214 114.885 99.022C116.088 98.8558 117.6 98.6785 119.078 98.612C121.902 98.4623 124.733 98.4623 127.557 98.612C128.86 98.7284 130.133 98.9333 131.149 99.1217C132.451 99.371 133.216 99.5815 133.216 99.5815C133.216 99.5815 138.134 110.246 134.676 130.19Z" fill="white"/>
<path d="M154.258 100.501L156.132 102.684L154.077 104.307L150.748 101.991L154.258 100.501Z" fill="#CE7A63"/>
<path d="M115.393 103.083C115.194 104.285 114.937 105.387 114.663 106.529C114.388 107.67 114.079 108.783 113.693 109.914C113.32 111.059 112.886 112.185 112.391 113.287C111.861 114.494 111.187 115.639 110.382 116.7C109.863 117.37 109.227 117.951 108.501 118.418C108.015 118.721 107.475 118.941 106.907 119.066C106.271 119.204 105.61 119.204 104.974 119.066C103.99 118.806 103.108 118.281 102.434 117.553C101.93 117.026 101.497 116.441 101.143 115.814C100.522 114.725 100.029 113.575 99.6713 112.384C99.4903 111.83 99.3443 111.238 99.2158 110.662C99.0873 110.085 98.9647 109.554 98.8829 108.911L101.394 108.257C102.282 110.162 103.37 111.977 104.641 113.675C104.905 114.002 105.204 114.301 105.535 114.567C105.809 114.783 106.049 114.828 105.979 114.767C105.923 114.739 105.861 114.724 105.797 114.722C105.751 114.722 105.751 114.722 105.797 114.678C106.021 114.474 106.217 114.245 106.381 113.997C106.9 113.204 107.327 112.361 107.655 111.481C108.034 110.54 108.361 109.537 108.665 108.518C109.249 106.49 109.786 104.335 110.207 102.285L115.393 103.083Z" fill="#CE7A63"/>
<path d="M101.692 108.457L100.413 104.579L97.0784 106.9C97.0784 106.9 98.9005 110.368 100.133 110.052L101.692 108.457Z" fill="#CE7A63"/>
<path d="M96.8973 103.072L95.0227 105.255L97.0784 106.883L100.413 104.562L96.8973 103.072Z" fill="#CE7A63"/>
<path opacity="0.3" d="M114.686 115.969C114.494 110.778 113.83 105.612 112.7 100.529C114.038 100.424 116.315 100.529 116.695 102.59C117.098 104.784 116.59 109.952 114.686 115.969Z" fill="black"/>
<path d="M117.186 105.465C116.372 107.873 115.409 110.234 114.301 112.534C114.061 113.055 113.839 113.515 113.658 113.886L113.138 114.938L105.669 111.354C105.669 111.354 105.751 111.06 105.903 110.562C106.014 110.185 106.16 109.698 106.347 109.127C107.444 105.803 109.728 99.8198 112.187 99.4043C115.796 98.7506 118.517 101.255 117.186 105.465Z" fill="#BA68C8"/>
<path opacity="0.6" d="M117.186 105.465C116.372 107.873 115.409 110.234 114.301 112.534C114.061 113.055 113.839 113.515 113.658 113.886L113.138 114.938L105.669 111.354C105.669 111.354 105.751 111.06 105.903 110.562C106.014 110.185 106.16 109.698 106.347 109.127C107.444 105.803 109.728 99.8198 112.187 99.4043C115.796 98.7506 118.517 101.255 117.186 105.465Z" fill="white"/>
<path d="M123.966 101.244C119.037 101.116 118.295 98.8336 118.266 98.7339V98.6342L119.107 98.5843C121.931 98.4346 124.762 98.4346 127.587 98.5843L128.065 98.6342C128.271 98.7975 128.43 99.0077 128.527 99.2451C128.624 99.4824 128.656 99.7392 128.62 99.9915C128.404 100.789 127.248 101.055 126.237 101.166L123.966 101.244Z" fill="white"/>
<path d="M105.844 110.052L114.008 114.013L113.086 115.088L105.494 111.348L105.844 110.052Z" fill="#BA68C8"/>
<path opacity="0.8" d="M105.844 110.052L114.008 114.013L113.086 115.088L105.494 111.348L105.844 110.052Z" fill="white"/>
<path d="M123.551 101.593L126.857 101.244L126.127 103.349C126.127 103.349 128.398 114.573 128.842 118.351C129.105 120.617 129.339 127.448 129.339 127.448L127.616 129.248L125.058 128.096C125.058 128.096 125.116 120.406 125.105 117.847C125.105 114.218 124.912 103.349 124.912 103.349L123.428 101.991L123.551 101.593Z" fill="#263238"/>
<path d="M122.745 103.659L125.151 101.581L128.118 103.52C128.118 103.52 131.19 100.75 128.906 98.7394C128.468 98.6785 128.019 98.6286 127.557 98.5843C124.733 98.4346 121.902 98.4346 119.078 98.5843C118.494 98.612 117.91 98.6563 117.326 98.7117C117.518 99.4929 118.389 102.058 122.745 103.659Z" fill="#BA68C8"/>
<path opacity="0.8" d="M122.745 103.659L125.151 101.581L128.118 103.52C128.118 103.52 131.19 100.75 128.906 98.7394C128.468 98.6785 128.019 98.6286 127.557 98.5843C124.733 98.4346 121.902 98.4346 119.078 98.5843C118.494 98.612 117.91 98.6563 117.326 98.7117C117.518 99.4929 118.389 102.058 122.745 103.659Z" fill="white"/>
<path d="M124.123 100.773C119.375 100.695 118.751 98.6065 118.751 98.6065C120.596 96.878 119.889 92.1579 119.259 89.5652L121.53 91.3491L124.62 93.7867C124.526 94.1753 124.459 94.5696 124.421 94.9667C124.258 96.5567 124.69 98.0026 127.154 98.5566C127.154 98.5566 130.074 100.396 125.741 100.728L124.123 100.773Z" fill="#CE7A63"/>
<path opacity="0.2" d="M124.62 93.7867C124.526 94.1754 124.459 94.5696 124.421 94.9668C123.253 94.7507 121.729 93.5818 121.571 92.4682C121.514 92.1015 121.5 91.7298 121.531 91.3602L124.62 93.7867Z" fill="black"/>
<path d="M118.324 85.8368C119.113 89.2771 119.387 91.3214 121.53 92.8947C122.223 93.4121 123.052 93.7397 123.927 93.8419C124.803 93.9441 125.691 93.8171 126.495 93.4746C127.299 93.1321 127.99 92.5873 128.491 91.8991C128.992 91.2109 129.285 90.4057 129.339 89.5707C129.625 86.3686 128.287 81.2607 124.468 80.3023C123.644 80.0684 122.77 80.0449 121.934 80.2342C121.098 80.4236 120.329 80.8191 119.705 81.3807C119.082 81.9423 118.626 82.6501 118.383 83.4326C118.141 84.2151 118.121 85.0444 118.324 85.8368Z" fill="#CE7A63"/>
<path d="M124.047 86.1748C124.094 86.4573 124.287 86.6678 124.485 86.6457C124.684 86.6235 124.801 86.3798 124.754 86.0917C124.707 85.8036 124.515 85.5986 124.316 85.6208C124.118 85.6429 124.001 85.8701 124.047 86.1748Z" fill="#263238"/>
<path d="M127.423 85.798C127.47 86.0806 127.668 86.2911 127.861 86.2689C128.054 86.2468 128.176 85.9975 128.135 85.7149C128.095 85.4324 127.89 85.2219 127.697 85.244C127.505 85.2662 127.382 85.5155 127.423 85.798Z" fill="#263238"/>
<path d="M126.372 86.0583C126.871 86.883 127.484 87.6413 128.194 88.3131C128.01 88.4744 127.79 88.5948 127.55 88.6657C127.311 88.7366 127.058 88.7562 126.81 88.7231L126.372 86.0583Z" fill="#BA4D3C"/>
<path d="M122.833 85.2662C122.806 85.2742 122.778 85.2742 122.751 85.2662C122.731 85.2557 122.712 85.2416 122.698 85.2244C122.683 85.2073 122.672 85.1877 122.666 85.1665C122.659 85.1454 122.657 85.1232 122.66 85.1013C122.662 85.0795 122.67 85.0583 122.681 85.039C122.809 84.8049 122.997 84.6049 123.228 84.4569C123.458 84.3089 123.724 84.2177 124.001 84.1914C124.024 84.1891 124.047 84.1914 124.07 84.1981C124.092 84.2048 124.112 84.2157 124.13 84.2303C124.147 84.2449 124.162 84.2627 124.172 84.2827C124.181 84.3027 124.187 84.3244 124.188 84.3465C124.189 84.3688 124.186 84.3912 124.178 84.4123C124.171 84.4334 124.158 84.4528 124.143 84.4693C124.127 84.4859 124.108 84.4992 124.086 84.5086C124.065 84.5179 124.042 84.5231 124.018 84.5238C123.802 84.5494 123.596 84.6242 123.417 84.7419C123.238 84.8596 123.092 85.0167 122.99 85.1997C122.972 85.222 122.948 85.2397 122.92 85.2512C122.893 85.2628 122.863 85.2679 122.833 85.2662Z" fill="#263238"/>
<path d="M128.696 84.5349C128.668 84.5338 128.64 84.5268 128.615 84.5144C128.589 84.5019 128.567 84.4843 128.55 84.4628C128.429 84.2816 128.265 84.1293 128.072 84.0178C127.878 83.9064 127.66 83.8387 127.435 83.8202C127.388 83.8202 127.344 83.8027 127.311 83.7715C127.278 83.7403 127.26 83.6981 127.26 83.654C127.26 83.6099 127.278 83.5676 127.311 83.5365C127.344 83.5053 127.388 83.4878 127.435 83.4878C127.717 83.5055 127.991 83.586 128.234 83.7226C128.478 83.8593 128.684 84.0483 128.836 84.2745C128.85 84.2926 128.859 84.3131 128.864 84.3346C128.868 84.3562 128.869 84.3784 128.864 84.4001C128.86 84.4218 128.851 84.4424 128.838 84.4607C128.825 84.4791 128.809 84.4949 128.79 84.5072C128.761 84.5236 128.729 84.5332 128.696 84.5349Z" fill="#263238"/>
<path d="M119.644 88.64C119.644 88.64 121.25 89.6428 121.104 88.4295C120.958 87.2163 120.374 83.1333 120.374 83.1333L122.161 81.7483C122.161 81.7483 129.753 81.7981 129.286 78.1362C128.819 74.4743 125.262 77.3717 125.262 77.3717C125.262 77.3717 125.986 75.3053 123.434 75.344C122.744 75.3339 122.073 75.5638 121.549 75.9904C121.026 76.417 120.684 77.0108 120.59 77.6598C120.59 77.6598 118.184 76.3135 116.999 77.5213C116.641 77.9392 116.376 78.4221 116.222 78.9402C116.067 79.4584 116.025 80.0011 116.099 80.535C116.099 80.535 110.259 81.3162 114.055 86.629C117.851 91.9419 120.666 92.579 119.644 88.64Z" fill="#263238"/>
<path d="M117.489 89.4267C118.076 90.0986 118.888 90.5584 119.79 90.7286C120.958 90.9114 121.192 89.9031 120.608 88.9336C120.088 88.0583 118.856 86.9115 117.84 87.1664C116.823 87.4212 116.748 88.5791 117.489 89.4267Z" fill="#CE7A63"/>
<path d="M122.815 93.1607C122.296 91.9087 121.577 89.7037 122.342 87.8035C123.107 85.9033 125.922 89.1885 126.903 89.1885C127.884 89.1885 128.72 87.7315 129.309 88.7342C129.899 89.737 127.382 95.5041 126.851 93.9917C126.851 93.9917 126.138 95.0277 125.484 94.0803C125.484 94.0803 125.04 94.8781 124.351 94.0803C124.351 94.0803 123.37 94.4903 122.815 93.1607Z" fill="#263238"/>
<path opacity="0.3" d="M122.815 93.1607C122.296 91.9087 121.577 89.7037 122.342 87.8035C123.107 85.9033 125.922 89.1885 126.903 89.1885C127.884 89.1885 128.72 87.7315 129.309 88.7342C129.899 89.737 127.382 95.5041 126.851 93.9917C126.851 93.9917 126.138 95.0277 125.484 94.0803C125.484 94.0803 125.04 94.8781 124.351 94.0803C124.351 94.0803 123.37 94.4903 122.815 93.1607Z" fill="white"/>
<path d="M127.82 89.6594C126.426 89.4154 125.01 89.2985 123.592 89.3104C123.931 90.2079 124.591 90.9724 126.191 90.9724C126.39 90.9947 126.592 90.9777 126.784 90.9227C126.976 90.8677 127.154 90.7757 127.307 90.6525C127.46 90.5293 127.584 90.3775 127.673 90.2067C127.761 90.0358 127.811 89.8495 127.82 89.6594Z" fill="#263238"/>
<path d="M125.472 90.2577C126.095 90.2371 126.708 90.4038 127.224 90.7341C126.922 90.9108 126.569 90.9958 126.214 90.9779C125.591 91.0061 124.975 90.8387 124.462 90.5015C124.764 90.3222 125.117 90.2369 125.472 90.2577Z" fill="#A02724"/>
<path d="M127.674 89.6316C127.641 89.7402 127.576 89.8378 127.487 89.9132C127.399 89.9886 127.289 90.0389 127.172 90.0582C126.238 90.0298 125.308 89.926 124.392 89.748C124.246 89.7335 124.107 89.6843 123.986 89.6049C123.866 89.5254 123.768 89.4184 123.703 89.2937C125.034 89.3059 126.362 89.4189 127.674 89.6316Z" fill="white"/>
<path d="M238.272 131.625C238.05 131.575 237.776 131.763 237.688 132.079C237.6 132.395 237.653 132.722 237.875 132.772C238.097 132.821 238.371 132.633 238.459 132.317C238.546 132.001 238.465 131.675 238.272 131.625Z" fill="#2E353A"/>
<path d="M237.051 135.049C236.802 135.024 236.561 134.948 236.346 134.826C236.131 134.703 235.947 134.537 235.807 134.339C236.666 133.846 237.452 133.246 238.143 132.556L237.051 135.049Z" fill="#A02724"/>
<path d="M239.732 131.137C239.688 130.901 239.586 130.678 239.435 130.485C239.284 130.293 239.088 130.137 238.862 130.029C238.837 130.02 238.814 130.006 238.795 129.988C238.776 129.97 238.76 129.949 238.75 129.926C238.728 129.878 238.728 129.825 238.748 129.777C238.768 129.729 238.807 129.691 238.857 129.671C238.907 129.651 238.963 129.65 239.014 129.669C239.309 129.8 239.566 129.997 239.762 130.245C239.957 130.492 240.086 130.782 240.135 131.087C240.143 131.137 240.131 131.188 240.101 131.23C240.07 131.271 240.024 131.3 239.971 131.309H239.86C239.825 131.294 239.794 131.27 239.771 131.24C239.749 131.21 239.735 131.174 239.732 131.137Z" fill="#2E353A"/>
<path d="M247.984 146.522C248.212 147.48 248.363 147.935 247.458 148.35C245.59 149.28 243.457 149.616 241.373 149.308C239.218 148.959 238.833 148.228 238.92 147.646C238.995 147.421 239.123 147.216 239.295 147.046C239.468 146.876 239.679 146.746 239.913 146.666C240.391 146.469 240.798 146.143 241.082 145.728C241.365 145.313 241.513 144.828 241.507 144.334C241.595 143.808 241.583 143.271 241.472 142.749L245.327 140.328L248.247 137.253C247.519 140.297 247.43 143.446 247.984 146.522Z" fill="#B55B52"/>
<path d="M235.86 148.66C235.86 148.66 237.285 144.932 239.598 144.068C241.91 143.203 248.842 143.691 248.842 143.691C249.169 145.037 249.602 146.357 250.139 147.641L235.86 148.66Z" fill="#BA68C8"/>
<path d="M250.01 133.126C249.991 132.394 249.818 131.673 249.503 131.005C249.188 130.336 248.737 129.734 248.175 129.232C247.612 128.73 246.951 128.339 246.229 128.082C245.506 127.824 244.737 127.704 243.966 127.73C239.504 127.885 236.894 133.32 236.497 137.026C236.053 141.137 240.322 144.588 244.416 142.716C247.137 141.469 247.92 139.22 249.531 135.514C249.875 134.761 250.039 133.946 250.01 133.126Z" fill="#B55B52"/>
<path opacity="0.2" d="M249.298 145.314C249.543 146.101 249.823 146.876 250.139 147.641L236.946 148.583C237.273 147.843 237.682 147.14 238.167 146.483C241.355 145.259 246.927 145.253 249.298 145.314Z" fill="black"/>
<path d="M246.88 141.109C246.177 140.969 245.451 140.969 244.749 141.109C244.404 141.18 244.044 141.139 243.727 140.993C243.41 140.848 243.153 140.606 242.997 140.306L240.912 136.195C240.912 136.195 237.922 135.254 241.583 129.586C241.583 129.586 234.616 127.398 239.761 122.905C244.906 118.412 241.583 124.489 241.583 124.489C241.583 124.489 248.089 121.165 244.836 125.376C244.836 125.376 254.764 125.852 252.317 130.96C252.317 130.96 256.405 131.038 248.399 140.566C248.224 140.782 247.989 140.947 247.721 141.043C247.452 141.139 247.161 141.162 246.88 141.109Z" fill="#263238"/>
<path d="M242.477 133.547C241.355 133.392 240.141 134.461 239.755 135.414C239.317 136.522 239.89 137.741 241.069 137.442C241.98 137.194 242.763 136.638 243.271 135.88C243.902 134.932 243.598 133.702 242.477 133.547Z" fill="#B55B52"/>
<path d="M248.416 151.358C248.924 152.322 249.491 153.38 249.999 154.4C250.507 155.419 251.021 156.466 251.482 157.502C251.943 158.538 252.399 159.569 252.773 160.588C253.138 161.529 253.418 162.499 253.608 163.485C253.674 163.82 253.707 164.159 253.707 164.499C253.705 164.529 253.705 164.558 253.707 164.588L253.736 164.538C253.462 164.808 253.171 165.063 252.866 165.302C252.452 165.568 251.984 165.856 251.494 166.111C249.508 167.169 247.219 168.117 245.011 169.081L245.753 172.006C247.064 171.913 248.367 171.741 249.654 171.491C250.97 171.249 252.268 170.924 253.538 170.516C254.219 170.299 254.884 170.039 255.529 169.74C256.305 169.393 257.029 168.952 257.684 168.427C258.155 168.033 258.551 167.565 258.852 167.042C258.902 166.961 258.946 166.878 258.986 166.793L259.086 166.577C259.15 166.433 259.197 166.3 259.243 166.161C259.33 165.905 259.398 165.644 259.448 165.38C259.598 164.54 259.629 163.685 259.541 162.837C259.389 161.47 259.102 160.12 258.683 158.804C258.297 157.558 257.848 156.366 257.369 155.197C256.89 154.029 256.376 152.904 255.827 151.796C255.278 150.688 254.706 149.58 254.034 148.472L248.416 151.358Z" fill="#B55B52"/>
<path d="M246.448 169.197L241.7 168.039L241.309 172.089C241.309 172.089 244.509 173.341 246.483 171.38L246.448 169.197Z" fill="#B55B52"/>
<path d="M239.814 168.632L238.803 171.901L241.332 172.089L241.723 168.039L239.814 168.632Z" fill="#B55B52"/>
<path d="M258.496 156.128L250.407 159.934C250.407 159.934 249.981 159.829 246.781 154.976C243.072 149.331 245.105 146.156 249.578 146.001C254.151 145.84 255.792 151.209 258.496 156.128Z" fill="#BA68C8"/>
<path opacity="0.2" d="M255.979 157.308L252.107 159.131L250.139 156.926L252.323 151.392L252.93 150.76L254.449 150.549L255.979 157.308Z" fill="black"/>
<path d="M205.767 216.165L201.743 214.509L198.648 223.705L202.677 225.362L205.767 216.165Z" fill="#B55B52"/>
<path opacity="0.2" d="M205.766 216.165L201.743 214.509L200.201 219.107L204.266 220.619L205.766 216.165Z" fill="black"/>
<path d="M198.198 222.087C196.995 223.046 194.542 223.749 192.656 223.844C191.207 223.91 191.085 225.506 192.901 225.783C194.717 226.06 197.883 225.938 199.214 225.988C201.375 226.065 202.134 226.403 203.816 226.375C204.02 226.365 204.213 226.28 204.351 226.137C204.49 225.994 204.564 225.805 204.558 225.611L204.196 221.932C204.188 221.854 204.149 221.782 204.087 221.731C204.026 221.679 203.945 221.652 203.863 221.655L198.94 221.805C198.667 221.823 198.408 221.922 198.198 222.087Z" fill="#263238"/>
<path d="M242.529 178.222C242.529 178.222 245.905 182.022 243.183 188.039C240.106 194.858 223.783 191.861 214.871 194.033C213.598 206.077 206.193 218.409 206.193 218.409L199.997 216.104C199.997 216.104 202.683 206.515 204.698 189.512C205.685 181.152 228.058 180.233 228.058 180.233L242.529 178.222Z" fill="#263238"/>
<path d="M207.425 217.345L199.535 214.725L199.056 217.467L206.245 219.944L207.425 217.345Z" fill="#263238"/>
<path d="M224.822 220.104L220.477 219.905L221.19 229.633L225.535 229.832L224.822 220.104Z" fill="#B55B52"/>
<path d="M220.004 228.614C218.801 229.566 216.769 230.891 214.906 231.145C213.709 231.306 212.81 233.023 215.046 233.023C217.283 233.023 219.718 232.824 221.026 232.785C223.187 232.719 223.906 232.902 225.617 232.902C225.719 232.897 225.82 232.874 225.913 232.832C226.006 232.791 226.089 232.733 226.158 232.661C226.227 232.588 226.28 232.504 226.315 232.412C226.349 232.321 226.364 232.223 226.358 232.126L226.002 228.442C225.995 228.363 225.955 228.291 225.892 228.24C225.828 228.189 225.746 228.164 225.663 228.17L220.752 228.32C220.475 228.335 220.211 228.438 220.004 228.614Z" fill="#263238"/>
<path opacity="0.2" d="M225.219 225.467L220.892 225.472L220.477 219.91L224.822 220.11L225.219 225.467Z" fill="black"/>
<path d="M253.386 178.881C253.386 178.881 256.948 185.767 253.485 190.149C250.349 194.127 234.342 194.393 226.207 194.393C227.012 203.811 226.119 223.146 226.119 223.146L219.584 223.062C219.584 223.062 214.982 204.465 214.036 191.451C213.51 184.249 240.631 179.435 240.631 179.435L253.386 178.881Z" fill="#263238"/>
<path d="M227.007 221.866L218.06 221.617L218.445 224.154L226.668 224.265L227.007 221.866Z" fill="#263238"/>
<path d="M254.174 179.241L227.41 180.299L229.927 151.796C230.064 150.24 230.813 148.79 232.024 147.733C233.236 146.676 234.822 146.09 236.467 146.09H249.806C251.04 146.097 252.221 146.567 253.091 147.398C253.961 148.228 254.449 149.351 254.449 150.522L254.174 179.241Z" fill="#BA68C8"/>
<path d="M231.381 150.372L230.68 151.874C230.423 152.389 230.16 152.904 229.886 153.414C229.337 154.427 228.794 155.441 228.204 156.422C227.614 157.402 227.036 158.372 226.376 159.297C225.762 160.21 225.091 161.087 224.367 161.923C224.03 162.326 223.671 162.713 223.292 163.081C223.202 163.141 223.097 163.181 222.988 163.195C222.878 163.21 222.766 163.199 222.662 163.164C222.18 163.043 221.708 162.892 221.248 162.71C219.096 161.767 217.019 160.677 215.035 159.447L212.88 161.663C213.72 162.654 214.631 163.589 215.607 164.46C216.609 165.366 217.693 166.186 218.848 166.909C219.492 167.313 220.172 167.661 220.88 167.951C221.788 168.331 222.768 168.531 223.76 168.538C224.479 168.533 225.189 168.378 225.839 168.084C226.199 167.917 226.537 167.709 226.843 167.463L227.264 167.125C227.813 166.665 228.338 166.194 228.823 165.707C230.685 163.804 232.327 161.719 233.723 159.485C234.406 158.377 235.06 157.297 235.65 156.161C235.948 155.607 236.234 155.054 236.52 154.466C236.806 153.879 237.051 153.358 237.332 152.682L231.381 150.372Z" fill="#B55B52"/>
<path d="M215.7 160.472L213.586 156.272L210.082 158.593C210.082 158.593 211.128 161.724 213.978 161.917L215.7 160.472Z" fill="#B55B52"/>
<path d="M211.881 155.264L208.593 156.632L210.065 158.594L213.586 156.272L211.881 155.264Z" fill="#B55B52"/>
<path d="M234.248 161.214L226.691 156.527C226.691 156.527 226.569 156.117 229.36 151.054C232.607 145.159 236.52 145.209 238.926 148.782C241.396 152.45 237.343 156.511 234.248 161.214Z" fill="#BA68C8"/>
<path d="M266.888 232.874C266.95 232.842 267.005 232.8 267.049 232.748C267.094 232.697 267.127 232.637 267.147 232.573C267.167 232.509 267.174 232.442 267.166 232.376C267.159 232.31 267.138 232.245 267.104 232.187L246.465 196.177C246.432 196.119 246.386 196.067 246.332 196.025C246.277 195.984 246.214 195.953 246.147 195.934C246.08 195.916 246.009 195.91 245.94 195.917C245.87 195.925 245.803 195.945 245.741 195.977C245.679 196.008 245.625 196.05 245.58 196.102C245.536 196.153 245.503 196.212 245.482 196.275C245.462 196.339 245.456 196.405 245.463 196.471C245.47 196.537 245.492 196.601 245.525 196.659L266.17 232.669C266.202 232.728 266.247 232.779 266.3 232.822C266.354 232.864 266.417 232.895 266.483 232.914C266.55 232.933 266.62 232.94 266.69 232.933C266.759 232.926 266.827 232.906 266.888 232.874Z" fill="#BA68C8"/>
<g opacity="0.2">
<path d="M266.888 232.874C266.95 232.842 267.005 232.8 267.049 232.748C267.094 232.697 267.127 232.637 267.147 232.573C267.167 232.509 267.174 232.442 267.166 232.376C267.159 232.31 267.138 232.245 267.104 232.187L246.465 196.177C246.432 196.119 246.386 196.067 246.332 196.025C246.277 195.984 246.214 195.953 246.147 195.934C246.08 195.916 246.009 195.91 245.94 195.917C245.87 195.925 245.803 195.945 245.741 195.977C245.679 196.008 245.625 196.05 245.58 196.102C245.536 196.153 245.503 196.212 245.482 196.275C245.462 196.339 245.456 196.405 245.463 196.471C245.47 196.537 245.492 196.601 245.525 196.659L266.17 232.669C266.202 232.728 266.247 232.779 266.3 232.822C266.354 232.864 266.417 232.895 266.483 232.914C266.55 232.933 266.62 232.94 266.69 232.933C266.759 232.926 266.827 232.906 266.888 232.874Z" fill="black"/>
</g>
<path opacity="0.2" d="M256.902 216.536L255.085 213.356L255.693 212.293L257.509 215.473L256.902 216.536Z" fill="black"/>
<path d="M237.373 232.874C237.435 232.842 237.489 232.8 237.534 232.748C237.578 232.697 237.612 232.637 237.632 232.573C237.652 232.509 237.658 232.442 237.651 232.376C237.644 232.31 237.622 232.245 237.589 232.187L216.95 196.177C216.917 196.119 216.871 196.067 216.817 196.025C216.762 195.984 216.699 195.953 216.632 195.934C216.565 195.916 216.494 195.91 216.424 195.917C216.355 195.925 216.287 195.945 216.226 195.977C216.164 196.008 216.109 196.05 216.065 196.102C216.021 196.153 215.987 196.212 215.967 196.275C215.947 196.339 215.941 196.405 215.948 196.471C215.955 196.537 215.976 196.601 216.01 196.659L236.654 232.669C236.687 232.728 236.731 232.779 236.785 232.822C236.839 232.864 236.901 232.895 236.968 232.914C237.035 232.933 237.105 232.94 237.175 232.933C237.244 232.926 237.311 232.906 237.373 232.874Z" fill="#BA68C8"/>
<g opacity="0.2">
<path d="M237.373 232.874C237.435 232.842 237.489 232.8 237.534 232.748C237.578 232.697 237.612 232.637 237.632 232.573C237.652 232.509 237.658 232.442 237.651 232.376C237.644 232.31 237.622 232.245 237.589 232.187L216.95 196.177C216.917 196.119 216.871 196.067 216.817 196.025C216.762 195.984 216.699 195.953 216.632 195.934C216.565 195.916 216.494 195.91 216.424 195.917C216.355 195.925 216.287 195.945 216.226 195.977C216.164 196.008 216.109 196.05 216.065 196.102C216.021 196.153 215.987 196.212 215.967 196.275C215.947 196.339 215.941 196.405 215.948 196.471C215.955 196.537 215.976 196.601 216.01 196.659L236.654 232.669C236.687 232.728 236.731 232.779 236.785 232.822C236.839 232.864 236.901 232.895 236.968 232.914C237.035 232.933 237.105 232.94 237.175 232.933C237.244 232.926 237.311 232.906 237.373 232.874Z" fill="black"/>
</g>
<path opacity="0.2" d="M227.409 216.536L225.587 213.356L226.195 212.293L228.017 215.473L227.409 216.536Z" fill="black"/>
<path d="M216.95 232.68L237.589 196.67C237.622 196.612 237.643 196.548 237.651 196.482C237.658 196.416 237.651 196.35 237.631 196.286C237.611 196.223 237.578 196.164 237.534 196.113C237.489 196.062 237.434 196.019 237.373 195.989C237.312 195.956 237.245 195.936 237.176 195.929C237.106 195.921 237.036 195.927 236.969 195.946C236.903 195.964 236.84 195.995 236.786 196.037C236.732 196.078 236.687 196.13 236.654 196.188L216.01 232.198C215.976 232.256 215.955 232.321 215.948 232.387C215.94 232.453 215.947 232.52 215.967 232.584C215.987 232.648 216.02 232.708 216.065 232.759C216.109 232.811 216.164 232.854 216.226 232.885C216.288 232.917 216.355 232.937 216.425 232.944C216.495 232.951 216.566 232.945 216.633 232.926C216.7 232.907 216.763 232.875 216.818 232.833C216.872 232.791 216.917 232.739 216.95 232.68Z" fill="#BA68C8"/>
<g opacity="0.2">
<path d="M216.95 232.68L237.589 196.67C237.622 196.612 237.643 196.548 237.651 196.482C237.658 196.416 237.651 196.35 237.631 196.286C237.611 196.223 237.578 196.164 237.534 196.113C237.489 196.062 237.434 196.019 237.373 195.989C237.312 195.956 237.245 195.936 237.176 195.929C237.106 195.921 237.036 195.927 236.969 195.946C236.903 195.964 236.84 195.995 236.786 196.037C236.732 196.078 236.687 196.13 236.654 196.188L216.01 232.198C215.976 232.256 215.955 232.321 215.948 232.387C215.94 232.453 215.947 232.52 215.967 232.584C215.987 232.648 216.02 232.708 216.065 232.759C216.109 232.811 216.164 232.854 216.226 232.885C216.288 232.917 216.355 232.937 216.425 232.944C216.495 232.951 216.566 232.945 216.633 232.926C216.7 232.907 216.763 232.875 216.818 232.833C216.872 232.791 216.917 232.739 216.95 232.68Z" fill="black"/>
</g>
<path d="M246.448 232.68L267.086 196.67C267.12 196.612 267.141 196.548 267.149 196.482C267.156 196.416 267.149 196.35 267.129 196.286C267.109 196.223 267.076 196.164 267.031 196.113C266.987 196.062 266.932 196.019 266.87 195.989C266.81 195.956 266.743 195.936 266.673 195.929C266.604 195.921 266.534 195.927 266.467 195.946C266.4 195.964 266.338 195.995 266.284 196.037C266.23 196.078 266.185 196.13 266.152 196.188L245.508 232.198C245.474 232.256 245.453 232.321 245.445 232.387C245.438 232.453 245.444 232.52 245.465 232.584C245.485 232.648 245.518 232.708 245.562 232.759C245.607 232.811 245.662 232.854 245.724 232.885C245.785 232.917 245.853 232.937 245.923 232.944C245.993 232.951 246.064 232.945 246.131 232.926C246.198 232.907 246.261 232.875 246.315 232.833C246.37 232.791 246.415 232.739 246.448 232.68Z" fill="#BA68C8"/>
<g opacity="0.2">
<path d="M246.448 232.68L267.086 196.67C267.12 196.612 267.141 196.548 267.149 196.482C267.156 196.416 267.149 196.35 267.129 196.286C267.109 196.223 267.076 196.164 267.031 196.113C266.987 196.062 266.932 196.019 266.87 195.989C266.81 195.956 266.743 195.936 266.673 195.929C266.604 195.921 266.534 195.927 266.467 195.946C266.4 195.964 266.338 195.995 266.284 196.037C266.23 196.078 266.185 196.13 266.152 196.188L245.508 232.198C245.474 232.256 245.453 232.321 245.445 232.387C245.438 232.453 245.444 232.52 245.465 232.584C245.485 232.648 245.518 232.708 245.562 232.759C245.607 232.811 245.662 232.854 245.724 232.885C245.785 232.917 245.853 232.937 245.923 232.944C245.993 232.951 246.064 232.945 246.131 232.926C246.198 232.907 246.261 232.875 246.315 232.833C246.37 232.791 246.415 232.739 246.448 232.68Z" fill="black"/>
</g>
<path d="M242.08 194.354H218.136C217.406 194.354 216.706 194.629 216.191 195.119C215.675 195.608 215.385 196.272 215.385 196.964H242.109L242.08 194.354Z" fill="#BA68C8"/>
<path d="M259.092 160.954C267.519 160.954 273.516 166.909 273.108 174.842L272.144 192.188C272.072 193.478 271.481 194.692 270.494 195.58C269.506 196.469 268.197 196.964 266.835 196.964H232.963L239.971 174.842C242.453 166.909 250.664 160.954 259.092 160.954Z" fill="#BA68C8"/>
<path opacity="0.3" d="M259.092 160.954C267.519 160.954 273.516 166.909 273.108 174.842L272.144 192.188C272.072 193.478 271.481 194.692 270.494 195.58C269.506 196.469 268.197 196.964 266.835 196.964H232.963L239.971 174.842C242.453 166.909 250.664 160.954 259.092 160.954Z" fill="white"/>
<path d="M187.084 147.536C187.668 149.497 187.809 151.597 184.842 152.356C184.842 152.356 182.074 156.056 185.397 158.533C187.499 155.907 190.152 153.723 193.187 152.117C191.26 150.483 191.634 145.807 192.078 143.253L187.084 147.536Z" fill="#CE7A63"/>
<path d="M183.405 137.392C183.177 137.337 182.897 137.536 182.786 137.863C182.675 138.19 182.786 138.528 182.996 138.583C183.207 138.639 183.505 138.439 183.615 138.112C183.726 137.785 183.627 137.425 183.405 137.392Z" fill="#2E353A"/>
<path d="M182.745 136.938L183.499 137.42C182.961 137.691 182.745 136.938 182.745 136.938Z" fill="#2E353A"/>
<path d="M182.594 140.91C182.364 140.899 182.14 140.84 181.938 140.736C181.736 140.633 181.561 140.487 181.426 140.312C182.156 139.827 182.812 139.249 183.376 138.594L182.594 140.91Z" fill="#BA4D3C"/>
<path d="M184.223 135.22C184.445 135.365 184.627 135.558 184.755 135.784C184.882 136.01 184.95 136.261 184.953 136.517C184.952 136.543 184.957 136.568 184.967 136.593C184.977 136.617 184.992 136.639 185.011 136.657C185.03 136.676 185.052 136.691 185.078 136.701C185.103 136.711 185.13 136.716 185.157 136.716C185.212 136.716 185.265 136.696 185.304 136.66C185.343 136.623 185.366 136.574 185.367 136.522C185.371 136.196 185.291 135.874 185.133 135.584C184.975 135.294 184.745 135.046 184.462 134.86C184.417 134.829 184.361 134.815 184.305 134.822C184.249 134.83 184.199 134.857 184.164 134.899C184.147 134.93 184.138 134.964 184.138 134.999C184.138 135.033 184.147 135.068 184.164 135.098C184.165 135.121 184.17 135.144 184.18 135.165C184.19 135.186 184.205 135.205 184.223 135.22Z" fill="#2E353A"/>
<path d="M196.306 137.58C196.168 136.055 195.397 134.645 194.162 133.659C192.928 132.673 191.332 132.192 189.724 132.323C185.005 132.661 182.389 138.478 182.074 142.384C181.723 146.721 186.483 149.497 190.775 147.37C193.654 145.951 194.209 144.245 195.868 140.289C196.244 139.434 196.394 138.504 196.306 137.58Z" fill="#CE7A63"/>
<path d="M198.607 142.716C204.785 135.314 197.199 133.187 197.199 133.187C194.822 130.057 190.898 129.42 187.3 130.727C183.703 132.035 184.778 134.317 186.086 134.544C183.633 137.619 185.04 139.148 185.846 139.37C184.579 147.104 192.428 150.134 198.607 142.716Z" fill="#263238"/>
<path d="M187.85 139.608C187.897 139.214 187.778 138.817 187.519 138.506C187.26 138.195 186.881 137.993 186.465 137.946C185.297 137.83 184.351 139.181 184.089 140.162C183.797 141.231 184.427 142.223 185.601 141.868C186.039 141.732 186.445 141.515 186.795 141.23C187.145 140.945 187.432 140.597 187.639 140.206C187.753 140.023 187.825 139.819 187.85 139.608Z" fill="#CE7A63"/>
<path d="M194.332 152.682C193.962 152.448 193.66 152.128 193.456 151.753C193.252 151.378 193.151 150.96 193.164 150.538C193.164 150.538 184.515 149.342 182.716 151.192C182.716 151.192 185.315 151.065 184.281 153.098L194.332 152.682Z" fill="#BA68C8"/>
<path opacity="0.6" d="M194.332 152.682C193.962 152.448 193.66 152.128 193.456 151.753C193.252 151.378 193.151 150.96 193.164 150.538C193.164 150.538 184.515 149.342 182.716 151.192C182.716 151.192 185.315 151.065 184.281 153.098L194.332 152.682Z" fill="white"/>
<path d="M185.379 176.848L185.327 178.964C188.039 179.276 190.771 179.402 193.503 179.341C194.945 179.323 196.382 179.176 197.795 178.903C198.213 178.815 198.623 178.696 199.021 178.549C199.268 178.461 199.506 178.353 199.734 178.227C200.056 178.06 200.348 177.845 200.598 177.59C200.779 177.402 200.932 177.191 201.054 176.964C201.123 176.829 201.183 176.69 201.235 176.549C201.269 176.399 201.294 176.247 201.311 176.094L201.387 175.607L201.544 174.637C201.848 172.056 202.006 169.518 202.128 166.976C202.251 164.433 202.315 161.901 202.304 159.347H197.743L197.614 166.865C197.55 169.369 197.497 171.851 197.363 174.322L197.305 175.136C197.14 175.212 196.97 175.277 196.796 175.33C195.619 175.648 194.419 175.883 193.205 176.034C190.635 176.405 187.99 176.621 185.379 176.848Z" fill="#CE7A63"/>
<path d="M193.818 157.979C193.818 160.594 195.477 165.491 195.477 165.491L202.321 161.497C202.625 158.145 201.895 153.835 198.502 152.788C196.224 152.079 193.841 155.192 193.818 157.979Z" fill="#263238"/>
<path opacity="0.6" d="M198.735 156.095L200.306 157.569L200.61 162.499L195.477 165.491C195.477 165.491 193.818 160.594 193.818 157.979C193.831 157.298 193.961 156.625 194.203 155.984L196.539 155.308L198.735 156.095Z" fill="black"/>
<path d="M179.089 178.028C179.042 177.926 179.016 177.817 179.013 177.705C179.011 177.594 179.032 177.483 179.076 177.38C179.119 177.277 179.184 177.183 179.267 177.104C179.35 177.025 179.448 176.962 179.557 176.92L181.496 176.139C181.912 175.974 182.373 175.943 182.81 176.05L187.044 177.158L187.563 178.51C186.903 180.067 184.106 179.773 184.106 179.773L182.091 180.355C181.839 180.429 181.568 180.43 181.315 180.357C181.062 180.284 180.838 180.14 180.672 179.945L179.206 178.222C179.158 178.163 179.119 178.097 179.089 178.028Z" fill="#CE7A63"/>
<path d="M182.173 152.721C183.055 152.583 183.972 152.45 184.871 152.344C187.628 152.08 190.401 152 193.17 152.106C194.53 152.134 195.868 152.228 197.042 152.344H197.135C197.639 152.408 198.126 152.565 198.566 152.807C199.006 153.049 199.392 153.37 199.701 153.754C200.01 154.137 200.237 154.574 200.368 155.041C200.499 155.507 200.531 155.993 200.464 156.472C198.805 167.701 198.081 172.482 198.566 178.903L180.24 179.43C178.12 168.97 177.232 162.726 176.952 159.053C176.834 157.571 177.304 156.099 178.27 154.928C179.235 153.757 180.627 152.97 182.173 152.721Z" fill="#263238"/>
<path d="M160.904 217.174L156.576 216.786L153.662 226.896L157.99 227.284L160.904 217.174Z" fill="#CE7A63"/>
<path d="M147.53 208.088L143.863 204.792L138.957 211.861L141.889 214.276L147.53 208.088Z" fill="#CE7A63"/>
<path d="M196.808 179.047C197.242 179.043 197.665 179.177 198.009 179.429C198.354 179.68 198.599 180.033 198.706 180.432C201.182 189.595 198.385 195.13 191.546 195.13C185.122 195.13 167.649 189.701 162.154 188.011C157.552 200.626 144.271 211.916 144.271 211.916L140.767 208.88C140.767 208.88 148.505 194.742 153.849 182.188C156.921 174.986 186.588 179.141 186.588 179.141C186.588 179.141 192.527 179.047 196.808 179.047Z" fill="#BA68C8"/>
<path opacity="0.6" d="M196.808 179.047C197.242 179.043 197.665 179.177 198.009 179.429C198.354 179.68 198.599 180.033 198.706 180.432C201.182 189.595 198.385 195.13 191.546 195.13C185.122 195.13 167.649 189.701 162.154 188.011C157.552 200.626 144.271 211.916 144.271 211.916L140.767 208.88C140.767 208.88 148.505 194.742 153.849 182.188C156.921 174.986 186.588 179.141 186.588 179.141C186.588 179.141 192.527 179.047 196.808 179.047Z" fill="white"/>
<path d="M192.352 178.903C199.313 187.629 198.776 195.108 191.57 195.108C185.146 195.108 177.168 195.462 168.49 194.942C166.58 208.182 159.309 223.611 159.309 223.611L154.515 223.184C154.515 223.184 158.889 203.828 159.228 190.288C159.432 182.105 183.785 182.82 183.785 182.82C183.785 182.82 188.077 178.942 192.352 178.903Z" fill="#BA68C8"/>
<path opacity="0.6" d="M192.352 178.903C199.313 187.629 198.776 195.108 191.57 195.108C185.146 195.108 177.168 195.462 168.49 194.942C166.58 208.182 159.309 223.611 159.309 223.611L154.515 223.184C154.515 223.184 158.889 203.828 159.228 190.288C159.432 182.105 183.785 182.82 183.785 182.82C183.785 182.82 188.077 178.942 192.352 178.903Z" fill="white"/>
<path d="M198.502 177.745L179.942 178.299C179.761 178.299 179.638 178.399 179.638 178.504L179.872 180.05C179.872 180.144 180.03 180.211 180.193 180.211L199.051 179.684C199.267 179.684 199.413 179.557 199.343 179.435L198.823 177.889C198.791 177.837 198.744 177.795 198.686 177.769C198.629 177.743 198.564 177.735 198.502 177.745Z" fill="#263238"/>
<path d="M165.091 170.915C166.871 172.002 168.733 172.963 170.662 173.79C171.671 174.229 172.711 174.599 173.775 174.898C174.404 175.074 175.053 175.18 175.708 175.214C176.204 175.241 176.701 175.181 177.174 175.036C177.575 174.906 177.942 174.694 178.249 174.416C178.342 174.33 178.428 174.238 178.506 174.139L178.622 173.984L178.704 173.867L178.815 173.679C179.961 171.788 180.765 169.728 181.192 167.585C181.414 166.565 181.577 165.535 181.683 164.499C181.729 163.945 181.77 163.463 181.799 162.942C181.828 162.422 181.834 161.929 181.799 161.347L177.256 161.408C177.256 161.785 177.227 162.278 177.203 162.721C177.18 163.164 177.145 163.629 177.098 164.084C177.011 164.992 176.894 165.895 176.748 166.798C176.59 167.672 176.386 168.537 176.135 169.391C175.929 170.081 175.669 170.755 175.358 171.408C175.099 171.403 174.841 171.379 174.587 171.336C173.653 171.18 172.728 170.975 171.819 170.721C169.921 170.205 167.976 169.613 166.061 168.992L165.091 170.915Z" fill="#CE7A63"/>
<path d="M184.287 157.956C185.648 159.945 182.483 165.059 182.483 165.059L176.777 164.449C176.777 164.449 175.609 157.641 178.4 154.843C179.901 153.342 182.868 155.885 184.287 157.956Z" fill="#263238"/>
<path d="M161.26 169.579C161.193 169.558 161.137 169.512 161.106 169.452C161.074 169.392 161.068 169.322 161.091 169.258L164.104 160.749C164.128 160.686 164.177 160.634 164.24 160.604C164.303 160.574 164.375 160.568 164.443 160.588C164.476 160.598 164.507 160.614 164.533 160.636C164.559 160.657 164.581 160.683 164.597 160.712C164.613 160.742 164.622 160.774 164.625 160.807C164.627 160.839 164.623 160.872 164.612 160.904L161.616 169.413C161.599 169.456 161.571 169.495 161.535 169.525C161.498 169.555 161.454 169.576 161.406 169.585C161.358 169.593 161.308 169.591 161.26 169.579Z" fill="#2E353A"/>
<path d="M162.171 164.776C162.047 164.766 161.922 164.78 161.804 164.816C161.686 164.851 161.576 164.909 161.481 164.985C161.386 165.061 161.308 165.155 161.251 165.259C161.194 165.364 161.159 165.479 161.149 165.596L160.892 167.956C160.873 168.134 160.91 168.313 160.998 168.471C161.087 168.629 161.223 168.758 161.388 168.843L163.485 169.89C163.485 169.89 167.077 173.103 168.618 172.294L167.509 170L165.336 166.449C165.093 166.044 164.715 165.726 164.262 165.546L162.463 164.843C162.37 164.807 162.271 164.785 162.171 164.776Z" fill="#CE7A63"/>
<path d="M138.899 210.298C137.439 210.188 135.319 209.129 133.993 208.033C132.977 207.179 131.809 208.16 132.825 209.478C133.841 210.797 136.049 212.664 136.913 213.528C138.303 214.913 138.56 215.595 139.716 216.636C139.856 216.762 140.042 216.83 140.235 216.826C140.427 216.822 140.61 216.746 140.744 216.614L143.033 213.933C143.083 213.876 143.107 213.803 143.1 213.729C143.094 213.656 143.057 213.588 142.998 213.539L139.576 210.57C139.387 210.413 139.149 210.317 138.899 210.298Z" fill="#BA68C8"/>
<path d="M153.3 226.641C152.272 227.633 150.52 229.04 148.809 229.445C147.711 229.699 147.057 231.373 149.125 231.179C151.192 230.985 153.423 230.58 154.649 230.425C156.652 230.176 157.341 230.281 158.93 230.132C159.024 230.119 159.115 230.09 159.197 230.044C159.279 229.998 159.35 229.937 159.407 229.865C159.464 229.793 159.506 229.711 159.529 229.624C159.552 229.536 159.557 229.445 159.543 229.356L158.848 225.971C158.833 225.899 158.789 225.836 158.726 225.794C158.663 225.752 158.586 225.734 158.509 225.744L153.96 226.298C153.705 226.337 153.472 226.458 153.3 226.641Z" fill="#BA68C8"/>
<path d="M210.433 232.963C210.494 232.931 210.549 232.888 210.592 232.836C210.636 232.784 210.669 232.724 210.689 232.661C210.708 232.597 210.714 232.53 210.706 232.464C210.699 232.398 210.677 232.334 210.643 232.276L190.004 196.266C189.936 196.149 189.821 196.062 189.685 196.025C189.55 195.988 189.404 196.003 189.28 196.066C189.156 196.131 189.064 196.239 189.023 196.367C188.983 196.496 188.998 196.635 189.064 196.753L209.709 232.763C209.778 232.88 209.892 232.966 210.028 233.004C210.163 233.041 210.309 233.026 210.433 232.963Z" fill="#BA68C8"/>
<g opacity="0.2">
<path d="M210.433 232.963C210.494 232.931 210.549 232.888 210.592 232.836C210.636 232.784 210.669 232.724 210.689 232.661C210.708 232.597 210.714 232.53 210.706 232.464C210.699 232.398 210.677 232.334 210.643 232.276L190.004 196.266C189.936 196.149 189.821 196.062 189.685 196.025C189.55 195.988 189.404 196.003 189.28 196.066C189.156 196.131 189.064 196.239 189.023 196.367C188.983 196.496 188.998 196.635 189.064 196.753L209.709 232.763C209.778 232.88 209.892 232.966 210.028 233.004C210.163 233.041 210.309 233.026 210.433 232.963Z" fill="black"/>
</g>
<path opacity="0.2" d="M200.464 216.625L198.642 213.445L199.249 212.381L201.071 215.561L200.464 216.625Z" fill="black"/>
<path d="M180.935 232.963C181.059 232.898 181.151 232.79 181.192 232.661C181.232 232.533 181.218 232.394 181.151 232.276L160.507 196.266C160.438 196.149 160.323 196.062 160.188 196.025C160.052 195.988 159.907 196.003 159.782 196.066C159.658 196.131 159.566 196.239 159.526 196.367C159.485 196.496 159.5 196.635 159.566 196.753L180.211 232.763C180.28 232.88 180.394 232.966 180.53 233.004C180.665 233.041 180.811 233.026 180.935 232.963Z" fill="#BA68C8"/>
<g opacity="0.2">
<path d="M180.935 232.963C181.059 232.898 181.151 232.79 181.192 232.661C181.232 232.533 181.218 232.394 181.151 232.276L160.507 196.266C160.438 196.149 160.323 196.062 160.188 196.025C160.052 195.988 159.907 196.003 159.782 196.066C159.658 196.131 159.566 196.239 159.526 196.367C159.485 196.496 159.5 196.635 159.566 196.753L180.211 232.763C180.28 232.88 180.394 232.966 180.53 233.004C180.665 233.041 180.811 233.026 180.935 232.963Z" fill="black"/>
</g>
<path opacity="0.2" d="M170.966 216.625L169.144 213.445L169.751 212.381L171.573 215.561L170.966 216.625Z" fill="black"/>
<path d="M160.507 232.763L181.151 196.753C181.218 196.635 181.232 196.496 181.192 196.367C181.151 196.239 181.059 196.131 180.935 196.066C180.811 196.003 180.665 195.988 180.53 196.025C180.394 196.062 180.28 196.149 180.211 196.266L159.566 232.276C159.5 232.394 159.485 232.533 159.526 232.661C159.566 232.79 159.658 232.898 159.782 232.963C159.907 233.026 160.052 233.041 160.188 233.004C160.323 232.966 160.438 232.88 160.507 232.763Z" fill="#BA68C8"/>
<g opacity="0.2">
<path d="M160.507 232.763L181.151 196.753C181.218 196.635 181.232 196.496 181.192 196.367C181.151 196.239 181.059 196.131 180.935 196.066C180.811 196.003 180.665 195.988 180.53 196.025C180.394 196.062 180.28 196.149 180.211 196.266L159.566 232.276C159.5 232.394 159.485 232.533 159.526 232.661C159.566 232.79 159.658 232.898 159.782 232.963C159.907 233.026 160.052 233.041 160.188 233.004C160.323 232.966 160.438 232.88 160.507 232.763Z" fill="black"/>
</g>
<path d="M190.004 232.763L210.643 196.753C210.677 196.695 210.699 196.631 210.706 196.565C210.714 196.499 210.708 196.432 210.689 196.368C210.669 196.304 210.636 196.245 210.592 196.193C210.549 196.141 210.494 196.098 210.433 196.066C210.309 196.003 210.163 195.988 210.028 196.025C209.892 196.062 209.778 196.149 209.709 196.266L189.064 232.276C188.998 232.394 188.983 232.533 189.023 232.661C189.064 232.79 189.156 232.898 189.28 232.963C189.404 233.026 189.55 233.041 189.685 233.004C189.821 232.966 189.936 232.88 190.004 232.763Z" fill="#BA68C8"/>
<g opacity="0.2">
<path d="M190.004 232.763L210.643 196.753C210.677 196.695 210.699 196.631 210.706 196.565C210.714 196.499 210.708 196.432 210.689 196.368C210.669 196.304 210.636 196.245 210.592 196.193C210.549 196.141 210.494 196.098 210.433 196.066C210.309 196.003 210.163 195.988 210.028 196.025C209.892 196.062 209.778 196.149 209.709 196.266L189.064 232.276C188.998 232.394 188.983 232.533 189.023 232.661C189.064 232.79 189.156 232.898 189.28 232.963C189.404 233.026 189.55 233.041 189.685 233.004C189.821 232.966 189.936 232.88 190.004 232.763Z" fill="black"/>
</g>
<path d="M185.636 194.454H161.692C161.33 194.453 160.972 194.52 160.638 194.651C160.303 194.782 159.999 194.974 159.743 195.216C159.487 195.459 159.284 195.747 159.146 196.063C159.007 196.38 158.936 196.72 158.936 197.063H185.66L185.636 194.454Z" fill="#BA68C8"/>
<path d="M202.648 161.042C211.075 161.042 217.073 166.998 216.635 174.931L215.671 192.282C215.599 193.571 215.009 194.785 214.021 195.672C213.033 196.56 211.723 197.054 210.363 197.052H176.491L183.499 174.931C186.01 166.998 194.227 161.042 202.648 161.042Z" fill="#BA68C8"/>
<path opacity="0.3" d="M202.648 161.042C211.075 161.042 217.073 166.998 216.635 174.931L215.671 192.282C215.599 193.571 215.009 194.785 214.021 195.672C213.033 196.56 211.723 197.054 210.363 197.052H176.491L183.499 174.931C186.01 166.998 194.227 161.042 202.648 161.042Z" fill="white"/>
</svg>
