<svg width="22" height="24" viewBox="0 0 22 24" fill="none" xmlns="http://www.w3.org/2000/svg">
<path d="M8.47388 20.9423H13.5233C13.5233 22.1346 12.6182 23.327 10.9986 23.327C9.37899 23.327 8.47388 22.1346 8.47388 20.9423ZM21.403 15.9047L20.0068 13.7038C19.4779 12.8704 19.1989 11.9165 19.1989 10.9472V7.81502C19.1989 3.54775 15.5204 0.0769501 10.9999 0.0769501C6.47937 0.0769501 2.80085 3.54775 2.80085 7.81502V10.9472C2.80085 11.9165 2.52187 12.8704 1.99294 13.7038L0.596767 15.9047C0.17009 16.5748 0.160007 17.3832 0.569011 18.0652C0.978015 18.7472 1.71774 19.1539 2.54711 19.1539H19.4551C20.2858 19.1539 21.0255 18.746 21.4345 18.0652C21.8397 17.3844 21.8296 16.576 21.403 15.9047Z" fill="#FF9A6C"/>
</svg>
