<svg width="169" height="169" viewBox="0 0 169 169" fill="none" xmlns="http://www.w3.org/2000/svg">
<g clip-path="url(#clip0_11_9199)">
<path d="M84.5959 168.998H84.4702C76.1271 168.998 69.3636 162.235 69.3636 153.892V149.205H99.7028V153.892C99.7028 162.235 92.9394 168.998 84.5959 168.998Z" fill="#BA68C8"/>
<path d="M4.95696 54.6832C4.61072 54.6832 4.25953 54.6468 3.90735 54.5706C1.23447 53.9936 -0.464388 51.359 0.112569 48.6862C4.07734 30.3216 14.1955 13.4515 28.603 1.18323C30.685 -0.589564 33.8098 -0.338383 35.5822 1.74302C37.355 3.82508 37.1045 6.9495 35.0225 8.72229C22.2607 19.5891 13.3001 34.524 9.79146 50.7758C9.29075 53.0965 7.23839 54.6832 4.95696 54.6832Z" fill="#BA68C8"/>
<path d="M164.043 54.6829C161.761 54.6829 159.71 53.0966 159.209 50.7759C155.7 34.524 146.739 19.5892 133.978 8.72269C131.896 6.9499 131.645 3.82515 133.418 1.74342C135.191 -0.338647 138.315 -0.589498 140.397 1.18362C154.805 13.4512 164.923 30.3216 168.887 48.6862C169.464 51.3591 167.766 53.9937 165.093 54.5707C164.741 54.6463 164.389 54.6829 164.043 54.6829Z" fill="#BA68C8"/>
<path d="M23.9922 60.4749C23.6889 60.4749 23.3813 60.4469 23.0723 60.3888C20.3849 59.8838 18.6161 57.2957 19.1211 54.6086C21.8385 40.1484 29.4591 26.7912 40.5784 16.9978C42.6301 15.19 45.7588 15.3891 47.566 17.4407C49.3734 19.4928 49.1747 22.6212 47.123 24.4283C37.6531 32.7694 31.1643 44.1369 28.8525 56.4372C28.4056 58.816 26.3271 60.4749 23.9922 60.4749Z" fill="#BA68C8"/>
<path d="M145.008 60.4752C142.673 60.4752 140.594 58.8163 140.148 56.4379C137.836 44.1379 131.348 32.7701 121.878 24.4293C119.826 22.6218 119.628 19.4934 121.435 17.4414C123.242 15.3897 126.371 15.1913 128.423 16.9985C139.541 26.7919 147.161 40.1487 149.879 54.6086C150.384 57.296 148.615 59.8838 145.927 60.3888C145.619 60.4472 145.311 60.4752 145.008 60.4752Z" fill="#BA68C8"/>
<path d="M141.028 119.509C139.853 117.323 138.417 115.266 136.73 113.389C133.183 109.443 131.229 104.349 131.229 99.0436V66.9687C131.229 41.2201 110.282 20.2724 84.5332 20.2724C58.7847 20.2724 37.8369 41.2201 37.8369 66.9687V99.0436C37.8369 104.349 35.8836 109.443 32.3367 113.389C30.6494 115.266 29.2136 117.323 28.0379 119.509H141.028Z" fill="#BA68C8"/>
<path d="M24.6966 129.411C24.4379 131.036 24.2979 132.687 24.2979 134.354V141.433C24.2979 145.718 27.7844 149.205 32.0697 149.205H136.997C141.282 149.205 144.768 145.718 144.768 141.433V134.354C144.768 132.687 144.629 131.036 144.37 129.411H24.6966Z" fill="#BA68C8"/>
<path d="M84.5332 10.3707C87.8751 10.3707 91.185 10.6688 94.4299 11.2451V9.90103C94.4299 4.43511 89.9991 0.00429153 84.5332 0.00429153C79.0673 0.00429153 74.6365 4.43544 74.6365 9.90103V11.2381C77.8507 10.6688 81.1576 10.3707 84.5332 10.3707Z" fill="#BA68C8"/>
</g>
<defs>
<clipPath id="clip0_11_9199">
<rect width="169" height="169" fill="white"/>
</clipPath>
</defs>
</svg>
