<svg width="112" height="112" viewBox="0 0 112 112" fill="none" xmlns="http://www.w3.org/2000/svg">
<path d="M112 85.6576H0V85.7136H112V85.6576Z" fill="#EBEBEB"/>
<path d="M100.778 89.2617H88.406V89.3177H100.778V89.2617Z" fill="#EBEBEB"/>
<path d="M74.032 88.088H72.0854V88.144H74.032V88.088Z" fill="#EBEBEB"/>
<path d="M87.7319 87.183H83.4333V87.239H87.7319V87.183Z" fill="#EBEBEB"/>
<path d="M21.4255 87.5594H11.751V87.6154H21.4255V87.5594Z" fill="#EBEBEB"/>
<path d="M58.4752 89.0064H48.2339V89.0624H58.4752V89.0064Z" fill="#EBEBEB"/>
<path d="M52.4475 88.0589H31.4631V88.1149H52.4475V88.0589Z" fill="#EBEBEB"/>
<path d="M9.83588 75.6672H53.088C53.4273 75.6672 53.7526 75.5324 53.9925 75.2926C54.2323 75.0527 54.3671 74.7274 54.3671 74.3882V13.5878C54.3641 13.2506 54.2281 12.9281 53.9885 12.6907C53.749 12.4532 53.4253 12.32 53.088 12.32H9.83588C9.49705 12.3206 9.17229 12.4556 8.93291 12.6954C8.69353 12.9352 8.55908 13.2602 8.55908 13.599V74.3882C8.55908 74.727 8.69353 75.052 8.93291 75.2918C9.17229 75.5316 9.49705 75.6666 9.83588 75.6672ZM8.61508 13.5878C8.61508 13.2639 8.74363 12.9531 8.97251 12.7238C9.20139 12.4945 9.5119 12.3654 9.83588 12.3648H53.088C53.4122 12.3654 53.723 12.4944 53.9522 12.7237C54.1814 12.9529 54.3105 13.2637 54.3111 13.5878V74.3882C54.3105 74.7123 54.1814 75.0231 53.9522 75.2523C53.723 75.4816 53.4122 75.6106 53.088 75.6112H9.83588C9.5119 75.6106 9.20139 75.4815 8.97251 75.2522C8.74363 75.0229 8.61508 74.7121 8.61508 74.3882V13.5878Z" fill="#EBEBEB"/>
<path d="M58.2871 75.6672H101.541C101.881 75.6672 102.206 75.5324 102.446 75.2926C102.686 75.0527 102.821 74.7274 102.821 74.3882V13.5878C102.818 13.2506 102.682 12.9281 102.442 12.6907C102.202 12.4532 101.879 12.32 101.541 12.32H58.2871C57.9481 12.3206 57.6231 12.4555 57.3833 12.6953C57.1436 12.935 57.0086 13.26 57.0081 13.599V74.3882C57.0086 74.7272 57.1436 75.0522 57.3833 75.2919C57.6231 75.5317 57.9481 75.6666 58.2871 75.6672ZM57.0641 13.5878C57.0646 13.2637 57.1937 12.9529 57.4229 12.7237C57.6522 12.4944 57.9629 12.3654 58.2871 12.3648H101.541C101.866 12.3654 102.176 12.4944 102.406 12.7237C102.635 12.9529 102.764 13.2637 102.765 13.5878V74.3882C102.764 74.7123 102.635 75.0231 102.406 75.2523C102.176 75.4816 101.866 75.6106 101.541 75.6112H58.2871C57.9629 75.6106 57.6522 75.4816 57.4229 75.2523C57.1937 75.0231 57.0646 74.7123 57.0641 74.3882V13.5878Z" fill="#EBEBEB"/>
<path d="M95.2448 15.335H44.1101V44.7328H95.2448V15.335Z" fill="#F5F5F5"/>
<path d="M93.7372 17.5235H70.4255V42.9386H93.7372V17.5235Z" fill="#FAFAFA"/>
<path d="M90.5789 19.3021H86.5514L84.5376 22.7898L86.5514 26.2774H90.5789L92.5926 22.7898L90.5789 19.3021Z" fill="#F0F0F0"/>
<path d="M84.5376 29.7629H80.5123L78.4985 33.2506L80.5123 36.7382H84.5376L86.5513 33.2506L84.5376 29.7629Z" fill="white"/>
<path d="M84.5376 22.7898H80.5123L78.4985 26.2774L80.5123 29.7629H84.5376L86.5513 26.2774L84.5376 22.7898Z" fill="#EBEBEB"/>
<path d="M66.2749 38.0733H47.2349V42.4502H66.2749V38.0733Z" fill="#FAFAFA"/>
<path d="M55.2407 21.0022C55.1844 21.3162 55.0362 21.6063 54.815 21.836C54.5938 22.0657 54.3094 22.2247 53.9978 22.2928C53.6862 22.3609 53.3615 22.3352 53.0646 22.2187C52.7676 22.1023 52.5119 21.9005 52.3297 21.6387C52.1475 21.377 52.0469 21.0671 52.0408 20.7482C52.0347 20.4293 52.1233 20.1158 52.2953 19.8473C52.4673 19.5787 52.7151 19.3672 53.0073 19.2395C53.2996 19.1117 53.6231 19.0735 53.9371 19.1296C54.3581 19.2054 54.7318 19.4452 54.9762 19.7963C55.2206 20.1474 55.3158 20.5811 55.2407 21.0022Z" fill="#EBEBEB"/>
<path d="M52.3845 30.3856C52.3282 30.6995 52.18 30.9897 51.9588 31.2194C51.7376 31.4491 51.4532 31.6081 51.1416 31.6762C50.83 31.7443 50.5053 31.7185 50.2084 31.6021C49.9114 31.4857 49.6557 31.2838 49.4735 31.0221C49.2913 30.7603 49.1907 30.4504 49.1846 30.1316C49.1785 29.8127 49.2671 29.4992 49.4391 29.2306C49.6111 28.9621 49.8589 28.7506 50.1511 28.6228C50.4434 28.4951 50.7669 28.4569 51.0809 28.513C51.2895 28.5502 51.4887 28.6283 51.6671 28.7426C51.8455 28.8569 51.9997 29.0052 52.1208 29.1791C52.2418 29.353 52.3274 29.5491 52.3727 29.7561C52.418 29.9631 52.422 30.177 52.3845 30.3856Z" fill="#EBEBEB"/>
<path d="M60.8135 35.8507C61.704 35.8294 62.4086 35.0902 62.3873 34.1998C62.366 33.3093 61.6268 32.6047 60.7364 32.626C59.8459 32.6473 59.1413 33.3864 59.1626 34.2769C59.1839 35.1673 59.923 35.8719 60.8135 35.8507Z" fill="#EBEBEB"/>
<path d="M64.4717 25.2933C64.9453 24.5389 64.7177 23.5434 63.9633 23.0698C63.2089 22.5962 62.2134 22.8239 61.7398 23.5783C61.2662 24.3326 61.4939 25.3281 62.2483 25.8017C63.0027 26.2753 63.9981 26.0477 64.4717 25.2933Z" fill="#EBEBEB"/>
<path d="M66.8998 23.968C66.8752 24.0979 66.8127 24.2176 66.7203 24.3122C66.6279 24.4067 66.5097 24.472 66.3804 24.4997C66.2512 24.5274 66.1166 24.5163 65.9936 24.4679C65.8706 24.4195 65.7645 24.3359 65.6888 24.2275C65.6131 24.1192 65.571 23.9909 65.5678 23.8587C65.5646 23.7265 65.6005 23.5964 65.671 23.4845C65.7414 23.3726 65.8433 23.284 65.9639 23.2298C66.0844 23.1755 66.2183 23.158 66.3488 23.1795C66.526 23.2117 66.6834 23.3127 66.7866 23.4603C66.8898 23.608 66.9305 23.7905 66.8998 23.968Z" fill="#EBEBEB"/>
<path d="M63.1053 24.7005C63.0388 24.7006 62.9746 24.6759 62.9254 24.6312C62.8762 24.5864 62.8455 24.5249 62.8393 24.4587C62.8331 24.3924 62.8519 24.3263 62.892 24.2732C62.9321 24.2201 62.9906 24.184 63.056 24.1718L66.1808 23.5894C66.2153 23.583 66.2506 23.5833 66.2849 23.5905C66.3192 23.5977 66.3517 23.6116 66.3806 23.6314C66.4095 23.6511 66.4342 23.6764 66.4534 23.7057C66.4725 23.735 66.4857 23.7678 66.4922 23.8022C66.4987 23.8367 66.4983 23.872 66.4911 23.9063C66.4839 23.9406 66.47 23.9731 66.4503 24.002C66.4305 24.0309 66.4053 24.0556 66.3759 24.0748C66.3466 24.0939 66.3138 24.1071 66.2794 24.1136L63.1546 24.696C63.1384 24.6997 63.1219 24.7012 63.1053 24.7005Z" fill="#EBEBEB"/>
<path d="M49.3674 25.6458C49.4991 25.657 49.6245 25.7068 49.7281 25.789C49.8316 25.8712 49.9085 25.9821 49.9494 26.1079C49.9902 26.2336 49.993 26.3685 49.9575 26.4959C49.922 26.6232 49.8497 26.7372 49.7497 26.8237C49.6497 26.9101 49.5264 26.9652 49.3953 26.9819C49.2642 26.9987 49.1311 26.9764 49.0126 26.9178C48.8941 26.8593 48.7954 26.7671 48.7291 26.6528C48.6627 26.5385 48.6315 26.4071 48.6394 26.2752C48.6447 26.1857 48.668 26.0981 48.7077 26.0177C48.7474 25.9373 48.8028 25.8656 48.8707 25.807C48.9385 25.7483 49.0174 25.7038 49.1027 25.6761C49.188 25.6485 49.278 25.6381 49.3674 25.6458Z" fill="#EBEBEB"/>
<path d="M50.7965 30.3677C50.7428 30.3671 50.6906 30.3506 50.6463 30.3203C50.6021 30.29 50.5678 30.2472 50.5478 30.1974L49.0694 26.432C49.0566 26.3993 49.0504 26.3645 49.0511 26.3294C49.0517 26.2944 49.0593 26.2598 49.0734 26.2276C49.0874 26.1955 49.1076 26.1664 49.1329 26.1421C49.1582 26.1178 49.188 26.0987 49.2206 26.0859C49.2533 26.0731 49.2881 26.0669 49.3232 26.0676C49.3583 26.0682 49.3929 26.0758 49.425 26.0898C49.4571 26.1039 49.4862 26.1241 49.5105 26.1494C49.5348 26.1747 49.5539 26.2045 49.5667 26.2371L51.0451 30.0138C51.0708 30.08 51.0691 30.1537 51.0406 30.2188C51.0121 30.2838 50.9589 30.335 50.8928 30.361C50.8613 30.3685 50.8287 30.3708 50.7965 30.3677Z" fill="#EBEBEB"/>
<path d="M60.4196 27.9485C60.3583 28.2904 60.1969 28.6064 59.956 28.8567C59.715 29.1069 59.4053 29.28 59.066 29.3542C58.7266 29.4284 58.3729 29.4002 58.0495 29.2734C57.7261 29.1465 57.4477 28.9265 57.2493 28.6414C57.0509 28.3562 56.9416 28.0186 56.9351 27.6713C56.9286 27.324 57.0253 26.9826 57.2129 26.6902C57.4005 26.3979 57.6705 26.1677 57.9889 26.0288C58.3073 25.8899 58.6598 25.8486 59.0016 25.9101C59.4599 25.9924 59.8668 26.2535 60.1326 26.6357C60.3985 27.018 60.5018 27.4902 60.4196 27.9485Z" fill="#EBEBEB"/>
<path d="M50.7965 30.3677C50.7397 30.3677 50.6844 30.3494 50.6388 30.3155C50.5932 30.2816 50.5597 30.2339 50.5434 30.1795C50.5223 30.1121 50.5289 30.0391 50.5617 29.9765C50.5944 29.9139 50.6507 29.8669 50.7181 29.8458L58.2579 27.496L53.4374 20.8746C53.4144 20.8465 53.3974 20.8141 53.3874 20.7792C53.3774 20.7443 53.3746 20.7078 53.3792 20.6718C53.3838 20.6358 53.3957 20.6012 53.4142 20.57C53.4326 20.5387 53.4573 20.5116 53.4866 20.4902C53.5159 20.4689 53.5492 20.4537 53.5846 20.4457C53.62 20.4376 53.6566 20.4369 53.6923 20.4435C53.7279 20.4502 53.7619 20.464 53.792 20.4842C53.8221 20.5044 53.8478 20.5305 53.8675 20.561L58.9075 27.4826C58.9322 27.5167 58.9485 27.5562 58.9551 27.5979C58.9618 27.6395 58.9585 27.6821 58.9456 27.7222C58.9323 27.7626 58.9095 27.7991 58.879 27.8287C58.8486 27.8584 58.8115 27.8802 58.7709 27.8925L50.8749 30.3565C50.8496 30.3648 50.8231 30.3686 50.7965 30.3677Z" fill="#EBEBEB"/>
<path d="M60.7734 34.496C60.7168 34.4961 60.6617 34.4782 60.6162 34.4447C60.5706 34.4112 60.537 34.3641 60.5202 34.3101L58.437 27.7088C58.4207 27.6554 58.4214 27.5982 58.4391 27.5452C58.4567 27.4922 58.4905 27.4461 58.5356 27.4131L62.9484 24.2099C63.0056 24.173 63.0748 24.1593 63.1417 24.1717C63.2087 24.1842 63.2683 24.2217 63.3084 24.2768C63.3486 24.3318 63.3661 24.4001 63.3575 24.4676C63.3488 24.5352 63.3147 24.5968 63.262 24.64L59.006 27.7334L61.022 34.151C61.0424 34.2185 61.0356 34.2912 61.0029 34.3536C60.9702 34.4161 60.9143 34.4632 60.8473 34.4848C60.8233 34.4922 60.7984 34.496 60.7734 34.496Z" fill="#EBEBEB"/>
<path d="M95.2469 44.7306H95.9189V15.3328H95.2469V44.7306Z" fill="#E6E6E6"/>
<path d="M30.3743 68.9181H14.1925C13.6794 68.918 13.1847 69.1091 12.8049 69.4541C12.4251 69.7991 12.1875 70.2732 12.1385 70.784L10.7295 85.6576H33.8373L32.4284 70.784C32.3793 70.2732 32.1417 69.7991 31.7619 69.4541C31.3821 69.1091 30.8874 68.918 30.3743 68.9181Z" fill="#EBEBEB"/>
<path d="M30.4013 22.7898H14.1636V68.9181H30.4013V22.7898Z" fill="#F5F5F5"/>
<path d="M30.5873 20.7178H13.9777C13.6202 20.7178 13.3303 21.0076 13.3303 21.3651V22.1424C13.3303 22.4999 13.6202 22.7898 13.9777 22.7898H30.5873C30.9448 22.7898 31.2346 22.4999 31.2346 22.1424V21.3651C31.2346 21.0076 30.9448 20.7178 30.5873 20.7178Z" fill="#EBEBEB"/>
<path d="M22.2835 13.9664C20.3313 13.9664 18.4591 14.7419 17.0787 16.1223C15.6983 17.5027 14.9229 19.3749 14.9229 21.327H29.6419C29.6419 19.3753 28.8667 17.5034 27.4868 16.1231C26.1069 14.7428 24.2353 13.967 22.2835 13.9664Z" fill="#EBEBEB"/>
<path d="M20.3102 60.928C21.671 60.928 22.7742 59.8248 22.7742 58.464C22.7742 57.1032 21.671 56 20.3102 56C18.9494 56 17.8462 57.1032 17.8462 58.464C17.8462 59.8248 18.9494 60.928 20.3102 60.928Z" fill="#FAFAFA"/>
<path d="M23.9277 52.6781C24.6898 52.6781 25.3075 52.0603 25.3075 51.2982C25.3075 50.5362 24.6898 49.9184 23.9277 49.9184C23.1656 49.9184 22.5479 50.5362 22.5479 51.2982C22.5479 52.0603 23.1656 52.6781 23.9277 52.6781Z" fill="#FAFAFA"/>
<path d="M24.3912 31.8013C25.7521 31.8013 26.8552 30.6981 26.8552 29.3373C26.8552 27.9765 25.7521 26.8733 24.3912 26.8733C23.0304 26.8733 21.9272 27.9765 21.9272 29.3373C21.9272 30.6981 23.0304 31.8013 24.3912 31.8013Z" fill="#FAFAFA"/>
<path d="M18.6076 44.0294C18.8805 44.0294 19.1473 44.1104 19.3742 44.262C19.6011 44.4136 19.778 44.6291 19.8824 44.8812C19.9869 45.1334 20.0142 45.4108 19.9609 45.6785C19.9077 45.9461 19.7763 46.192 19.5833 46.385C19.3903 46.5779 19.1445 46.7094 18.8768 46.7626C18.6092 46.8158 18.3317 46.7885 18.0796 46.6841C17.8274 46.5796 17.6119 46.4028 17.4603 46.1759C17.3087 45.949 17.2278 45.6822 17.2278 45.4093C17.2278 45.0433 17.3732 44.6924 17.6319 44.4336C17.8907 44.1748 18.2417 44.0294 18.6076 44.0294Z" fill="#FAFAFA"/>
<path d="M22.7742 39.4352C23.269 39.4352 23.6702 39.0341 23.6702 38.5392C23.6702 38.0444 23.269 37.6432 22.7742 37.6432C22.2793 37.6432 21.8782 38.0444 21.8782 38.5392C21.8782 39.0341 22.2793 39.4352 22.7742 39.4352Z" fill="#FAFAFA"/>
<path d="M58.762 85.6576V53.6368H41.5968V85.6576H58.762Z" fill="#F0F0F0"/>
<path d="M56.1455 63.9565V54.5709H44.2175V63.9565H56.1455Z" fill="#F5F5F5"/>
<path d="M56.1455 74.1843V64.7987H44.2175V74.1843H56.1455Z" fill="#F5F5F5"/>
<path d="M56.1455 84.4144V75.0288H44.2175V84.4144H56.1455Z" fill="#F5F5F5"/>
<path d="M52.0173 54.4477H48.3438C48.3437 54.5755 48.369 54.7021 48.418 54.8202C48.467 54.9383 48.5388 55.0456 48.6293 55.1359C48.7198 55.2262 48.8272 55.2978 48.9454 55.3465C49.0636 55.3952 49.1903 55.4201 49.3181 55.4198H51.0452C51.303 55.4198 51.5503 55.3174 51.7326 55.1351C51.9149 54.9528 52.0173 54.7055 52.0173 54.4477Z" fill="#E6E6E6"/>
<path d="M52.0173 64.6755H48.3438C48.3438 64.8035 48.369 64.9302 48.4179 65.0484C48.4669 65.1666 48.5387 65.274 48.6291 65.3645C48.7196 65.455 48.827 65.5268 48.9453 65.5757C49.0635 65.6247 49.1902 65.6499 49.3181 65.6499H51.0452C51.173 65.6499 51.2996 65.6247 51.4177 65.5757C51.5358 65.5267 51.6431 65.4549 51.7334 65.3644C51.8237 65.2739 51.8953 65.1664 51.944 65.0482C51.9927 64.93 52.0176 64.8034 52.0173 64.6755Z" fill="#E6E6E6"/>
<path d="M52.0173 74.9034H48.3438C48.3438 75.1618 48.4464 75.4096 48.6291 75.5924C48.8119 75.7751 49.0597 75.8778 49.3181 75.8778H51.0452C51.173 75.8778 51.2996 75.8525 51.4177 75.8035C51.5358 75.7546 51.6431 75.6827 51.7334 75.5922C51.8237 75.5017 51.8953 75.3943 51.944 75.2761C51.9927 75.1579 52.0176 75.0312 52.0173 74.9034Z" fill="#E6E6E6"/>
<path d="M63.5667 85.6553V53.6346H58.7641V85.6553H63.5667Z" fill="#E6E6E6"/>
<path d="M92.4448 85.6553V53.6346H59.8685V85.6553H92.4448Z" fill="#F0F0F0"/>
<path d="M87.0443 50.5344V48.8992C87.063 48.894 87.0797 48.8829 87.0918 48.8676C87.1038 48.8523 87.1108 48.8336 87.1115 48.8141C87.1115 48.7903 87.102 48.7675 87.0852 48.7507C87.0684 48.7339 87.0456 48.7245 87.0219 48.7245H86.1595C86.1384 48.7252 86.1183 48.7334 86.1027 48.7474C86.087 48.7615 86.0768 48.7807 86.0739 48.8015C86.071 48.8224 86.0755 48.8436 86.0866 48.8614C86.0977 48.8793 86.1148 48.8927 86.1348 48.8992V50.5344C85.7706 50.6436 85.4579 50.8801 85.2537 51.2008C85.0495 51.5215 84.9675 51.905 85.0226 52.2812C85.0778 52.6574 85.2664 53.0011 85.5541 53.2497C85.8418 53.4983 86.2093 53.6351 86.5895 53.6351C86.9697 53.6351 87.3373 53.4983 87.6249 53.2497C87.9126 53.0011 88.1013 52.6574 88.1565 52.2812C88.2116 51.905 88.1296 51.5215 87.9254 51.2008C87.7212 50.8801 87.4085 50.6436 87.0443 50.5344Z" fill="#F0F0F0"/>
<path d="M84.6898 51.0518V50.4C84.7075 50.3956 84.7229 50.3848 84.7331 50.3697C84.7433 50.3546 84.7476 50.3362 84.7451 50.3181C84.7426 50.3001 84.7335 50.2836 84.7196 50.2718C84.7057 50.26 84.6879 50.2538 84.6696 50.2544H83.9506C83.931 50.2544 83.9122 50.2622 83.8983 50.276C83.8845 50.2899 83.8767 50.3087 83.8767 50.3283C83.8762 50.3446 83.8812 50.3606 83.891 50.3736C83.9008 50.3866 83.9147 50.3959 83.9304 50.4V51.0541C83.6266 51.1452 83.3656 51.3426 83.1952 51.6103C83.0249 51.8779 82.9565 52.1979 83.0025 52.5118C83.0486 52.8257 83.206 53.1126 83.4461 53.32C83.6862 53.5274 83.9929 53.6416 84.3101 53.6416C84.6274 53.6416 84.9341 53.5274 85.1741 53.32C85.4142 53.1126 85.5717 52.8257 85.6177 52.5118C85.6638 52.1979 85.5954 51.8779 85.425 51.6103C85.2547 51.3426 84.9937 51.1452 84.6898 51.0541V51.0518Z" fill="#F0F0F0"/>
<path d="M90.87 50.848V47.7389C90.8929 47.7338 90.9134 47.721 90.9281 47.7027C90.9427 47.6843 90.9507 47.6616 90.9507 47.6381C90.9501 47.6097 90.9386 47.5827 90.9185 47.5627C90.8985 47.5426 90.8715 47.5311 90.8431 47.5306H89.8239C89.7954 47.5306 89.7681 47.5419 89.7479 47.5621C89.7277 47.5822 89.7164 47.6096 89.7164 47.6381C89.7162 47.6613 89.7239 47.6838 89.7381 47.7021C89.7523 47.7204 89.7723 47.7333 89.7948 47.7389V50.848C89.7902 51.104 89.7288 51.3558 89.6149 51.5852C89.501 51.8145 89.3375 52.0157 89.1363 52.1741C88.8974 52.3708 88.7105 52.623 88.5919 52.9088C88.5599 52.9894 88.5483 53.0767 88.558 53.1629C88.5677 53.2492 88.5985 53.3317 88.6477 53.4032C88.6968 53.4746 88.7628 53.533 88.8398 53.5729C88.9168 53.6129 89.0025 53.6333 89.0892 53.6323H91.5868C91.6736 53.6331 91.7592 53.6126 91.8362 53.5727C91.9132 53.5327 91.9792 53.4745 92.0285 53.4031C92.0778 53.3317 92.1089 53.2493 92.1189 53.1631C92.129 53.077 92.1178 52.9896 92.0863 52.9088C91.9669 52.6229 91.7792 52.3707 91.5398 52.1741C91.3369 52.0165 91.1715 51.8158 91.0557 51.5864C90.9398 51.3571 90.8764 51.1049 90.87 50.848Z" fill="#F0F0F0"/>
<path d="M89.8262 63.9565V54.5709H62.487V63.9565H89.8262Z" fill="#F5F5F5"/>
<path d="M89.8284 74.1866V64.801H62.4892V74.1866H89.8284Z" fill="#F5F5F5"/>
<path d="M89.8284 84.4144V75.0288H62.4892V84.4144H89.8284Z" fill="#F5F5F5"/>
<path d="M77.9946 54.4477H74.321C74.321 54.5755 74.3463 54.7021 74.3953 54.8202C74.4443 54.9383 74.5161 55.0456 74.6066 55.1359C74.6971 55.2262 74.8045 55.2978 74.9227 55.3465C75.0409 55.3952 75.1676 55.4201 75.2954 55.4198H77.0225C77.2803 55.4198 77.5276 55.3174 77.7099 55.1351C77.8922 54.9528 77.9946 54.7055 77.9946 54.4477Z" fill="#E6E6E6"/>
<path d="M77.9946 64.6755H74.321C74.321 64.8035 74.3462 64.9302 74.3952 65.0484C74.4442 65.1666 74.516 65.274 74.6064 65.3645C74.6969 65.455 74.8043 65.5268 74.9226 65.5757C75.0408 65.6247 75.1675 65.6499 75.2954 65.6499H77.0225C77.1503 65.6499 77.2769 65.6247 77.395 65.5757C77.5131 65.5267 77.6204 65.4549 77.7107 65.3644C77.801 65.2739 77.8726 65.1664 77.9213 65.0482C77.97 64.93 77.9949 64.8034 77.9946 64.6755Z" fill="#E6E6E6"/>
<path d="M77.9946 74.9034H74.321C74.321 75.1618 74.4237 75.4096 74.6064 75.5924C74.7892 75.7751 75.037 75.8778 75.2954 75.8778H77.0225C77.1503 75.8778 77.2769 75.8525 77.395 75.8035C77.5131 75.7546 77.6204 75.6827 77.7107 75.5922C77.801 75.5017 77.8726 75.3943 77.9213 75.2761C77.97 75.1579 77.9949 75.0312 77.9946 74.9034Z" fill="#E6E6E6"/>
<path d="M97.2473 85.6576V53.6368H92.4448V85.6576H97.2473Z" fill="#E6E6E6"/>
<path d="M56 95.7734C79.9864 95.7734 99.4313 94.6382 99.4313 93.2378C99.4313 91.8373 79.9864 90.7021 56 90.7021C32.0135 90.7021 12.5686 91.8373 12.5686 93.2378C12.5686 94.6382 32.0135 95.7734 56 95.7734Z" fill="#F5F5F5"/>
<path d="M68.656 25.0387C67.4397 24.4541 64.503 25.3859 65.1504 27.6774C65.6992 29.624 64.1289 30.7014 65.4617 31.808C66.7945 32.9146 64.2701 35.4301 69.8275 35.2061C74.4195 35.0179 76.1376 33.1699 75.8195 31.593C75.4208 29.6083 73.7094 30.193 73.8393 28.8602C73.9693 27.5274 68.656 25.0387 68.656 25.0387Z" fill="#263238"/>
<path d="M68.6043 38.976C68.5394 39.1552 68.4901 39.2851 68.4296 39.4374C68.3691 39.5898 68.3109 39.7242 68.2482 39.8653C68.1272 40.1498 67.9906 40.4275 67.8539 40.703C67.5738 41.2622 67.2612 41.8045 66.9176 42.327C66.5621 42.8757 66.162 43.3941 65.7214 43.8771C65.4864 44.1365 65.2343 44.3797 64.9666 44.6051C64.8299 44.7216 64.6798 44.8291 64.5297 44.9434L64.2901 45.1046L64.1333 45.201C64.075 45.2368 64.0168 45.2659 63.9586 45.2973C63.5441 45.5002 63.0948 45.6226 62.6347 45.6579C62.2617 45.6891 61.8865 45.6831 61.5147 45.64C60.8625 45.5575 60.2206 45.4074 59.5995 45.192C58.4443 44.7897 57.3417 44.2497 56.3157 43.5837L57.0078 42.112C58.0536 42.4038 59.1147 42.6371 60.1864 42.8109C60.673 42.8884 61.1654 42.9229 61.6581 42.9139C61.8572 42.9115 62.0555 42.8874 62.2494 42.8422C62.3627 42.8203 62.4698 42.7736 62.563 42.7056C62.563 42.7056 62.563 42.7056 62.563 42.6922L62.5854 42.672L62.693 42.5779C62.7646 42.5085 62.8386 42.4413 62.917 42.3539C63.0626 42.1994 63.2082 42.0269 63.3515 41.8432C63.6471 41.4477 63.9187 41.0348 64.1646 40.6067C64.4178 40.1587 64.6642 39.6995 64.8926 39.2246C65.0091 39.0006 65.1166 38.7475 65.2286 38.5078L65.3899 38.1494L65.5355 37.8134L68.6043 38.976Z" fill="#BA68C8"/>
<path opacity="0.8" d="M68.6043 38.976C68.5394 39.1552 68.4901 39.2851 68.4296 39.4374C68.3691 39.5898 68.3109 39.7242 68.2482 39.8653C68.1272 40.1498 67.9906 40.4275 67.8539 40.703C67.5738 41.2622 67.2612 41.8045 66.9176 42.327C66.5621 42.8757 66.162 43.3941 65.7214 43.8771C65.4864 44.1365 65.2343 44.3797 64.9666 44.6051C64.8299 44.7216 64.6798 44.8291 64.5297 44.9434L64.2901 45.1046L64.1333 45.201C64.075 45.2368 64.0168 45.2659 63.9586 45.2973C63.5441 45.5002 63.0948 45.6226 62.6347 45.6579C62.2617 45.6891 61.8865 45.6831 61.5147 45.64C60.8625 45.5575 60.2206 45.4074 59.5995 45.192C58.4443 44.7897 57.3417 44.2497 56.3157 43.5837L57.0078 42.112C58.0536 42.4038 59.1147 42.6371 60.1864 42.8109C60.673 42.8884 61.1654 42.9229 61.6581 42.9139C61.8572 42.9115 62.0555 42.8874 62.2494 42.8422C62.3627 42.8203 62.4698 42.7736 62.563 42.7056C62.563 42.7056 62.563 42.7056 62.563 42.6922L62.5854 42.672L62.693 42.5779C62.7646 42.5085 62.8386 42.4413 62.917 42.3539C63.0626 42.1994 63.2082 42.0269 63.3515 41.8432C63.6471 41.4477 63.9187 41.0348 64.1646 40.6067C64.4178 40.1587 64.6642 39.6995 64.8926 39.2246C65.0091 39.0006 65.1166 38.7475 65.2286 38.5078L65.3899 38.1494L65.5355 37.8134L68.6043 38.976Z" fill="white"/>
<path d="M56.9453 43.3686L55.6394 43.5344V41.776C55.6394 41.776 56.9341 41.9261 57.4784 42.5757L56.9453 43.3686Z" fill="#FFB573"/>
<path d="M54.0376 43.4291L54.2168 42.2262L55.6437 41.776L55.6392 43.5344L54.0376 43.4291Z" fill="#FFB573"/>
<path opacity="0.2" d="M55.9372 43.7965V41.5565C55.969 41.552 55.9977 41.5351 56.017 41.5095C56.0364 41.4839 56.0447 41.4516 56.0403 41.4198C56.0358 41.3881 56.0189 41.3593 55.9933 41.34C55.9677 41.3207 55.9354 41.3123 55.9036 41.3168H54.7209C54.6898 41.314 54.6588 41.3233 54.6344 41.3429C54.6101 41.3624 54.5942 41.3906 54.5901 41.4216C54.5861 41.4526 54.5942 41.4839 54.6127 41.509C54.6312 41.5342 54.6588 41.5512 54.6895 41.5565V43.7965C54.1905 43.9462 53.7619 44.2705 53.4822 44.7101C53.2025 45.1497 53.0902 45.6752 53.1658 46.1907C53.2415 46.7062 53.5001 47.1773 53.8944 47.518C54.2887 47.8586 54.7923 48.046 55.3134 48.046C55.8344 48.046 56.3381 47.8586 56.7324 47.518C57.1267 47.1773 57.3853 46.7062 57.4609 46.1907C57.5366 45.6752 57.4243 45.1497 57.1446 44.7101C56.8648 44.2705 56.4363 43.9462 55.9372 43.7965Z" fill="#BA68C8"/>
<path opacity="0.5" d="M57.2477 46.2134C57.191 46.6863 56.9633 47.1221 56.6075 47.4387C56.2518 47.7553 55.7924 47.9308 55.3162 47.9322C54.8399 47.9336 54.3796 47.7607 54.022 47.4462C53.6644 47.1317 53.4342 46.6972 53.3748 46.2246C54.6672 46.6771 55.9597 45.761 57.2477 46.2134Z" fill="#BA68C8"/>
<path opacity="0.7" d="M53.3748 46.2134C53.4314 46.6863 53.6591 47.1221 54.0149 47.4387C54.3707 47.7553 54.83 47.9308 55.3063 47.9322C55.7825 47.9336 56.2429 47.7607 56.6005 47.4462C56.9581 47.1317 57.1883 46.6972 57.2477 46.2246C55.9575 46.6771 54.656 45.761 53.3748 46.2134Z" fill="#BA68C8"/>
<path d="M73.9603 90.5363L71.8816 90.7334L71.7271 85.9712L73.808 85.7763L73.9603 90.5363Z" fill="#FFB573"/>
<path d="M85.6621 88.0051L83.7559 88.8406L82.0535 84.3786L83.9597 83.5408L85.6621 88.0051Z" fill="#FFB573"/>
<path d="M83.4824 88.48L85.3595 87.0845C85.3913 87.0569 85.4328 87.0431 85.4748 87.046C85.5168 87.049 85.5559 87.0684 85.5835 87.1002L86.8514 88.4442C86.8824 88.4799 86.9056 88.5217 86.9196 88.5669C86.9335 88.6121 86.9379 88.6598 86.9324 88.7068C86.9269 88.7538 86.9117 88.7991 86.8877 88.8399C86.8638 88.8807 86.8315 88.916 86.7931 88.9437C86.1323 89.4186 85.7896 89.6157 84.963 90.2272C84.4546 90.6058 83.3838 91.5152 82.6827 92.0371C81.9816 92.559 81.453 91.887 81.6994 91.607C82.8194 90.3504 83.1061 89.4992 83.2853 88.7981C83.3115 88.6722 83.3813 88.5595 83.4824 88.48Z" fill="#263238"/>
<path d="M71.709 90.1152H74.173C74.2167 90.1153 74.259 90.1299 74.2935 90.1566C74.3279 90.1834 74.3525 90.2208 74.3634 90.263L74.8428 92.2074C74.8541 92.2541 74.8545 92.3029 74.844 92.3499C74.8336 92.3969 74.8125 92.4408 74.7825 92.4784C74.7525 92.516 74.7142 92.5463 74.6707 92.5668C74.6272 92.5874 74.5796 92.5978 74.5314 92.5971C73.6668 92.5971 73.2546 92.5344 72.175 92.5344C71.503 92.5344 69.7916 92.5994 68.8732 92.5994C67.9548 92.5994 67.8137 91.6922 68.1878 91.6093C69.8633 91.2419 70.8377 90.7334 71.3641 90.2496C71.4588 90.1641 71.5815 90.1163 71.709 90.1152Z" fill="#263238"/>
<path opacity="0.2" d="M71.7271 85.9734L71.8055 88.4262H73.8931L73.808 85.7763L71.7271 85.9734Z" fill="black"/>
<path opacity="0.2" d="M83.9597 83.543L82.0535 84.3786L82.9315 86.679L84.8378 85.8435L83.9597 83.543Z" fill="black"/>
<path d="M77.356 46.751L69.198 48.8186C67.2021 43.8525 66.2367 40.9539 65.782 39.265C65.612 38.6314 65.6771 37.9577 65.9654 37.3684C66.2536 36.7792 66.7454 36.3142 67.35 36.0595C67.6143 35.9475 67.892 35.8355 68.172 35.7258C68.3781 35.6451 68.5887 35.5667 68.7948 35.5018C70.006 35.1013 71.2441 34.7869 72.4997 34.561C72.6834 34.5229 72.8693 34.4893 73.053 34.4579H73.1C73.4727 34.3965 73.854 34.4135 74.2196 34.5079C74.5853 34.6022 74.9273 34.7718 75.2237 35.0058C75.5201 35.2398 75.7644 35.5331 75.941 35.8669C76.1177 36.2007 76.2227 36.5676 76.2495 36.9443C76.4556 39.8138 76.8364 44.2086 77.3695 46.7667" fill="#BA68C8"/>
<path d="M71.3484 32.1462C71.5209 33.1654 71.8591 34.1869 72.493 34.5542C72.493 34.5542 72.6566 35.4054 70.6025 37.2064C70.4384 37.3525 70.2263 37.4332 70.0066 37.4332C69.7869 37.4332 69.5749 37.3525 69.4108 37.2064C68.2258 36.1155 68.7881 35.4973 68.7881 35.4973C70.047 34.841 69.8745 33.9494 69.1846 32.5606L70.15 31.8886C70.2267 31.7843 70.332 31.7044 70.4531 31.6585C70.5741 31.6126 70.7059 31.6027 70.8325 31.6299C70.9591 31.6571 71.0751 31.7203 71.1667 31.8119C71.2582 31.9035 71.3213 32.0196 71.3484 32.1462Z" fill="#FFB573"/>
<path opacity="0.2" d="M70.1523 31.8797C70.2247 31.7816 70.3225 31.7051 70.4352 31.6584C70.5478 31.6116 70.671 31.5964 70.7916 31.6144C70.9122 31.6323 71.0257 31.6828 71.1198 31.7603C71.214 31.8378 71.2852 31.9395 71.326 32.0544C71.0136 32.888 70.452 33.6052 69.7177 34.1085C69.6378 33.5624 69.457 33.036 69.1846 32.5562L70.1523 31.8797Z" fill="black"/>
<path d="M71.5454 27.9395C71.9688 29.969 72.1928 30.8179 71.4872 32.1373C70.4254 34.1197 67.9032 34.2406 66.8862 32.3882C65.9768 30.7216 65.4347 27.6842 67.1259 26.3155C68.8171 24.9469 71.1198 25.9078 71.5454 27.9395Z" fill="#FFB573"/>
<path d="M66.6936 31.4406C66.5898 31.4323 66.4886 31.4035 66.3959 31.3558C66.3032 31.3081 66.221 31.2426 66.1538 31.1629C65.9249 30.8996 65.7559 30.5899 65.6585 30.255C65.561 29.92 65.5374 29.568 65.5893 29.223C65.586 29.0926 65.6259 28.9647 65.7029 28.8593C65.7799 28.7539 65.8895 28.6769 66.0148 28.6404C66.1401 28.6038 66.2739 28.6097 66.3955 28.6572C66.5171 28.7046 66.6195 28.791 66.6869 28.9027C66.9222 29.1623 67.0926 29.474 67.1842 29.8122C67.288 30.1462 67.3111 30.5001 67.2514 30.8448C67.2401 30.9712 67.1942 31.0919 67.1187 31.1939C67.0432 31.2959 66.9411 31.375 66.8236 31.4227C66.7812 31.4345 66.7375 31.4405 66.6936 31.4406ZM66.1471 28.7347C66.113 28.7346 66.0791 28.7391 66.0463 28.7482C65.9486 28.7919 65.8646 28.8612 65.8031 28.9487C65.7416 29.0362 65.7049 29.1388 65.6968 29.2454C65.6487 29.5728 65.6716 29.9067 65.7639 30.2244C65.8563 30.5421 66.016 30.8362 66.2322 31.0867C66.2852 31.1839 66.3699 31.26 66.472 31.3025C66.5742 31.345 66.6879 31.3514 66.7942 31.3206C66.9005 31.2898 66.9931 31.2236 67.0567 31.133C67.1202 31.0424 67.151 30.9329 67.1439 30.8224C67.1998 30.4948 67.1775 30.1586 67.0789 29.8413C66.9917 29.521 66.8306 29.2256 66.6085 28.9789C66.4928 28.84 66.327 28.7523 66.1471 28.7347Z" fill="white"/>
<path d="M70.8244 28.1613C70.4637 28.4614 70.97 30.3453 71.9242 30.0429C72.8785 29.7405 72.0071 27.1779 70.8244 28.1613Z" fill="#263238"/>
<path d="M71.697 28.8445L69.2778 29.1394L69.2914 29.2505L71.7106 28.9556L71.697 28.8445Z" fill="white"/>
<path d="M68.5438 30.912C68.3104 30.903 68.0872 30.8136 67.9121 30.6589C67.6305 30.4105 67.428 30.085 67.3297 29.7226C67.1057 28.9229 67.3566 28.1411 67.9077 27.9798C68.4587 27.8186 69.0993 28.3405 69.3323 29.1402C69.5563 29.9421 69.3054 30.7238 68.7521 30.8829C68.6845 30.9027 68.6143 30.9125 68.5438 30.912ZM68.116 28.0627C68.0562 28.0632 67.9967 28.0715 67.939 28.0874C67.4485 28.2307 67.2222 28.9498 67.4373 29.6912C67.5288 30.0321 67.7189 30.3383 67.9838 30.5715C68.0801 30.664 68.1979 30.7311 68.3265 30.7666C68.4552 30.8022 68.5907 30.8052 68.7208 30.7754C69.2136 30.632 69.4398 29.913 69.2248 29.1715C69.0299 28.5085 68.5595 28.0538 68.1115 28.0538L68.116 28.0627Z" fill="white"/>
<path d="M72.493 29.6621C72.5057 30.0639 72.362 30.455 72.0921 30.753C71.7314 31.1427 71.2879 30.8851 71.167 30.3946C71.0572 29.9466 71.1132 29.223 71.5814 29.0147C72.0495 28.8064 72.4751 29.1693 72.493 29.6621Z" fill="#FFB573"/>
<path d="M68.6559 24.7901C66.0217 25.9235 66.6579 27.7021 69.3055 28.3002C70.775 28.6272 72.3228 29.4202 72.3878 30.2736C72.4527 31.127 74.9862 28.2419 73.4742 27.4534C71.9622 26.665 71.9599 23.3677 68.6559 24.7901Z" fill="#263238"/>
<path d="M67.442 26.0221C67.5338 27.0122 65.93 29.6307 64.0461 28.103C65.0833 28.1456 65.2266 27.4557 65.6589 26.376C66.0577 25.3859 67.3345 24.864 67.442 26.0221Z" fill="#263238"/>
<path d="M69.198 48.8186C69.198 48.8186 69.2473 59.3622 69.2294 67.4621C69.2159 73.9021 71.1132 87.4653 71.1132 87.4653L74.126 87.1651C74.126 87.1651 74.126 72.5603 73.5481 67.9638C75.4274 58.9053 78.4134 50.2835 75.75 47.1117L69.198 48.8186Z" fill="#263238"/>
<path d="M74.6165 86.4304L70.645 86.5514L70.8623 87.9088L74.5785 87.8528L74.6165 86.4304Z" fill="#BA68C8"/>
<path opacity="0.3" d="M73.416 54.8038L76.72 52.7005C76.4153 55.9126 75.3625 59.9805 74.3568 64.3194C73.248 60.9683 72.6387 57.4426 73.416 54.8038Z" fill="black"/>
<path d="M70.9856 48.384C70.9856 48.384 74.2762 58.3206 75.8262 66.1226C76.2259 68.1431 76.7457 70.138 77.383 72.0966C79.399 78.2992 82.0333 85.7248 82.0333 85.7248L84.6227 84.5085C84.6227 84.5085 82.497 71.7987 80.7072 67.4845C80.6378 58.4214 80.7901 49.7459 77.3472 46.7466L70.9856 48.384Z" fill="#263238"/>
<path d="M72.6745 34.4826C72.6745 34.4826 72.278 44.1594 75.0668 56.5734C78.6508 56.1859 80.8124 55.0838 80.8124 55.0838C80.8124 55.0838 78.7964 46.9146 78.1244 43.6307C77.6271 41.2205 76.9618 37.3722 76.6437 35.4928C76.5866 35.1633 76.422 34.862 76.1756 34.6359C75.9293 34.4098 75.615 34.2716 75.2818 34.2429C74.5919 34.1846 73.6399 34.3168 72.6745 34.4826Z" fill="#BA68C8"/>
<path opacity="0.8" d="M72.6745 34.4826C72.6745 34.4826 72.278 44.1594 75.0668 56.5734C78.6508 56.1859 80.8124 55.0838 80.8124 55.0838C80.8124 55.0838 78.7964 46.9146 78.1244 43.6307C77.6271 41.2205 76.9618 37.3722 76.6437 35.4928C76.5866 35.1633 76.422 34.862 76.1756 34.6359C75.9293 34.4098 75.615 34.2716 75.2818 34.2429C74.5919 34.1846 73.6399 34.3168 72.6745 34.4826Z" fill="white"/>
<path d="M68.7522 35.3696C68.7522 35.3696 68.5014 39.9594 72.2646 56.9453C71.1334 57.6173 68.638 57.5277 68.638 57.5277C68.638 57.5277 67.6927 50.0259 66.9356 46.3546C66.3532 43.5411 65.7372 39.8406 65.4796 38.2637C65.4392 38.012 65.463 37.7542 65.5487 37.5142C65.6345 37.2742 65.7794 37.0597 65.9702 36.8906C66.5906 36.335 67.621 35.569 68.7522 35.3696Z" fill="#BA68C8"/>
<path opacity="0.8" d="M68.7522 35.3696C68.7522 35.3696 68.5014 39.9594 72.2646 56.9453C71.1334 57.6173 68.638 57.5277 68.638 57.5277C68.638 57.5277 67.6927 50.0259 66.9356 46.3546C66.3532 43.5411 65.7372 39.8406 65.4796 38.2637C65.4392 38.012 65.463 37.7542 65.5487 37.5142C65.6345 37.2742 65.7794 37.0597 65.9702 36.8906C66.5906 36.335 67.621 35.569 68.7522 35.3696Z" fill="white"/>
<path d="M73.2233 41.888C71.0035 42.8198 68.8889 43.68 67.3993 44.0944C67.3421 44.1118 67.2891 44.1412 67.244 44.1805C67.1989 44.2199 67.1627 44.2684 67.1377 44.3228C67.1128 44.3772 67.0996 44.4363 67.0991 44.4962C67.0987 44.556 67.1109 44.6153 67.135 44.6701L70.784 52.2637C70.8464 52.3737 70.9469 52.4571 71.0665 52.4984C71.1861 52.5396 71.3166 52.5358 71.4336 52.4877C73.5168 51.5917 76.5654 50.5837 77.1769 49.84C75.5059 46.7936 73.9469 43.8749 73.2233 41.888Z" fill="white"/>
<path d="M73.6624 42.0717C71.3799 42.8378 69.2093 43.5366 67.6861 43.8458C67.6278 43.8588 67.5729 43.884 67.5251 43.9199C67.4773 43.9557 67.4377 44.0013 67.4089 44.0537C67.3801 44.106 67.3627 44.1638 67.358 44.2234C67.3533 44.2829 67.3613 44.3428 67.3814 44.399L70.4794 52.239C70.5328 52.3542 70.6266 52.4458 70.743 52.4966C70.8593 52.5473 70.9903 52.5537 71.111 52.5146C73.2547 51.7686 76.3683 50.9891 77.0314 50.2925C75.5799 47.1341 74.2403 44.1078 73.6624 42.0717Z" fill="white"/>
<path d="M76.6481 50.9757L71.0078 52.7968C70.887 52.8391 70.7549 52.8364 70.636 52.7891C70.517 52.7417 70.4192 52.653 70.3605 52.5392L67.0117 44.7798C66.9903 44.7237 66.981 44.6636 66.9846 44.6036C66.9882 44.5437 67.0046 44.4851 67.0325 44.4319C67.0605 44.3788 67.0995 44.3321 67.1469 44.2952C67.1942 44.2582 67.249 44.2318 67.3074 44.2176L72.9387 42.3965C73.0595 42.3541 73.1916 42.3569 73.3106 42.4042C73.4295 42.4516 73.5274 42.5403 73.5861 42.6541L76.9349 50.4134C76.9568 50.469 76.9666 50.5285 76.9637 50.5881C76.9609 50.6477 76.9454 50.706 76.9182 50.7592C76.8911 50.8124 76.853 50.8591 76.8065 50.8965C76.7599 50.9338 76.7059 50.9608 76.6481 50.9757Z" fill="#BA68C8"/>
<path opacity="0.3" d="M76.6481 50.9757L71.0078 52.7968C70.887 52.8391 70.7549 52.8364 70.636 52.7891C70.517 52.7417 70.4192 52.653 70.3605 52.5392L67.0117 44.7798C66.9903 44.7237 66.981 44.6636 66.9846 44.6036C66.9882 44.5437 67.0046 44.4851 67.0325 44.4319C67.0605 44.3788 67.0995 44.3321 67.1469 44.2952C67.1942 44.2582 67.249 44.2318 67.3074 44.2176L72.9387 42.3965C73.0595 42.3541 73.1916 42.3569 73.3106 42.4042C73.4295 42.4516 73.5274 42.5403 73.5861 42.6541L76.9349 50.4134C76.9568 50.469 76.9666 50.5285 76.9637 50.5881C76.9609 50.6477 76.9454 50.706 76.9182 50.7592C76.8911 50.8124 76.853 50.8591 76.8065 50.8965C76.7599 50.9338 76.7059 50.9608 76.6481 50.9757Z" fill="black"/>
<path d="M81.9325 86.4237L85.2454 85.017L84.9094 83.6214L81.2358 85.3104L81.9325 86.4237Z" fill="#BA68C8"/>
<path d="M68.4365 29.5254C68.4813 29.6867 68.4365 29.8435 68.329 29.8749C68.2215 29.9062 68.105 29.7987 68.0602 29.6374C68.0154 29.4762 68.0602 29.3171 68.1677 29.288C68.2753 29.2589 68.3917 29.3619 68.4365 29.5254Z" fill="#263238"/>
<path d="M66.6399 30.0608C66.6847 30.2221 66.6399 30.3789 66.5324 30.4102C66.4249 30.4416 66.3084 30.3363 66.2636 30.1728C66.2188 30.0093 66.2636 29.8547 66.3711 29.8234C66.4786 29.792 66.5951 29.8973 66.6399 30.0608Z" fill="#263238"/>
<path d="M66.4205 29.8189H66.0083C66.0083 29.8189 66.2883 30.0653 66.4205 29.8189Z" fill="#263238"/>
<path d="M67.3053 30.1168C67.2916 30.5765 67.2163 31.0323 67.0813 31.472C67.192 31.5026 67.3081 31.5082 67.4212 31.4885C67.5343 31.4687 67.6416 31.4241 67.7354 31.3578L67.3053 30.1168Z" fill="#ED893E"/>
<path d="M68.5214 31.6736C68.5119 31.6725 68.5028 31.6684 68.4956 31.662C68.4884 31.6556 68.4834 31.6472 68.4811 31.6378C68.4776 31.625 68.4791 31.6114 68.4854 31.5997C68.4916 31.588 68.5021 31.5792 68.5147 31.575C68.7168 31.5194 68.903 31.4174 69.0586 31.277C69.2142 31.1366 69.3348 30.9617 69.4107 30.7664C69.4144 30.754 69.4228 30.7435 69.4341 30.7372C69.4454 30.7309 69.4587 30.7293 69.4712 30.7328C69.4834 30.7374 69.4934 30.7464 69.4992 30.758C69.505 30.7696 69.5062 30.783 69.5026 30.7955C69.4237 31.0063 69.2962 31.1956 69.1304 31.3478C68.9645 31.5 68.7651 31.6108 68.5483 31.6714L68.5214 31.6736Z" fill="#263238"/>
<path d="M68.8352 28.6877C68.8179 28.6872 68.8013 28.6809 68.7881 28.6698C68.6952 28.5948 68.5859 28.5429 68.4691 28.5184C68.3523 28.4938 68.2313 28.4974 68.1161 28.5286C68.1041 28.5333 68.0912 28.5354 68.0783 28.535C68.0654 28.5345 68.0528 28.5315 68.0411 28.5261C68.0294 28.5206 68.0189 28.5129 68.0102 28.5033C68.0016 28.4938 67.9949 28.4826 67.9907 28.4704C67.982 28.4454 67.9835 28.4181 67.9948 28.3942C68.0061 28.3703 68.0264 28.3518 68.0512 28.3427C68.1983 28.2971 68.3545 28.2885 68.5057 28.3178C68.657 28.3471 68.7986 28.4134 68.918 28.5107C68.9384 28.527 68.9517 28.5506 68.9551 28.5765C68.9584 28.6024 68.9516 28.6286 68.936 28.6496C68.9249 28.6653 68.9093 28.6773 68.8914 28.6841C68.8734 28.6908 68.8538 28.6921 68.8352 28.6877Z" fill="#263238"/>
<path d="M65.699 29.4045L65.6856 29.391C65.6673 29.3726 65.657 29.3476 65.657 29.3216C65.657 29.2956 65.6673 29.2706 65.6856 29.2522C65.793 29.1405 65.9261 29.0568 66.0733 29.0084C66.2205 28.96 66.3773 28.9483 66.5301 28.9744C66.5551 28.9817 66.5765 28.9983 66.5898 29.0208C66.6031 29.0432 66.6073 29.0699 66.6018 29.0954C66.5954 29.1202 66.5798 29.1416 66.5581 29.1554C66.5365 29.1691 66.5105 29.1741 66.4853 29.1693C66.3635 29.149 66.2386 29.1588 66.1215 29.1978C66.0043 29.2369 65.8985 29.304 65.8133 29.3933C65.798 29.4072 65.7786 29.4157 65.758 29.4178C65.7374 29.4198 65.7168 29.4151 65.699 29.4045Z" fill="#263238"/>
<path d="M82.7701 89.3402H82.7365C82.6879 89.3356 82.6414 89.318 82.602 89.2892C82.5625 89.2604 82.5316 89.2215 82.5125 89.1766C82.4984 89.1505 82.491 89.1212 82.491 89.0915C82.491 89.0618 82.4984 89.0326 82.5125 89.0064C82.6446 88.7824 83.3861 88.7264 83.469 88.7219C83.4783 88.7212 83.4876 88.7233 83.4957 88.7282C83.5037 88.733 83.51 88.7402 83.5138 88.7488C83.5192 88.7567 83.5222 88.7661 83.5222 88.7757C83.5222 88.7853 83.5192 88.7947 83.5138 88.8026C83.3435 89.0042 83.0232 89.3357 82.7701 89.3402ZM83.3637 88.8272C83.068 88.8563 82.676 88.9302 82.6066 89.0512C82.5998 89.0624 82.5963 89.0751 82.5963 89.0882C82.5963 89.1012 82.5998 89.114 82.6066 89.1251C82.6177 89.1549 82.6367 89.181 82.6616 89.2007C82.6864 89.2205 82.7162 89.233 82.7477 89.2371C82.8798 89.255 83.115 89.1027 83.3637 88.8272Z" fill="#BA68C8"/>
<path d="M83.4309 88.8227C83.1823 88.8227 82.6939 88.6928 82.6066 88.4912C82.5904 88.4552 82.587 88.4148 82.5967 88.3765C82.6065 88.3383 82.6289 88.3045 82.6603 88.2806C82.6871 88.2539 82.7195 88.2336 82.7552 88.2212C82.7909 88.2088 82.8289 88.2046 82.8664 88.209C83.1621 88.2358 83.5048 88.7197 83.5205 88.7398C83.5257 88.7469 83.529 88.7553 83.5299 88.764C83.5308 88.7728 83.5293 88.7816 83.5257 88.7896C83.522 88.7976 83.5163 88.8045 83.5091 88.8095C83.5019 88.8145 83.4934 88.8176 83.4847 88.8182L83.4309 88.8227ZM82.8351 88.3075C82.794 88.3075 82.7546 88.3236 82.7253 88.3523C82.6805 88.3971 82.685 88.4262 82.6939 88.4486C82.7522 88.5808 83.1419 88.713 83.3839 88.7219C83.2607 88.5674 83.0322 88.3232 82.8552 88.3075H82.8351Z" fill="#BA68C8"/>
<path d="M70.6091 90.5206C70.4418 90.5327 70.275 90.4919 70.132 90.4042C70.097 90.3779 70.0682 90.3441 70.0476 90.3054C70.0271 90.2667 70.0154 90.2239 70.0133 90.1802C70.0115 90.1538 70.0167 90.1274 70.0285 90.1038C70.0404 90.0802 70.0583 90.0601 70.0805 90.0458C70.3045 89.8957 71.1333 90.2698 71.2946 90.3526C71.3044 90.3566 71.3126 90.364 71.3175 90.3735C71.3224 90.3829 71.3238 90.3938 71.3215 90.4042C71.3197 90.4141 71.3153 90.4234 71.3085 90.4309C71.3018 90.4384 71.2931 90.4439 71.2834 90.4467C71.0616 90.4936 70.8358 90.5183 70.6091 90.5206ZM70.2283 90.095C70.1947 90.0928 70.1612 90.1006 70.132 90.1174C70.1247 90.1221 70.1188 90.1289 70.1152 90.1368C70.1117 90.1448 70.1105 90.1536 70.1119 90.1622C70.1117 90.1939 70.1189 90.2251 70.1329 90.2535C70.1469 90.2819 70.1673 90.3066 70.1925 90.3258C70.3336 90.4355 70.6741 90.4512 71.1154 90.3683C70.8355 90.2321 70.5363 90.1399 70.2283 90.095Z" fill="#BA68C8"/>
<path d="M71.2723 90.4355C71.2666 90.4378 71.2602 90.4378 71.2544 90.4355C70.9789 90.3235 70.4323 89.8755 70.4704 89.6426C70.4704 89.5933 70.5152 89.5283 70.6429 89.5127C71.1334 89.4567 71.3149 90.3415 71.3149 90.3795C71.3171 90.3886 71.3166 90.3981 71.3134 90.4069C71.3102 90.4157 71.3045 90.4233 71.297 90.4288C71.2894 90.433 71.2809 90.4353 71.2723 90.4355ZM70.6854 89.6H70.6518C70.6003 89.6 70.5712 89.6202 70.569 89.6448C70.5466 89.7792 70.9229 90.1331 71.2006 90.2877C71.1424 90.0816 70.9789 89.6 70.6854 89.6Z" fill="#BA68C8"/>
<path d="M68.2146 29.2813H67.8025C67.8025 29.2813 68.0825 29.5299 68.2146 29.2813Z" fill="#263238"/>
<path d="M76.1264 34.6125C76.7111 35.0986 77.2464 35.5846 77.7728 36.0954C78.2992 36.6061 78.8234 37.1302 79.3251 37.6835C79.8451 38.2451 80.3334 38.8351 80.7879 39.4509C81.0383 39.7855 81.2672 40.1356 81.4733 40.4992C81.5914 40.7085 81.6969 40.9247 81.7891 41.1466C81.9131 41.438 81.9982 41.7446 82.0423 42.0582L82.0736 42.2957L82.0423 42.4749C81.9636 42.9092 81.804 43.3248 81.5719 43.7002C81.377 44.0169 81.147 44.3107 80.8864 44.576C80.4348 45.0231 79.9273 45.4101 79.3767 45.7274C78.8741 46.022 78.3499 46.2781 77.8087 46.4934C77.2756 46.708 76.7276 46.8831 76.169 47.0176L75.5642 45.5123C75.9651 45.239 76.4019 44.9456 76.8007 44.6477C77.1964 44.3608 77.577 44.0535 77.9408 43.727C78.2682 43.4405 78.564 43.1199 78.8234 42.7706C78.9923 42.5719 79.0942 42.3249 79.1146 42.065V42.4816C79.1146 42.5174 79.0967 42.4592 79.0496 42.3763C79.0026 42.2934 78.9399 42.1904 78.8637 42.0806C78.7114 41.8566 78.5277 41.617 78.3239 41.3773C77.9139 40.8957 77.4525 40.4074 76.9799 39.9258C76.5072 39.4442 76.0077 38.9693 75.5037 38.4966C74.9997 38.024 74.4823 37.5491 73.9917 37.0989L76.1264 34.6125Z" fill="#BA68C8"/>
<path opacity="0.8" d="M76.1264 34.6125C76.7111 35.0986 77.2464 35.5846 77.7728 36.0954C78.2992 36.6061 78.8234 37.1302 79.3251 37.6835C79.8451 38.2451 80.3334 38.8351 80.7879 39.4509C81.0383 39.7855 81.2672 40.1356 81.4733 40.4992C81.5914 40.7085 81.6969 40.9247 81.7891 41.1466C81.9131 41.438 81.9982 41.7446 82.0423 42.0582L82.0736 42.2957L82.0423 42.4749C81.9636 42.9092 81.804 43.3248 81.5719 43.7002C81.377 44.0169 81.147 44.3107 80.8864 44.576C80.4348 45.0231 79.9273 45.4101 79.3767 45.7274C78.8741 46.022 78.3499 46.2781 77.8087 46.4934C77.2756 46.708 76.7276 46.8831 76.169 47.0176L75.5642 45.5123C75.9651 45.239 76.4019 44.9456 76.8007 44.6477C77.1964 44.3608 77.577 44.0535 77.9408 43.727C78.2682 43.4405 78.564 43.1199 78.8234 42.7706C78.9923 42.5719 79.0942 42.3249 79.1146 42.065V42.4816C79.1146 42.5174 79.0967 42.4592 79.0496 42.3763C79.0026 42.2934 78.9399 42.1904 78.8637 42.0806C78.7114 41.8566 78.5277 41.617 78.3239 41.3773C77.9139 40.8957 77.4525 40.4074 76.9799 39.9258C76.5072 39.4442 76.0077 38.9693 75.5037 38.4966C74.9997 38.024 74.4823 37.5491 73.9917 37.0989L76.1264 34.6125Z" fill="white"/>
<path d="M76.3168 46.6547L75.4477 47.385L74.9258 45.7117C75.3942 45.5313 75.9119 45.5258 76.384 45.696L76.3168 46.6547Z" fill="#FFB573"/>
<path opacity="0.7" d="M72.6319 34.4579C72.6319 34.4579 72.2377 39.135 72.8559 41.2922C73.0575 39.2358 73.6825 37.2467 73.6332 36.6038C73.4189 36.5034 73.2123 36.3873 73.015 36.2566C73.2354 36.0553 73.4791 35.8808 73.7407 35.737C73.7407 35.4435 73.7407 34.3706 73.6914 34.2832C73.1202 34.3616 72.6319 34.4579 72.6319 34.4579Z" fill="#BA68C8"/>
<path opacity="0.7" d="M68.7881 35.3338C68.7881 35.3338 68.9718 39.032 69.4221 42.1501C68.6985 40.3581 67.7913 38.6579 67.8339 37.9702C68.152 37.6768 68.4297 37.3565 68.4297 37.3565C68.212 37.2353 67.9747 37.1534 67.7286 37.1146C67.7142 36.6042 67.7284 36.0934 67.7712 35.5846C68.32 35.4323 68.7881 35.3338 68.7881 35.3338Z" fill="#BA68C8"/>
<path d="M74.7576 47.7904L74.0654 46.6278L74.9256 45.7117L75.4475 47.385L74.7576 47.7904Z" fill="#FFB573"/>
<g opacity="0.2">
<path d="M35.3494 47.2147V51.9994C35.3589 52.1584 35.4288 52.3077 35.5447 52.4169C35.6607 52.5261 35.8139 52.5869 35.9732 52.5869C36.1325 52.5869 36.2857 52.5261 36.4017 52.4169C36.5176 52.3077 36.5875 52.1584 36.597 51.9994V47.2147H35.3494Z" fill="#BA68C8"/>
<path d="M36.5658 47.3379H35.392C35.3593 47.3379 35.328 47.3249 35.3049 47.3018C35.2818 47.2787 35.2688 47.2474 35.2688 47.2147C35.2688 47.182 35.2818 47.1507 35.3049 47.1276C35.328 47.1045 35.3593 47.0915 35.392 47.0915H36.5747C36.6074 47.0915 36.6387 47.1045 36.6618 47.1276C36.6849 47.1507 36.6979 47.182 36.6979 47.2147C36.698 47.2317 36.6945 47.2485 36.6878 47.264C36.681 47.2796 36.6711 47.2936 36.6587 47.3052C36.6463 47.3167 36.6317 47.3256 36.6157 47.3312C36.5997 47.3369 36.5827 47.3392 36.5658 47.3379Z" fill="#BA68C8"/>
</g>
<g opacity="0.2">
<path d="M37.8379 47.2147V51.9994C37.8474 52.1584 37.9173 52.3077 38.0332 52.4169C38.1492 52.5261 38.3025 52.5869 38.4617 52.5869C38.621 52.5869 38.7743 52.5261 38.8902 52.4169C39.0062 52.3077 39.076 52.1584 39.0856 51.9994V47.2147H37.8379Z" fill="#BA68C8"/>
<path d="M39.052 47.3379H37.8693C37.8366 47.3379 37.8053 47.3249 37.7822 47.3018C37.7591 47.2787 37.7461 47.2474 37.7461 47.2147C37.7461 47.182 37.7591 47.1507 37.7822 47.1276C37.8053 47.1045 37.8366 47.0915 37.8693 47.0915H39.052C39.0847 47.0915 39.116 47.1045 39.1391 47.1276C39.1622 47.1507 39.1752 47.182 39.1752 47.2147C39.1752 47.2474 39.1622 47.2787 39.1391 47.3018C39.116 47.3249 39.0847 47.3379 39.052 47.3379Z" fill="#BA68C8"/>
</g>
<g opacity="0.2">
<path d="M40.3201 47.2147V51.9994C40.3296 52.1584 40.3995 52.3077 40.5154 52.4169C40.6314 52.5261 40.7846 52.5869 40.9439 52.5869C41.1032 52.5869 41.2565 52.5261 41.3724 52.4169C41.4883 52.3077 41.5582 52.1584 41.5677 51.9994V47.2147H40.3201Z" fill="#BA68C8"/>
<path d="M41.5408 47.3379H40.3559C40.3397 47.3379 40.3237 47.3347 40.3087 47.3285C40.2938 47.3224 40.2802 47.3133 40.2687 47.3018C40.2573 47.2904 40.2482 47.2768 40.242 47.2619C40.2359 47.2469 40.2327 47.2309 40.2327 47.2147C40.2327 47.1985 40.2359 47.1825 40.242 47.1676C40.2482 47.1526 40.2573 47.139 40.2687 47.1276C40.2802 47.1162 40.2938 47.1071 40.3087 47.1009C40.3237 47.0947 40.3397 47.0915 40.3559 47.0915H41.5408C41.5735 47.0915 41.6048 47.1045 41.6279 47.1276C41.651 47.1507 41.664 47.182 41.664 47.2147C41.664 47.2474 41.651 47.2787 41.6279 47.3018C41.6048 47.3249 41.5735 47.3379 41.5408 47.3379Z" fill="#BA68C8"/>
</g>
<path d="M42.9542 48.1757H33.9673C33.9329 48.1757 33.8998 48.162 33.8755 48.1376C33.8511 48.1133 33.8374 48.0802 33.8374 48.0458C33.8374 48.0287 33.8408 48.0118 33.8473 47.9961C33.8538 47.9803 33.8634 47.966 33.8755 47.9539C33.8875 47.9418 33.9018 47.9323 33.9176 47.9257C33.9334 47.9192 33.9503 47.9158 33.9673 47.9158H42.9542C42.9713 47.9158 42.9882 47.9192 43.0039 47.9257C43.0197 47.9323 43.034 47.9418 43.0461 47.9539C43.0581 47.966 43.0677 47.9803 43.0742 47.9961C43.0808 48.0118 43.0841 48.0287 43.0841 48.0458C43.0841 48.0802 43.0704 48.1133 43.0461 48.1376C43.0217 48.162 42.9887 48.1757 42.9542 48.1757Z" fill="#BA68C8"/>
<path d="M34.8542 54.2595V47.7142H34.5944V54.2595H34.8542Z" fill="#BA68C8"/>
<path d="M42.3315 54.2595V47.7142H42.0717V54.2595H42.3315Z" fill="#BA68C8"/>
<path d="M51.8379 44.1594H46.6031C46.5686 44.1594 46.5356 44.1457 46.5112 44.1213C46.4868 44.0969 46.4731 44.0639 46.4731 44.0294C46.4731 43.995 46.4868 43.9619 46.5112 43.9376C46.5356 43.9132 46.5686 43.8995 46.6031 43.8995H51.8379C51.8724 43.8995 51.9054 43.9132 51.9298 43.9376C51.9542 43.9619 51.9679 43.995 51.9679 44.0294C51.9679 44.0639 51.9542 44.0969 51.9298 44.1213C51.9054 44.1457 51.8724 44.1594 51.8379 44.1594Z" fill="#BA68C8"/>
<path d="M51.623 43.783H50.0393C49.9824 43.783 49.9363 43.8292 49.9363 43.8861V44.175C49.9363 44.232 49.9824 44.2781 50.0393 44.2781H51.623C51.6799 44.2781 51.726 44.232 51.726 44.175V43.8861C51.726 43.8292 51.6799 43.783 51.623 43.783Z" fill="#BA68C8"/>
<path d="M47.488 54.2618V43.7002H47.2282V54.2618H47.488Z" fill="#BA68C8"/>
<path opacity="0.1" d="M61.4028 50.4493V49.1053C61.4374 49.0965 61.4676 49.0753 61.4876 49.0458C61.5076 49.0162 61.5161 48.9804 61.5114 48.945C61.5067 48.9096 61.4892 48.8772 61.4621 48.8539C61.4351 48.8306 61.4004 48.818 61.3648 48.8186H59.9513C59.9123 48.8191 59.875 48.8349 59.8474 48.8625C59.8198 48.8901 59.804 48.9274 59.8035 48.9664C59.804 48.9984 59.815 49.0293 59.8348 49.0544C59.8547 49.0795 59.8822 49.0974 59.9132 49.1053V50.4493C59.9074 50.7995 59.824 51.144 59.6691 51.4581C59.5142 51.7723 59.2915 52.0481 59.0172 52.2659C58.6891 52.5347 58.4322 52.8801 58.2691 53.2717C58.2258 53.3816 58.2099 53.5005 58.2229 53.6179C58.2358 53.7354 58.2771 53.8479 58.3433 53.9458C58.4094 54.0437 58.4984 54.1241 58.6026 54.1799C58.7067 54.2357 58.8229 54.2654 58.9411 54.2662H62.366C62.4842 54.2654 62.6004 54.2357 62.7045 54.1799C62.8087 54.1241 62.8977 54.0437 62.9638 53.9458C63.03 53.8479 63.0713 53.7354 63.0842 53.6179C63.0972 53.5005 63.0813 53.3816 63.038 53.2717C62.8749 52.8801 62.618 52.5347 62.2899 52.2659C62.0172 52.0473 61.7963 51.771 61.6429 51.4569C61.4896 51.1429 61.4076 50.7988 61.4028 50.4493Z" fill="#BA68C8"/>
<path opacity="0.6" d="M51.6454 52.4698H50.0192C49.6258 52.4698 49.3069 52.7887 49.3069 53.1821V53.5472C49.3069 53.9406 49.6258 54.2595 50.0192 54.2595H51.6454C52.0388 54.2595 52.3578 53.9406 52.3578 53.5472V53.1821C52.3578 52.7887 52.0388 52.4698 51.6454 52.4698Z" fill="#BA68C8"/>
<path opacity="0.8" d="M51.5938 51.8157H50.0684C49.9199 51.8157 49.7996 51.936 49.7996 52.0845V52.201C49.7996 52.3494 49.9199 52.4698 50.0684 52.4698H51.5938C51.7423 52.4698 51.8626 52.3494 51.8626 52.201V52.0845C51.8626 51.936 51.7423 51.8157 51.5938 51.8157Z" fill="#BA68C8"/>
<path d="M50.8704 51.9859H50.7965C50.7656 51.9859 50.7405 52.011 50.7405 52.0419V52.2458C50.7405 52.2767 50.7656 52.3018 50.7965 52.3018H50.8704C50.9013 52.3018 50.9264 52.2767 50.9264 52.2458V52.0419C50.9264 52.011 50.9013 51.9859 50.8704 51.9859Z" fill="#BA68C8"/>
<path d="M51.2019 51.9859H51.128C51.0971 51.9859 51.072 52.011 51.072 52.0419V52.2458C51.072 52.2767 51.0971 52.3018 51.128 52.3018H51.2019C51.2329 52.3018 51.2579 52.2767 51.2579 52.2458V52.0419C51.2579 52.011 51.2329 51.9859 51.2019 51.9859Z" fill="#BA68C8"/>
<path d="M51.5332 51.9859H51.4593C51.4284 51.9859 51.4033 52.011 51.4033 52.0419V52.2458C51.4033 52.2767 51.4284 52.3018 51.4593 52.3018H51.5332C51.5642 52.3018 51.5892 52.2767 51.5892 52.2458V52.0419C51.5892 52.011 51.5642 51.9859 51.5332 51.9859Z" fill="#BA68C8"/>
<path d="M51.8648 51.9859H51.7909C51.7599 51.9859 51.7349 52.011 51.7349 52.0419V52.2458C51.7349 52.2767 51.7599 52.3018 51.7909 52.3018H51.8648C51.8957 52.3018 51.9208 52.2767 51.9208 52.2458V52.0419C51.9208 52.011 51.8957 51.9859 51.8648 51.9859Z" fill="#BA68C8"/>
<path d="M50.5389 51.9859H50.4649C50.434 51.9859 50.4089 52.011 50.4089 52.0419V52.2458C50.4089 52.2767 50.434 52.3018 50.4649 52.3018H50.5389C50.5698 52.3018 50.5949 52.2767 50.5949 52.2458V52.0419C50.5949 52.011 50.5698 51.9859 50.5389 51.9859Z" fill="#BA68C8"/>
<path d="M50.2051 51.9859H50.1312C50.1003 51.9859 50.0752 52.011 50.0752 52.0419V52.2458C50.0752 52.2767 50.1003 52.3018 50.1312 52.3018H50.2051C50.236 52.3018 50.2611 52.2767 50.2611 52.2458V52.0419C50.2611 52.011 50.236 51.9859 50.2051 51.9859Z" fill="#BA68C8"/>
<path d="M49.8736 51.9859H49.7997C49.7687 51.9859 49.7437 52.011 49.7437 52.0419V52.2458C49.7437 52.2767 49.7687 52.3018 49.7997 52.3018H49.8736C49.9045 52.3018 49.9296 52.2767 49.9296 52.2458V52.0419C49.9296 52.011 49.9045 51.9859 49.8736 51.9859Z" fill="#BA68C8"/>
<path opacity="0.6" d="M50.8322 51.6925C50.5186 51.7552 50.3976 51.0429 50.8322 50.4134C50.9464 50.6464 51.4907 51.5626 50.8322 51.6925Z" fill="#BA68C8"/>
<path opacity="0.6" d="M50.848 51.6656C50.6665 51.7014 50.5971 51.2915 50.848 50.9286C50.9062 51.072 51.2198 51.5917 50.848 51.6656Z" fill="#BA68C8"/>
<path d="M72.5064 55.9238H27.9058V93.2355H72.5064V55.9238Z" fill="#BA68C8"/>
<path opacity="0.7" d="M72.5064 55.9238H27.9058V93.2355H72.5064V55.9238Z" fill="white"/>
<path opacity="0.2" d="M72.5065 55.9238H62.9126V93.2355H72.5065V55.9238Z" fill="#BA68C8"/>
<path opacity="0.3" d="M60.5337 90.6931H30.2937V58.464H60.5337V90.6931ZM30.5177 90.4691H60.3097V58.7014H30.5199L30.5177 90.4691Z" fill="#BA68C8"/>
<g opacity="0.3">
<path d="M38.8147 86.3072L38.6355 86.128C40.3581 84.4077 40.6157 81.5427 40.8755 78.7741C41.1197 76.0726 41.3481 73.5213 42.8557 72.0138C44.6477 70.2218 47.5597 69.9664 50.3664 69.7133C53.0208 69.4736 55.5184 69.2496 56.9677 67.807L57.1469 67.9862C55.6416 69.4938 53.0902 69.7222 50.3888 69.9664C47.6201 70.215 44.7552 70.4726 43.0349 72.193C41.5923 73.6355 41.3661 76.1421 41.1286 78.7965C40.8643 81.6099 40.6022 84.5219 38.8147 86.3072Z" fill="#BA68C8"/>
<path d="M33.8621 81.3546L33.6829 81.1754C35.4749 79.3834 38.3869 79.128 41.1936 78.8749C43.848 78.6352 46.3456 78.409 47.7971 76.9686C49.5174 75.2461 49.775 72.3834 50.0371 69.6125C50.279 66.911 50.5097 64.3619 52.015 62.8544L52.1942 63.0336C50.7539 64.4739 50.5277 66.9827 50.288 69.6349C50.0349 72.4506 49.7728 75.3603 47.9875 77.1478C46.48 78.6531 43.9286 78.8838 41.2294 79.1258C38.4473 79.3744 35.5846 79.6342 33.8621 81.3546Z" fill="#BA68C8"/>
<path d="M43.9834 72.9723L43.8044 73.1513L46.8408 76.1877L47.0198 76.0087L43.9834 72.9723Z" fill="#BA68C8"/>
<path d="M42.3245 75.7315L42.1455 75.9105L44.0811 77.8461L44.26 77.6671L42.3245 75.7315Z" fill="#BA68C8"/>
<path d="M53.1411 63.812L52.9622 63.991L55.9985 67.0274L56.1775 66.8484L53.1411 63.812Z" fill="#BA68C8"/>
<path d="M51.4839 66.5696L51.3049 66.7486L53.2405 68.6842L53.4195 68.5052L51.4839 66.5696Z" fill="#BA68C8"/>
<path d="M46.7395 71.3178L46.5605 71.4968L48.4961 73.4323L48.6751 73.2533L46.7395 71.3178Z" fill="#BA68C8"/>
<path d="M34.8203 82.1327L34.6414 82.3116L37.6777 85.348L37.8567 85.169L34.8203 82.1327Z" fill="#BA68C8"/>
<path d="M37.5801 80.4765L37.4011 80.6555L39.3367 82.5911L39.5157 82.4121L37.5801 80.4765Z" fill="#BA68C8"/>
</g>
<path d="M73.1897 55.9238H27.2226C27.0024 55.9233 26.7914 55.8355 26.6357 55.6798C26.4799 55.5241 26.3922 55.313 26.3916 55.0928C26.3922 54.8724 26.4799 54.6611 26.6355 54.505C26.7912 54.3489 27.0022 54.2607 27.2226 54.2595H73.1897C73.4103 54.2607 73.6216 54.3489 73.7776 54.5049C73.9336 54.6609 74.0218 54.8722 74.023 55.0928C74.0218 55.3132 73.9335 55.5243 73.7775 55.6799C73.6214 55.8356 73.4101 55.9233 73.1897 55.9238Z" fill="#BA68C8"/>
<path opacity="0.3" d="M73.1897 55.9238H62.2249C62.0045 55.9233 61.7932 55.8356 61.6371 55.6799C61.481 55.5243 61.3928 55.3132 61.3916 55.0928C61.3928 54.8722 61.4809 54.6609 61.637 54.5049C61.793 54.3489 62.0042 54.2607 62.2249 54.2595H73.1897C73.4103 54.2607 73.6216 54.3489 73.7776 54.5049C73.9336 54.6609 74.0218 54.8722 74.023 55.0928C74.0218 55.3132 73.9335 55.5243 73.7775 55.6799C73.6214 55.8356 73.4101 55.9233 73.1897 55.9238Z" fill="black"/>
</svg>
