<svg width="112" height="112" viewBox="0 0 112 112" fill="none" xmlns="http://www.w3.org/2000/svg">
<path d="M55.859 108.199C85.5956 108.199 109.702 94.1293 109.702 76.7738C109.702 59.4182 85.5956 45.3488 55.859 45.3488C26.1224 45.3488 2.01611 59.4182 2.01611 76.7738C2.01611 94.1293 26.1224 108.199 55.859 108.199Z" fill="#F0F0F0"/>
<path d="M41.8879 72.8717C33.5103 77.7146 33.5103 85.568 41.8879 90.4064C50.2655 95.2448 63.8713 95.247 72.2579 90.4064C80.6444 85.5658 80.6444 77.7146 72.2579 72.8717C63.8713 68.0288 50.2835 68.031 41.8879 72.8717Z" fill="#E0E0E0"/>
<path d="M87.539 78.2499C83.2315 80.7363 83.2315 84.7683 87.539 87.2547C91.8465 89.7411 98.8308 89.7411 103.138 87.2547C107.446 84.7683 107.446 80.7363 103.138 78.2499C98.8308 75.7635 91.8398 75.7613 87.539 78.2499Z" fill="#E0E0E0"/>
<path d="M8.51191 79.1952C4.58295 81.4621 4.58295 85.1401 8.51191 87.4093C12.4409 89.6784 18.8159 89.6784 22.7426 87.4093C26.6693 85.1401 26.6716 81.4621 22.7426 79.1952C18.8137 76.9283 12.4341 76.9261 8.51191 79.1952Z" fill="#E0E0E0"/>
<path d="M93.2602 21.5174L91.84 20.6976C91.8473 20.6396 91.851 20.5813 91.8512 20.5229V20.113C91.83 19.7149 91.7151 19.3274 91.5158 18.9821C91.3165 18.6369 91.0384 18.3435 90.7043 18.1261C90.605 18.0596 90.4934 18.0137 90.3761 17.991C90.2587 17.9683 90.1381 17.9693 90.0211 17.9939C89.9181 16.9546 89.1946 15.7786 88.3187 15.2746C87.3712 14.7258 86.6029 15.1693 86.6029 16.2646V16.8784C86.6075 17.1774 86.6566 17.4741 86.7485 17.7587L85.5702 17.0867C85.2186 16.8851 84.9341 17.0486 84.9341 17.4541C84.947 17.6731 85.0111 17.8861 85.1212 18.076C85.2312 18.2658 85.3843 18.4272 85.568 18.5472L93.2557 22.9846C93.6074 23.1885 93.8918 23.025 93.8918 22.6195C93.8809 22.399 93.818 22.1842 93.7082 21.9927C93.5984 21.8012 93.4449 21.6383 93.2602 21.5174Z" fill="#EBEBEB"/>
<path d="M94.817 11.2202L95.601 11.5203V9.79776C95.601 8.42912 96.6896 8.10208 97.8746 8.78528C99.0573 9.46848 100.016 11.1306 100.016 12.497V12.7478C100.182 12.6963 100.359 12.6832 100.531 12.7096C100.703 12.736 100.867 12.8011 101.011 12.9002C101.459 13.1932 101.833 13.5879 102.101 14.0521C102.369 14.5163 102.524 15.0372 102.554 15.5725V15.68L103.645 16.3117C103.94 16.5042 104.186 16.7638 104.363 17.0693C104.539 17.3749 104.641 17.7178 104.66 18.0701C104.66 18.7174 104.212 18.9795 103.645 18.657L94.817 13.5654C94.521 13.3727 94.2748 13.1128 94.0985 12.8068C93.9221 12.5008 93.8206 12.1575 93.8022 11.8048C93.8022 11.1574 94.257 10.8954 94.817 11.2202Z" fill="#EBEBEB"/>
<path d="M20.7289 21.5174L22.1469 20.6976C22.1396 20.6396 22.1358 20.5813 22.1357 20.5229V20.113C22.1568 19.7149 22.2718 19.3274 22.4711 18.9821C22.6704 18.6369 22.9484 18.3435 23.2825 18.1261C23.4802 17.9948 23.7219 17.9472 23.9545 17.9939C24.0576 16.9546 24.7789 15.7786 25.6569 15.2746C26.6045 14.7258 27.3705 15.1693 27.3705 16.2646V16.8784C27.3667 17.1773 27.3184 17.474 27.2272 17.7587L28.4054 17.0867C28.7549 16.8851 29.0416 17.0486 29.0416 17.4541C29.0292 17.6748 28.9653 17.8895 28.8548 18.0809C28.7443 18.2723 28.5903 18.4351 28.4054 18.5562L20.7289 22.9846C20.3773 23.1885 20.0928 23.025 20.0928 22.6195C20.1042 22.3986 20.1678 22.1836 20.2784 21.992C20.389 21.8005 20.5434 21.6378 20.7289 21.5174Z" fill="#EBEBEB"/>
<path d="M19.1699 11.2202L18.3881 11.5203V9.79776C18.3881 8.42912 17.2995 8.10208 16.1146 8.78528C14.9318 9.46848 13.9731 11.1306 13.9731 12.497V12.7478C13.8066 12.6963 13.6306 12.6832 13.4583 12.7096C13.286 12.736 13.122 12.8011 12.9785 12.9002C12.5293 13.1928 12.1554 13.5874 11.8872 14.0517C11.619 14.516 11.4642 15.0371 11.4352 15.5725V15.68L10.3443 16.3117C10.0487 16.5042 9.80264 16.7638 9.6263 17.0693C9.44997 17.3749 9.34831 17.7178 9.32959 18.0701C9.32959 18.7174 9.77759 18.9795 10.3443 18.657L19.1699 13.561C19.4663 13.3685 19.7129 13.1087 19.8897 12.8027C20.0664 12.4967 20.1683 12.1532 20.1869 11.8003C20.1869 11.1574 19.7322 10.8954 19.1699 11.2202Z" fill="#EBEBEB"/>
<path d="M102.44 79.9523L101.768 79.1213C101.129 77.1662 100.906 75.0995 101.111 73.0531C101.544 69.3213 103.262 67.9751 104.471 68.385C105.367 68.6896 105.636 69.7133 104.189 71.8525C103.331 73.1136 102.202 76.6774 102.44 79.9523Z" fill="#BA68C8"/>
<path opacity="0.15" d="M102.44 79.9523L101.768 79.1213C101.129 77.1662 100.906 75.0995 101.111 73.0531C101.544 69.3213 103.262 67.9751 104.471 68.385C105.367 68.6896 105.636 69.7133 104.189 71.8525C103.331 73.1136 102.202 76.6774 102.44 79.9523Z" fill="black"/>
<path d="M102.043 77.6317H102.055C102.065 77.6298 102.074 77.626 102.083 77.6203C102.091 77.6146 102.099 77.6073 102.104 77.5987C102.11 77.5901 102.114 77.5805 102.116 77.5704C102.118 77.5602 102.117 77.5499 102.115 77.5399C101.443 74.2627 102.55 70.5578 103.952 69.0055C103.959 68.9977 103.964 68.9886 103.968 68.9787C103.971 68.9689 103.972 68.9585 103.972 68.9481C103.971 68.9377 103.968 68.9275 103.964 68.9181C103.959 68.9087 103.953 68.9004 103.945 68.8935C103.937 68.8865 103.928 68.8812 103.918 68.8778C103.909 68.8744 103.898 68.873 103.888 68.8736C103.877 68.8742 103.867 68.8769 103.858 68.8815C103.848 68.886 103.84 68.8924 103.833 68.9002C102.406 70.4816 101.286 74.2471 101.961 77.5712C101.965 77.5893 101.976 77.6053 101.991 77.6163C102.006 77.6274 102.025 77.6328 102.043 77.6317Z" fill="white"/>
<path d="M102.225 80.2883C102.31 80.3734 102.393 80.5123 102.496 80.5728C102.599 80.6333 102.682 80.4832 102.76 80.6176C102.803 80.6893 102.809 80.7878 102.881 80.8416C102.918 80.8589 102.96 80.8641 103 80.8565C103.04 80.8489 103.077 80.8288 103.105 80.799C103.161 80.7337 103.209 80.6623 103.248 80.5863C103.356 80.4472 103.491 80.3319 103.645 80.2475C103.799 80.163 103.969 80.1114 104.144 80.0957C104.53 80.0493 104.911 79.9745 105.285 79.8717C105.453 79.8202 105.603 79.7222 105.717 79.589C105.832 79.4558 105.906 79.2929 105.932 79.119C105.95 78.8592 105.795 78.6845 105.663 78.4157C105.511 78.1066 105.686 77.8333 105.912 77.6339C106.138 77.4346 106.595 77.2755 106.877 77.1165C107.159 76.9574 107.61 76.6304 107.67 76.3123C107.82 75.5306 106.998 75.488 106.967 74.9347C106.951 74.5651 107.227 74.2493 107.307 73.8886C107.388 73.528 107.406 73.1606 107.153 72.9232C106.9 72.6858 106.454 72.7149 106.12 72.8112C105.709 72.9506 105.328 73.169 105 73.4541C104.608 73.7699 104.346 73.9872 103.869 73.7946C103.197 73.5235 102.55 74.0589 102.581 75.0064C102.592 75.3783 102.722 75.7546 102.538 76.0771C102.37 76.3661 101.889 76.3616 101.642 76.5878C101.476 76.7519 101.349 76.9517 101.271 77.1722C101.194 77.3927 101.167 77.628 101.194 77.8602C101.248 78.6598 101.651 79.7126 102.225 80.2883Z" fill="#BA68C8"/>
<path d="M102.592 80.7834C102.581 80.7846 102.57 80.7837 102.56 80.7806C102.55 80.7775 102.54 80.7724 102.532 80.7655C102.523 80.7586 102.516 80.75 102.511 80.7404C102.506 80.7308 102.503 80.7203 102.503 80.7095C102.227 77.9207 104.536 74.5181 106.311 73.3175C106.328 73.3052 106.35 73.3004 106.372 73.3042C106.393 73.308 106.412 73.32 106.425 73.3376C106.431 73.3465 106.435 73.3566 106.438 73.3672C106.44 73.3779 106.44 73.3888 106.438 73.3995C106.436 73.4102 106.432 73.4203 106.425 73.4293C106.419 73.4383 106.411 73.446 106.402 73.4519C104.662 74.6413 102.397 77.9744 102.664 80.7027C102.664 80.7227 102.657 80.7419 102.643 80.7568C102.63 80.7717 102.612 80.7812 102.592 80.7834Z" fill="#FAFAFA"/>
<path d="M103.616 76.7223C103.601 76.7234 103.586 76.7207 103.573 76.7144C103.56 76.7081 103.548 76.6985 103.54 76.6864C103.534 76.6775 103.53 76.6674 103.528 76.6569C103.526 76.6465 103.526 76.6357 103.528 76.6253C103.531 76.6148 103.535 76.605 103.541 76.5963C103.547 76.5875 103.555 76.5801 103.564 76.5744C104.574 75.9226 105.741 75.6919 106.537 75.9853C106.548 75.988 106.558 75.993 106.567 76C106.576 76.007 106.583 76.0158 106.589 76.0259C106.594 76.036 106.597 76.047 106.598 76.0584C106.599 76.0698 106.597 76.0811 106.593 76.0918C106.589 76.1025 106.583 76.1122 106.575 76.1203C106.567 76.1284 106.557 76.1347 106.547 76.1388C106.536 76.1429 106.525 76.1447 106.513 76.1441C106.502 76.1435 106.491 76.1406 106.481 76.1354C105.733 75.8599 104.621 76.0839 103.652 76.7088C103.64 76.7152 103.628 76.7198 103.616 76.7223Z" fill="#FAFAFA"/>
<path d="M9.93445 80.8327L10.4564 79.9031C10.7562 77.8681 10.628 75.7929 10.08 73.8103C9.02725 70.2039 7.10757 69.1645 5.98981 69.7783C5.16101 70.2263 5.06469 71.2835 6.84997 73.1383C7.90725 74.2426 9.61861 77.5667 9.93445 80.8327Z" fill="#BA68C8"/>
<path opacity="0.15" d="M9.93445 80.8327L10.4564 79.9031C10.7562 77.8681 10.628 75.7929 10.08 73.8103C9.02725 70.2039 7.10757 69.1645 5.98981 69.7783C5.16101 70.2263 5.06469 71.2835 6.84997 73.1383C7.90725 74.2426 9.61861 77.5667 9.93445 80.8327Z" fill="black"/>
<path d="M9.93663 78.4807C9.92595 78.481 9.91533 78.4791 9.9054 78.4751C9.89548 78.4712 9.88647 78.4653 9.87892 78.4577C9.87136 78.4502 9.86544 78.4412 9.86149 78.4312C9.85755 78.4213 9.85568 78.4107 9.85598 78.4C9.96127 75.0579 8.25439 71.5904 6.61247 70.2935C6.60508 70.2863 6.59921 70.2778 6.59519 70.2684C6.59118 70.259 6.58911 70.2488 6.58911 70.2386C6.58911 70.2283 6.59118 70.2182 6.59519 70.2088C6.59921 70.1993 6.60508 70.1908 6.61247 70.1837C6.62527 70.1674 6.644 70.1568 6.66457 70.1543C6.68514 70.1518 6.70587 70.1575 6.72222 70.1703C8.39327 71.4896 10.1315 75.0131 10.024 78.4045C10.0237 78.4154 10.0212 78.4261 10.0166 78.436C10.012 78.4459 10.0053 78.4547 9.99712 78.4619C9.9889 78.469 9.97927 78.4744 9.96886 78.4776C9.95844 78.4809 9.94746 78.4819 9.93663 78.4807Z" fill="white"/>
<path d="M9.73063 81.536C9.67239 81.6928 9.59623 81.6749 9.43943 81.6256C9.32295 81.5898 9.21543 81.5315 9.09671 81.4979C8.86819 81.4282 8.63552 81.3728 8.40007 81.3322C7.97223 81.2582 7.53767 81.2918 7.11431 81.2179C6.93988 81.1961 6.77525 81.1251 6.63961 81.0133C6.50397 80.9014 6.40292 80.7533 6.34823 80.5863C6.28775 80.3331 6.41095 80.1382 6.49607 79.8493C6.59463 79.5178 6.37735 79.2758 6.11975 79.119C5.86215 78.9622 5.38503 78.8816 5.08039 78.7718C4.77575 78.6621 4.27847 78.4157 4.16423 78.111C3.88423 77.3651 4.69287 77.1859 4.62567 76.6349C4.58087 76.2675 4.25383 76.0032 4.11495 75.6627C3.97607 75.3222 3.89095 74.9594 4.11495 74.6816C4.33895 74.4038 4.76679 74.3613 5.11399 74.3994C5.54593 74.4662 5.9602 74.6185 6.33255 74.8474C6.78055 75.0915 7.06951 75.2618 7.50631 74.9907C8.11783 74.6122 8.85031 75.031 8.98023 75.9696C9.02951 76.3392 8.96455 76.7312 9.20423 77.0179C9.44391 77.3046 9.89191 77.1904 10.1742 77.3718C10.3636 77.5072 10.5199 77.6837 10.6313 77.8882C10.7427 78.0927 10.8062 78.3197 10.817 78.5523C10.8954 79.3565 10.6826 80.4608 10.2145 81.1261C10.153 81.2429 10.0778 81.352 9.99047 81.4509C9.90983 81.5136 9.78439 81.3971 9.73063 81.536Z" fill="#BA68C8"/>
<path d="M9.93441 81.6771C9.956 81.6754 9.97606 81.6653 9.9903 81.649C10.0045 81.6327 10.0118 81.6114 10.0106 81.5898C9.81121 78.7943 6.96417 75.8285 5.01089 74.9325C5.00119 74.928 4.9907 74.9255 4.98002 74.9251C4.96935 74.9247 4.9587 74.9264 4.94869 74.9302C4.93869 74.9339 4.92953 74.9396 4.92175 74.9469C4.91397 74.9543 4.90772 74.9631 4.90337 74.9728C4.89852 74.9826 4.89572 74.9933 4.89513 75.0042C4.89455 75.0152 4.89619 75.0261 4.89997 75.0364C4.90374 75.0466 4.90956 75.056 4.91707 75.064C4.92459 75.0719 4.93364 75.0782 4.94369 75.0826C6.85889 75.9607 9.64769 78.8659 9.84481 81.601C9.84565 81.6119 9.84865 81.6225 9.85362 81.6322C9.85859 81.642 9.86543 81.6506 9.87376 81.6577C9.88209 81.6648 9.89173 81.6701 9.90214 81.6735C9.91255 81.6768 9.92352 81.6781 9.93441 81.6771Z" fill="#FAFAFA"/>
<path d="M8.23442 77.8467C8.24887 77.8459 8.2628 77.841 8.27467 77.8327C8.28653 77.8244 8.29586 77.813 8.30162 77.7997C8.30601 77.79 8.30838 77.7796 8.3086 77.7689C8.30882 77.7583 8.30689 77.7478 8.30291 77.7379C8.29893 77.7281 8.29299 77.7192 8.28545 77.7117C8.27792 77.7042 8.26894 77.6983 8.25906 77.6944C7.1525 77.2195 5.9653 77.1882 5.23058 77.6115C5.22041 77.6163 5.21132 77.623 5.20392 77.6315C5.19651 77.6399 5.19094 77.6498 5.18757 77.6605C5.1842 77.6712 5.18309 77.6824 5.18433 77.6936C5.18556 77.7047 5.18911 77.7155 5.19474 77.7252C5.20037 77.7349 5.20797 77.7433 5.21704 77.7499C5.22611 77.7565 5.23645 77.7611 5.24742 77.7635C5.25838 77.7659 5.26971 77.766 5.2807 77.7637C5.29169 77.7614 5.30208 77.7569 5.31122 77.7504C6.00114 77.3517 7.13458 77.3875 8.19634 77.84C8.2079 77.8465 8.22133 77.8489 8.23442 77.8467Z" fill="#FAFAFA"/>
<path d="M64.7853 81.2963C63.7034 79.2803 64.3373 77.009 65.2691 75.4141C66.2525 73.7207 64.9936 72.6096 63.719 73.8864C62.4445 75.1632 62.4938 78.4202 63.9901 80.9671L64.7853 81.2963Z" fill="#37474F"/>
<path d="M64.0326 80.5863C64.0214 80.5861 64.0106 80.5826 64.0014 80.5762C63.9922 80.5698 63.9851 80.5608 63.9811 80.5504C62.7088 77.3875 63.6272 74.928 64.3709 73.9738C64.3759 73.9684 64.382 73.9641 64.3887 73.9612C64.3954 73.9583 64.4027 73.9568 64.4101 73.9568C64.4174 73.9568 64.4247 73.9583 64.4314 73.9612C64.4382 73.9641 64.4442 73.9684 64.4493 73.9738C64.4595 73.9842 64.4653 73.9983 64.4653 74.013C64.4653 74.0276 64.4595 74.0417 64.4493 74.0522C64.3686 74.1552 62.5027 76.6147 64.0729 80.5168C64.0759 80.5236 64.0775 80.5309 64.0777 80.5382C64.0778 80.5456 64.0765 80.553 64.0738 80.5598C64.0711 80.5667 64.067 80.573 64.0619 80.5783C64.0567 80.5836 64.0506 80.5878 64.0438 80.5907L64.0326 80.5863Z" fill="#FAFAFA"/>
<path d="M64.2342 80.6243C63.9183 79.3767 64.7964 77.3091 66.1314 76.44C67.3321 75.6605 68.0399 75.7143 68.3871 76.1511C68.7343 76.5879 68.1922 77.2464 67.2671 77.8064C66.342 78.3664 64.8367 79.5984 64.7852 81.0141L64.2342 80.6243Z" fill="#455A64"/>
<path d="M64.4447 80.5818C64.4303 80.5795 64.4172 80.5717 64.4084 80.56C64.3996 80.5483 64.3958 80.5336 64.3977 80.519C64.6665 78.5501 66.3196 76.711 67.6143 76.3616C67.6216 76.3596 67.6291 76.359 67.6365 76.36C67.6439 76.3609 67.6511 76.3633 67.6576 76.3671C67.6641 76.3709 67.6697 76.3759 67.6742 76.3819C67.6787 76.3878 67.682 76.3947 67.6838 76.4019C67.6872 76.4162 67.6849 76.4312 67.6773 76.4438C67.6698 76.4563 67.6576 76.4654 67.6435 76.4691C66.3801 76.8007 64.7718 78.6083 64.5075 80.5347C64.5067 80.542 64.5044 80.5491 64.5007 80.5555C64.4971 80.5618 64.4922 80.5674 64.4863 80.5718C64.4804 80.5762 64.4737 80.5794 64.4665 80.5811C64.4594 80.5828 64.452 80.583 64.4447 80.5818Z" fill="#FAFAFA"/>
<path d="M49.2532 81.3546C50.3351 79.3386 49.7012 77.065 48.7716 75.4701C47.786 73.7789 49.0471 72.6678 50.3194 73.9446C51.5917 75.2214 51.5469 78.4784 50.0484 81.0253L49.2532 81.3546Z" fill="#37474F"/>
<path d="M50.0059 80.64H49.9857C49.9787 80.6373 49.9724 80.6332 49.967 80.628C49.9616 80.6228 49.9573 80.6166 49.9544 80.6097C49.9515 80.6028 49.95 80.5954 49.95 80.5879C49.9499 80.5804 49.9514 80.573 49.9543 80.5661C51.5223 76.664 49.6587 74.2045 49.578 74.1014C49.5678 74.091 49.562 74.0769 49.562 74.0622C49.562 74.0476 49.5678 74.0335 49.578 74.023C49.583 74.0177 49.5891 74.0134 49.5959 74.0105C49.6026 74.0076 49.6099 74.0061 49.6172 74.0061C49.6246 74.0061 49.6318 74.0076 49.6386 74.0105C49.6453 74.0134 49.6514 74.0177 49.6564 74.023C50.4001 74.9773 51.3207 77.4368 50.0462 80.5997C50.0437 80.6094 50.0386 80.6183 50.0315 80.6254C50.0244 80.6325 50.0156 80.6375 50.0059 80.64Z" fill="#FAFAFA"/>
<path d="M49.8043 80.6826C50.1224 79.4349 49.2443 77.3651 47.9093 76.4982C46.7064 75.7165 46.0008 75.7725 45.6513 76.2093C45.3019 76.6461 45.8462 77.3046 46.7713 77.8646C47.6965 78.4246 49.1995 79.6566 49.251 81.0723L49.8043 80.6826Z" fill="#455A64"/>
<path d="M49.5959 80.64C49.5822 80.6401 49.5688 80.6351 49.5585 80.626C49.5482 80.617 49.5416 80.6044 49.5399 80.5907C49.2756 78.6666 47.6673 76.8589 46.4039 76.5274C46.3959 76.5266 46.3882 76.524 46.3812 76.52C46.3743 76.5159 46.3683 76.5104 46.3637 76.5039C46.3591 76.4973 46.3559 76.4898 46.3545 76.4819C46.353 76.474 46.3532 76.4659 46.3552 76.4581C46.3571 76.4503 46.3607 76.443 46.3658 76.4367C46.3708 76.4304 46.3771 76.4253 46.3843 76.4217C46.3914 76.418 46.3993 76.416 46.4073 76.4157C46.4154 76.4154 46.4234 76.4168 46.4308 76.4198C47.7277 76.7581 49.3786 78.6083 49.6497 80.5773C49.651 80.5921 49.6466 80.6068 49.6375 80.6184C49.6283 80.6301 49.615 80.6378 49.6004 80.64H49.5959Z" fill="#FAFAFA"/>
<path d="M64.371 83.0502C64.4494 82.9377 64.5205 82.8202 64.5838 82.6986C64.6017 82.6672 64.6174 82.6358 64.633 82.6022C64.6828 82.502 64.7262 82.3988 64.763 82.2931L64.7988 82.1968C64.8403 82.0685 64.8732 81.9375 64.8974 81.8048C64.9186 81.6722 64.9299 81.5381 64.931 81.4038C64.931 81.3658 64.931 81.3254 64.931 81.2851C64.9291 81.1922 64.9216 81.0994 64.9086 81.0074C64.9086 80.9581 64.8951 80.911 64.8862 80.8618C64.8682 80.7744 64.8458 80.6848 64.819 80.5952C64.8055 80.5526 64.7943 80.5078 64.7786 80.463C64.7354 80.3355 64.683 80.2112 64.6218 80.0912C64.6017 80.0509 64.577 80.015 64.5546 79.9747C64.507 79.8854 64.4547 79.7987 64.3978 79.7149L64.2858 79.5603C64.2567 79.5222 64.2343 79.4842 64.203 79.4461L64.0641 79.296L63.9902 79.2131C63.1239 78.2176 62.0542 77.4195 60.8532 76.8725C59.6522 76.3256 58.3479 76.0426 57.0282 76.0426C55.7086 76.0426 54.4043 76.3256 53.2033 76.8725C52.0023 77.4195 50.9326 78.2176 50.0663 79.2131L50.0058 79.2803C49.9588 79.3363 49.9118 79.3923 49.867 79.4416C49.8222 79.4909 49.8087 79.5222 49.7796 79.5626C49.7505 79.6029 49.7079 79.6566 49.6766 79.7059C49.6138 79.7978 49.5578 79.8918 49.5041 79.9859C49.4884 80.0195 49.466 80.0509 49.4503 80.0822C49.3877 80.2052 49.3338 80.3325 49.289 80.463C49.2756 80.5011 49.2666 80.5414 49.2554 80.5795C49.2266 80.673 49.2026 80.768 49.1838 80.864C49.1838 80.9088 49.1681 80.9514 49.1614 80.9962C49.1479 81.0947 49.1412 81.1933 49.1367 81.2918C49.1367 81.3277 49.1367 81.3613 49.1367 81.3949C49.1423 81.6717 49.1907 81.946 49.2801 82.208C49.2801 82.2349 49.3002 82.264 49.3092 82.2931C49.3494 82.4032 49.3957 82.5109 49.4481 82.6157L49.4884 82.7008C49.5555 82.8284 49.6303 82.9519 49.7124 83.0704C49.7112 83.0756 49.7112 83.0809 49.7124 83.0861C49.8104 83.2245 49.9166 83.3569 50.0305 83.4826L50.0551 83.5072C50.1611 83.6207 50.2754 83.7327 50.3978 83.8432L50.4852 83.9171C50.5972 84.0134 50.7092 84.1075 50.8436 84.1994C50.875 84.2218 50.9041 84.2464 50.9377 84.2688C51.0967 84.3808 51.2647 84.4928 51.4484 84.5958C54.5284 86.3766 59.5348 86.3766 62.6148 84.5958C62.7962 84.4906 62.962 84.383 63.121 84.271C63.1591 84.2464 63.1905 84.2195 63.2263 84.1949C63.3495 84.1053 63.4638 84.0157 63.5735 83.9216L63.6698 83.8387C63.785 83.7369 63.8949 83.6292 63.9991 83.5162L64.035 83.4803C64.1473 83.3569 64.252 83.2267 64.3486 83.0906L64.371 83.0502Z" fill="#BA68C8"/>
<g style="mix-blend-mode:multiply" opacity="0.2">
<path d="M64.371 83.0502C64.4494 82.9377 64.5205 82.8202 64.5838 82.6986C64.6017 82.6672 64.6174 82.6358 64.633 82.6022C64.6828 82.502 64.7262 82.3988 64.763 82.2931L64.7988 82.1968C64.8403 82.0685 64.8732 81.9375 64.8974 81.8048C64.9186 81.6722 64.9299 81.5381 64.931 81.4038C64.931 81.3658 64.931 81.3254 64.931 81.2851C64.9291 81.1922 64.9216 81.0994 64.9086 81.0074C64.9086 80.9581 64.8951 80.911 64.8862 80.8618C64.8682 80.7744 64.8458 80.6848 64.819 80.5952C64.8055 80.5526 64.7943 80.5078 64.7786 80.463C64.7354 80.3355 64.683 80.2112 64.6218 80.0912C64.6017 80.0509 64.577 80.015 64.5546 79.9747C64.507 79.8854 64.4547 79.7987 64.3978 79.7149L64.2858 79.5603C64.2567 79.5222 64.2343 79.4842 64.203 79.4461L64.0641 79.296L63.9902 79.2131C63.1239 78.2176 62.0542 77.4195 60.8532 76.8725C59.6522 76.3256 58.3479 76.0426 57.0282 76.0426C55.7086 76.0426 54.4043 76.3256 53.2033 76.8725C52.0023 77.4195 50.9326 78.2176 50.0663 79.2131L50.0058 79.2803C49.9588 79.3363 49.9118 79.3923 49.867 79.4416C49.8222 79.4909 49.8087 79.5222 49.7796 79.5626C49.7505 79.6029 49.7079 79.6566 49.6766 79.7059C49.6138 79.7978 49.5578 79.8918 49.5041 79.9859C49.4884 80.0195 49.466 80.0509 49.4503 80.0822C49.3877 80.2052 49.3338 80.3325 49.289 80.463C49.2756 80.5011 49.2666 80.5414 49.2554 80.5795C49.2266 80.673 49.2026 80.768 49.1838 80.864C49.1838 80.9088 49.1681 80.9514 49.1614 80.9962C49.1479 81.0947 49.1412 81.1933 49.1367 81.2918C49.1367 81.3277 49.1367 81.3613 49.1367 81.3949C49.1423 81.6717 49.1907 81.946 49.2801 82.208C49.2801 82.2349 49.3002 82.264 49.3092 82.2931C49.3494 82.4032 49.3957 82.5109 49.4481 82.6157L49.4884 82.7008C49.5555 82.8284 49.6303 82.9519 49.7124 83.0704C49.7112 83.0756 49.7112 83.0809 49.7124 83.0861C49.8104 83.2245 49.9166 83.3569 50.0305 83.4826L50.0551 83.5072C50.1611 83.6207 50.2754 83.7327 50.3978 83.8432L50.4852 83.9171C50.5972 84.0134 50.7092 84.1075 50.8436 84.1994C50.875 84.2218 50.9041 84.2464 50.9377 84.2688C51.0967 84.3808 51.2647 84.4928 51.4484 84.5958C54.5284 86.3766 59.5348 86.3766 62.6148 84.5958C62.7962 84.4906 62.962 84.383 63.121 84.271C63.1591 84.2464 63.1905 84.2195 63.2263 84.1949C63.3495 84.1053 63.4638 84.0157 63.5735 83.9216L63.6698 83.8387C63.785 83.7369 63.8949 83.6292 63.9991 83.5162L64.035 83.4803C64.1473 83.3569 64.252 83.2267 64.3486 83.0906L64.371 83.0502Z" fill="black"/>
</g>
<g opacity="0.5">
<path d="M58.2398 78.5725C57.9038 78.6576 58.5668 79.8941 59.2814 82.0893C59.6577 83.2496 59.8593 84.9139 61.7454 83.9888C63.4859 83.1354 62.0277 81.1261 60.6792 79.8426C59.483 78.7002 58.6004 78.4806 58.2398 78.5725Z" fill="#BA68C8"/>
<path d="M58.5513 77.8154C58.7283 77.9072 59.8191 78.0506 61.5753 79.6902C62.5183 80.5728 63.2553 81.6883 63.607 81.8317C63.9587 81.975 64.2028 80.4317 63.607 79.6611C62.868 78.7113 61.8663 77.9994 60.7263 77.6138C59.51 77.2486 58.2579 77.663 58.5513 77.8154Z" fill="#BA68C8"/>
<path d="M57.0326 85.0909C55.2204 85.0909 54.9136 84.7638 55.6124 81.8406C55.9798 80.2973 56.7324 78.7472 57.0326 78.7472C57.3328 78.7472 58.0854 80.2973 58.455 81.8406C59.1539 84.7638 58.847 85.0909 57.0326 85.0909Z" fill="#BA68C8"/>
<path d="M55.8275 78.5725C56.1635 78.6576 55.5005 79.8941 54.7859 82.0893C54.4096 83.2496 54.208 84.9139 52.3219 83.9888C50.5814 83.1354 52.0397 81.1261 53.3881 79.8426C54.5843 78.7002 55.4668 78.4806 55.8275 78.5725Z" fill="#BA68C8"/>
<path d="M55.5138 77.8154C55.3391 77.9072 54.2482 78.0506 52.4921 79.6902C51.549 80.5728 50.8121 81.6883 50.4604 81.8317C50.1087 81.975 49.8646 80.4317 50.4604 79.6611C51.1989 78.7108 52.2007 77.9988 53.341 77.6138C54.5574 77.2486 55.8095 77.663 55.5138 77.8154Z" fill="#BA68C8"/>
</g>
<path d="M57.0326 69.3392C56.822 69.3358 56.6139 69.3859 56.4278 69.4848C56.3663 69.5143 56.3123 69.5575 56.2699 69.6111C56.2276 69.6647 56.1981 69.7272 56.1837 69.7939C56.0313 73.4115 55.7491 75.1699 54.5933 77.0851C54.5933 77.4458 54.8307 77.8064 55.3101 78.0819C55.8406 78.366 56.4354 78.5087 57.0371 78.4963C57.6396 78.509 58.2351 78.3663 58.7664 78.0819C59.2457 77.8064 59.4832 77.4458 59.4832 77.0851C58.3273 75.1632 58.0451 73.4115 57.8928 69.7939C57.8783 69.7272 57.8488 69.6647 57.8065 69.6111C57.7642 69.5575 57.7102 69.5143 57.6486 69.4848C57.4592 69.3841 57.2471 69.334 57.0326 69.3392Z" fill="#BA68C8"/>
<g style="mix-blend-mode:multiply" opacity="0.3">
<path d="M57.0326 69.3392C56.822 69.3358 56.6139 69.3859 56.4278 69.4848C56.3663 69.5143 56.3123 69.5575 56.2699 69.6111C56.2276 69.6647 56.1981 69.7272 56.1837 69.7939C56.0313 73.4115 55.7491 75.1699 54.5933 77.0851C54.5933 77.4458 54.8307 77.8064 55.3101 78.0819C55.8406 78.366 56.4354 78.5087 57.0371 78.4963C57.6396 78.509 58.2351 78.3663 58.7664 78.0819C59.2457 77.8064 59.4832 77.4458 59.4832 77.0851C58.3273 75.1632 58.0451 73.4115 57.8928 69.7939C57.8783 69.7272 57.8488 69.6647 57.8065 69.6111C57.7642 69.5575 57.7102 69.5143 57.6486 69.4848C57.4592 69.3841 57.2471 69.334 57.0326 69.3392Z" fill="black"/>
</g>
<g style="mix-blend-mode:multiply" opacity="0.15">
<path d="M57.9039 70.1613C57.3238 70.1837 56.7436 70.1837 56.1635 70.1613C56.1119 71.2947 56.0447 72.4013 55.9395 73.4451C56.6652 73.4317 57.3902 73.3884 58.1145 73.3152C58.0159 72.3139 57.9532 71.2499 57.9039 70.1613Z" fill="black"/>
</g>
<g style="mix-blend-mode:multiply" opacity="0.15">
<path d="M52.6176 83.505C50.0506 81.8989 50.232 79.025 51.9344 77.569C51.2415 78.0291 50.6139 78.5806 50.0685 79.2086L50.008 79.2758C49.961 79.3318 49.914 79.3878 49.8692 79.4371C49.8244 79.4864 49.8109 79.5178 49.7818 79.5581C49.7527 79.5984 49.7101 79.6522 49.6788 79.7014C49.616 79.7933 49.56 79.8874 49.5063 79.9814C49.4906 80.015 49.4682 80.0464 49.4525 80.0778C49.3899 80.2008 49.336 80.328 49.2912 80.4586C49.2778 80.4966 49.2688 80.537 49.2554 80.575C49.2285 80.6714 49.2039 80.7655 49.186 80.8595C49.186 80.9043 49.1703 80.9469 49.1636 80.9917C49.1501 81.0902 49.1434 81.1888 49.1389 81.2874C49.1389 81.3232 49.1389 81.3568 49.1389 81.3904C49.1434 81.6686 49.191 81.9444 49.28 82.208C49.28 82.2349 49.3002 82.264 49.3092 82.2931C49.3493 82.4032 49.3957 82.5109 49.448 82.6157L49.4884 82.7008C49.5555 82.8284 49.6303 82.9519 49.7124 83.0704C49.7112 83.0756 49.7112 83.0809 49.7124 83.0861C49.8104 83.2245 49.9166 83.3569 50.0304 83.4826L50.0551 83.5072C50.1611 83.6207 50.2753 83.7327 50.3978 83.8432L50.4852 83.9171C50.5972 84.0134 50.7092 84.1075 50.8436 84.1994C50.8749 84.2218 50.904 84.2464 50.9376 84.2688C51.0967 84.3808 51.2647 84.4928 51.4484 84.5958C54.5284 86.3766 59.5348 86.3766 62.6148 84.5958C62.7962 84.4906 62.962 84.383 63.121 84.271C63.1591 84.2464 63.1904 84.2195 63.2263 84.1949C63.3495 84.1053 63.4637 84.0157 63.5735 83.9216L63.6698 83.8387C63.785 83.7369 63.8949 83.6292 63.9991 83.5162L64.0349 83.4803C60.8295 85.7494 55.1869 85.12 52.6176 83.505Z" fill="black"/>
</g>
<path d="M74.7129 60.256C72.3851 62.583 69.6217 64.4286 66.5806 65.6876C63.5394 66.9467 60.2801 67.5943 56.9887 67.5937C50.3413 67.5924 43.9667 64.9506 39.2672 60.2493C34.5677 55.548 31.9282 49.1724 31.9295 42.525C31.9307 35.8776 34.5726 29.503 39.2739 24.8035L37.6566 23.1885C26.3872 34.4579 25.312 51.6611 36.5881 62.9306C47.8643 74.2 65.0361 73.1181 76.3168 61.8486L74.7129 60.256Z" fill="#37474F"/>
<path d="M35.9341 25.0544L37.5693 26.6896C38.1056 26.0328 38.6745 25.4033 39.2739 24.8035L37.6566 23.1885C37.0518 23.7933 36.4777 24.4153 35.9341 25.0544Z" fill="#263238"/>
<path d="M74.7129 60.256C74.1183 60.8509 73.4941 61.4153 72.8425 61.9472L74.4665 63.5712C75.0982 63.0291 75.715 62.4587 76.3168 61.8599L74.7129 60.256Z" fill="#263238"/>
<path d="M29.7046 44.9814C30.4281 50.9062 32.5606 57.7853 38.3017 62.8298C43.1939 67.1261 50.6755 71.6867 62.1958 69.9978C53.294 72.2512 43.7471 70.0851 36.5881 62.9261C25.6524 51.9904 26.3356 35.4749 36.6799 24.2077C36.2543 24.7206 28.3987 34.2989 29.7046 44.9814Z" fill="#455A64"/>
<path d="M77.2104 64.1491C77.4918 64.1497 77.767 64.0668 78.0011 63.9108C78.2352 63.7548 78.4177 63.5327 78.5254 63.2729C78.6332 63.013 78.6613 62.7269 78.6063 62.451C78.5512 62.1752 78.4154 61.9218 78.2162 61.7232L37.7797 21.3158C37.5124 21.0485 37.1498 20.8983 36.7717 20.8983C36.3936 20.8983 36.0311 21.0485 35.7637 21.3158C35.4964 21.5832 35.3462 21.9458 35.3462 22.3238C35.3462 22.7019 35.4964 23.0645 35.7637 23.3318L76.2047 63.7347C76.4721 64.0002 76.8336 64.1492 77.2104 64.1491Z" fill="#37474F"/>
<path d="M37.7799 21.3158L78.2163 61.7232C78.4081 61.9162 78.5407 62.1601 78.5982 62.4261C78.6558 62.6921 78.636 62.9689 78.5411 63.224C78.2935 63.3083 78.0271 63.3209 77.7726 63.2603C77.5181 63.1996 77.286 63.0682 77.103 62.8813L36.6666 22.4739C36.4743 22.2812 36.3414 22.0373 36.2838 21.7712C36.2263 21.5051 36.2464 21.2281 36.3418 20.9731C36.5898 20.8922 36.8553 20.8814 37.1091 20.9419C37.3629 21.0023 37.595 21.1318 37.7799 21.3158Z" fill="#455A64"/>
<path d="M33.7656 42.5264C33.7662 47.7232 35.5094 52.7696 38.7164 56.8588C41.9235 60.9479 46.4091 63.8436 51.4559 65.0826C56.5028 66.3217 61.8194 65.8326 66.5556 63.6936C71.2917 61.5546 75.1737 57.8892 77.5809 53.2836C79.9881 48.678 80.7814 43.3982 79.8339 38.2885C78.8863 33.1789 76.2528 28.5345 72.3543 25.0982C68.4559 21.6619 63.5177 19.6321 58.3296 19.3334C53.1414 19.0347 48.0029 20.4844 43.7359 23.4506C40.6581 25.5898 38.1439 28.4421 36.4077 31.7638C34.6715 35.0856 33.765 38.7783 33.7656 42.5264Z" fill="#BA68C8"/>
<path opacity="0.5" d="M33.7656 42.5264C33.7662 47.7232 35.5094 52.7696 38.7164 56.8588C41.9235 60.9479 46.4091 63.8436 51.4559 65.0826C56.5028 66.3217 61.8194 65.8326 66.5556 63.6936C71.2917 61.5546 75.1737 57.8892 77.5809 53.2836C79.9881 48.678 80.7814 43.3982 79.8339 38.2885C78.8863 33.1789 76.2528 28.5345 72.3543 25.0982C68.4559 21.6619 63.5177 19.6321 58.3296 19.3334C53.1414 19.0347 48.0029 20.4844 43.7359 23.4506C40.6581 25.5898 38.1439 28.4421 36.4077 31.7638C34.6715 35.0856 33.765 38.7783 33.7656 42.5264Z" fill="white"/>
<path d="M61.7815 23.0899C60.787 22.7114 59.3825 22.5546 60.0746 23.4819C60.7668 24.4093 61.3313 24.696 61.0468 25.4262C60.7623 26.1565 59.9828 26.7299 60.0097 27.3392C60.0366 27.9485 60.1822 28.7034 60.6257 28.6832C61.0692 28.663 62.5566 27.9238 63.121 28.2106C63.6855 28.4973 65.6455 29.3866 66.1966 28.849C66.7476 28.3114 67.0254 28.4771 67.7937 27.9418C68.562 27.4064 68.9137 26.4298 68.3425 26.1923C67.7713 25.9549 67.5854 26.1722 66.6378 25.7107C65.6903 25.2493 65.4977 24.425 64.4785 24.2144C63.4593 24.0038 62.5095 23.3677 61.7815 23.0899Z" fill="#455A64"/>
<path d="M58.0161 21.8803C56.6586 22.0304 53.9415 21.9878 52.9716 21.2486C52.4922 20.879 51.9345 20.4042 51.2961 20.001C45.8677 21.3781 41.1171 24.6647 37.9143 29.2589C37.9569 29.9051 38.0811 30.5433 38.2839 31.1584C38.7319 32.5024 39.5674 32.984 40.5665 33.6224C41.5655 34.2608 40.9831 34.7424 41.2586 35.5869C41.5341 36.4314 41.6125 36.8995 42.0852 37.4842C42.5578 38.0688 41.4759 38.3802 40.9652 38.9872C40.4545 39.5942 40.2215 39.9526 40.1543 41.5699C40.0871 43.1872 41.0682 44.9165 41.2743 45.6378C41.4804 46.359 40.5037 46.7062 40.226 47.9293C39.9482 49.1523 38.6714 52.1853 39.0881 54.3402C39.5047 56.495 40.2439 56.5622 40.618 55.3683C40.9921 54.1744 41.066 52.9312 42.074 52.3309C43.082 51.7306 44.3588 52.5034 45.4564 51.0989C46.554 49.6944 46.8183 49.8893 47.7703 49.6451C48.7223 49.401 48.5789 48.8051 49.7527 47.8531C50.9265 46.9011 51.594 45.8237 50.7853 44.9142C49.9767 44.0048 49.2845 43.7942 48.8948 42.2464C48.4573 40.6308 47.6866 39.1246 46.6324 37.8246C45.6513 36.6419 43.3284 36.6755 42.625 36.1267C41.9217 35.5779 42.0269 33.8643 42.3114 33.2998C42.5959 32.7354 42.0673 32.3478 41.4378 32.2605C40.8084 32.1731 40.6381 31.6826 40.786 30.8538C40.9338 30.025 42.5108 29.5366 43.5053 29.8502C44.4999 30.1638 44.8493 30.8179 44.5335 32.1395C44.3918 32.6668 44.4189 33.2252 44.6109 33.7363C44.803 34.2473 45.1503 34.6854 45.6042 34.9888C46.4061 35.5667 46.2202 34.4176 45.8417 33.5328C45.4631 32.648 45.6513 32.0544 46.6861 30.8448C47.721 29.6352 48.85 30.2131 50.2365 29.2768C51.6231 28.3405 51.4058 29.3754 52.2369 29.8547C53.0679 30.3341 53.1329 29.8077 53.7735 29.1357C54.4141 28.4637 55.2653 29.6038 56.4481 29.3194C57.6308 29.0349 56.1143 27.2496 56.5937 26.4074C57.073 25.5651 57.9377 25.9594 57.978 24.4429C58.0183 22.9264 58.7127 23.1437 59.2593 22.7898C59.8058 22.4358 59.3601 21.728 58.0161 21.8803ZM55.4199 24.584C54.8689 25.1194 54.6673 24.8931 53.9034 25.4173C53.1396 25.9414 52.2346 26.04 51.7284 25.9056C51.2221 25.7712 50.7741 24.5974 50.9444 24.0509C51.1146 23.5043 51.9457 23.6544 52.8551 23.8874C53.7646 24.1203 54.6471 24.0397 55.6865 23.7395C56.4951 23.4998 55.9642 24.0486 55.4132 24.584H55.4199Z" fill="#455A64"/>
<path d="M79.1481 49.504L79.1302 49.5667C78.9068 49.5651 78.6855 49.6091 78.4798 49.6962C78.2741 49.7832 78.0883 49.9115 77.934 50.073C76.9641 51.0787 77.0851 50.521 75.6067 50.8704C74.1283 51.2198 74.3097 52.0464 74.0387 52.8864C73.7676 53.7264 72.0675 54.1251 71.2924 54.152C70.5174 54.1789 69.478 55.9306 69.3302 56.9229C69.1824 57.9152 67.9481 57.8525 66.9513 58.4147C65.9545 58.977 65.0204 60.2067 64.3193 60.6995C63.9764 60.9478 63.569 61.0918 63.1462 61.114C62.7233 61.1363 62.3031 61.0359 61.936 60.825C61.2012 60.377 60.9929 58.7798 61.0198 57.4784C61.0346 56.1504 61.4227 54.8533 62.1398 53.7354C62.8768 52.6042 62.7289 52.7206 63.206 50.6845C63.6832 48.6483 62.5564 47.5328 61.8889 47.0512C61.2214 46.5696 59.8214 46.5091 59.3152 45.8595C58.8089 45.2099 58.7484 44.5357 59.0441 42.5533C59.3398 40.5709 60.3881 40.5194 61.4857 39.825C62.5833 39.1306 64.3641 38.6557 65.7417 38.8102C67.1193 38.9648 67.8294 39.6301 68.4297 40.3133C69.03 40.9965 69.0524 41.9821 69.5676 42.2554C70.0828 42.5286 70.6585 42.4346 71.158 42.7549C71.6576 43.0752 71.9129 43.4829 72.4729 43.6038C73.0329 43.7248 72.9433 42.9878 73.0016 42.6227C73.0598 42.2576 72.5536 42.1546 71.9196 41.897C71.2857 41.6394 71.2006 41.4019 71.1424 40.8934C71.0841 40.385 70.5779 40.6067 70.3427 40.3133C70.1075 40.0198 69.8566 40.8173 69.711 41.104C69.5654 41.3907 69.543 40.7725 69.543 40.7725C69.543 40.7725 69.1196 41.0771 69.0816 40.8442C69.0435 40.6112 69.4825 40.264 69.6326 39.7869C69.7827 39.3098 69.0704 39.1507 68.7948 38.6266C68.5193 38.1024 67.9593 37.8179 67.3142 37.7798C66.6691 37.7418 66.6198 37.5558 66.1673 37.9635C65.7148 38.3712 64.3395 38.2077 63.9744 37.9859C63.6092 37.7642 64.1984 37.0742 64.8233 36.5053C65.4483 35.9363 66.0396 36.4493 66.7564 35.9117C67.4732 35.3741 66.9222 35.0358 66.5705 34.7603C66.2188 34.4848 66.248 34.057 67.0185 33.3178C67.7891 32.5786 68.2505 33.049 68.3088 33.5597C68.367 34.0704 68.7836 34.4758 69.319 34.6954C69.8544 34.9149 69.8745 34.4893 70.1724 33.7098C70.4704 32.9302 70.9945 32.657 71.8166 32.6435C72.6387 32.6301 74.0096 32.6211 74.6323 32.3814C75.255 32.1418 75.9404 32.7354 76.1801 33.3581C76.4198 33.9808 77.2867 34.5251 78.1961 35.0851C78.3144 35.1549 78.4474 35.1957 78.5845 35.2043C78.7215 35.2128 78.8586 35.1889 78.9846 35.1344C80.5642 39.7853 80.6215 44.8184 79.1481 49.504Z" fill="#455A64"/>
<path d="M70.8646 58.4886C70.3741 58.1885 70.3517 58.3811 69.879 58.6701C69.4064 58.959 68.759 59.2502 68.6762 59.7117C68.5933 60.1731 68.4141 60.7219 68.9002 60.5494C69.3862 60.377 69.4154 59.9469 70.0202 59.92C70.625 59.8931 71.5971 58.9366 70.8646 58.4886Z" fill="#455A64"/>
<path opacity="0.1" d="M70.2598 25.6614C58.1145 16.1997 51.8022 24.5414 56.719 33.3491C61.6358 42.1568 73.3331 49.0986 76.5721 45.8931C79.8112 42.6877 79.296 32.704 70.2598 25.6614Z" fill="white"/>
<path opacity="0.15" d="M46.8159 50.9869C39.6479 37.9568 46.7868 21.0896 58.343 19.3402C57.895 19.3133 57.447 19.2954 56.999 19.2954C53.1712 19.2948 49.4026 20.2403 46.0284 22.0477C42.6542 23.8551 39.779 26.4684 37.6586 29.6552C35.5381 32.842 34.2381 36.5034 33.8742 40.3139C33.5104 44.1243 34.0938 47.9656 35.5728 51.4962C37.0518 55.0267 39.3804 58.1369 42.3515 60.5503C45.3226 62.9637 48.8441 64.6054 52.6028 65.3293C56.3615 66.0532 60.2409 65.837 63.8958 64.6998C67.5508 63.5627 70.868 61.5398 73.5525 58.8112C68.8597 61.7882 53.9839 64.008 46.8159 50.9869Z" fill="black"/>
<path d="M93.2401 82.2326C93.281 82.1544 93.3104 82.0707 93.3274 81.984C93.3771 81.7036 93.3355 81.4147 93.2087 81.1597C93.0629 80.8516 92.9952 80.5123 93.0116 80.1718C93.0273 79.8179 93.0698 79.4998 93.1236 79.1235C93.3476 77.5354 93.7956 74.9168 93.8135 74.2918C93.8404 73.2256 93.8404 72.6992 93.641 71.8614C93.641 71.8614 94.3825 69.4422 94.6961 68.0534C95.1956 65.8515 95.5316 64.1446 95.3546 62.2294C95.1956 60.5024 95.3837 59.7654 94.3757 58.6118L94.1876 58.3722C94.1876 58.3722 90.6887 62.1354 90.4893 62.7872C90.3684 64.9264 90.2922 67.4912 90.225 69.5072C90.1713 71.1805 90.2384 71.4067 90.4311 73.3712C90.5924 74.9907 90.7559 76.7805 90.9485 78.6822C91.0112 79.2848 91.0583 80.0061 90.8679 80.5907C90.4737 81.7958 89.3693 82.5104 88.4375 83.2787C88.3473 83.3342 88.2699 83.4083 88.2104 83.4959C88.1509 83.5836 88.1108 83.6829 88.0925 83.7872C88.0972 83.8783 88.1266 83.9665 88.1775 84.0422C88.2284 84.118 88.2989 84.1785 88.3815 84.2173C88.5822 84.3014 88.7959 84.3507 89.0132 84.3629C89.2443 84.4113 89.4806 84.4309 89.7165 84.4211C90.1284 84.4096 90.5356 84.3302 90.9217 84.1859C91.2487 84.0291 91.4906 83.6528 91.7482 83.393C91.9659 83.1314 92.2141 82.8968 92.4874 82.6941C92.7204 82.5507 93.0945 82.4925 93.2401 82.2326Z" fill="#FFA8A7"/>
<path d="M88.0163 83.9462C87.9916 84.0999 88.0183 84.2574 88.0924 84.3942C88.2089 84.5398 88.639 84.9251 89.7478 84.8803C90.814 84.8355 91.4368 84.3248 91.6563 84.0403C91.8758 83.7558 92.0752 83.4736 92.2924 83.2429C92.5016 83.0547 92.7516 82.9174 93.0227 82.8419C93.2332 82.7747 93.2915 82.6986 93.2713 82.3939C93.2064 82.1139 88.0163 83.9462 88.0163 83.9462Z" fill="#37474F"/>
<path d="M93.0093 80.2525C93.006 80.3159 93.006 80.3794 93.0093 80.4429C93.0093 80.4429 93.0272 80.8752 92.7427 80.9738C92.4089 81.0947 92.4313 80.8483 92.1782 80.6467C91.6249 80.2099 90.9529 80.2458 90.7917 80.6176C90.4584 81.2255 90.0423 81.7841 89.5552 82.2774C89.3368 82.4879 89.1024 82.6812 88.8541 82.8554C88.5875 83.0458 87.9357 83.3885 88.0006 83.8096C88.0656 84.2307 88.4598 84.4614 88.9952 84.5488C89.721 84.6576 90.462 84.5111 91.0918 84.1344C91.5846 83.8141 92.0125 83.1936 92.1961 83.0144C92.5299 82.6851 93.0675 82.6157 93.2377 82.4499C93.392 82.156 93.4342 81.8161 93.3565 81.4934C93.2893 81.1171 93.1907 80.7811 93.1773 80.5974C93.1638 80.4138 93.1414 80.2682 93.0093 80.2525Z" fill="#455A64"/>
<path d="M89.683 82.824C89.4517 82.7487 89.2053 82.7325 88.9662 82.777C88.8961 82.7838 88.8293 82.8102 88.7735 82.8531C88.507 83.0435 87.9134 83.3773 87.9783 83.7984C88.0433 84.2195 88.4263 84.4704 88.9594 84.5622C89.4522 84.6451 90.3169 84.6384 90.9262 84.2307C90.8799 83.9001 90.7374 83.5904 90.5163 83.3402C90.2952 83.09 90.0054 82.9105 89.683 82.824Z" fill="#F0F0F0"/>
<path d="M103.248 80.6781C103.175 80.4732 103.049 80.2911 102.883 80.1494C102.706 79.9837 102.509 79.8426 102.35 79.6611C102.219 79.4744 102.116 79.269 102.046 79.0518C101.992 78.9219 101.86 78.4851 101.692 77.905C101.244 76.3638 100.529 73.8058 100.28 73.2301C99.8571 72.2534 99.4427 71.6217 98.9096 71.1805C98.9096 71.1805 98.7842 68.5126 98.7349 67.0992C98.6632 65.0093 98.419 62.7558 97.4133 61.2954C96.4277 59.8685 95.5899 59.407 94.1877 58.7821L93.9166 58.6432C93.9166 58.6432 93.4462 65.2377 93.7374 64.951C94.1093 66.6557 94.6021 68.656 95.012 70.4054C95.3816 71.9846 95.4802 72.2758 96.58 73.9424C97.476 75.3021 98.5355 76.9216 99.5122 78.5658C99.9355 79.2803 100.408 80.239 100.507 81.0835C100.633 82.2257 100.33 83.374 99.6555 84.3046C99.5532 84.4109 99.4886 84.5478 99.4718 84.6944C99.4718 84.8982 99.6958 85.0304 99.8862 85.0976C100.366 85.257 100.887 85.2427 101.358 85.0573C101.753 84.8969 102.091 84.6197 102.324 84.2627C102.558 83.9057 102.677 83.4858 102.666 83.0592C102.62 82.575 102.716 82.0878 102.942 81.657C103.078 81.4173 103.269 81.1866 103.282 80.9088C103.284 80.8305 103.273 80.7524 103.248 80.6781Z" fill="#FFA8A7"/>
<path d="M99.4763 85.1357C99.5078 85.2588 99.5736 85.3704 99.666 85.4576C99.7583 85.5448 99.8736 85.6041 99.9982 85.6285C100.335 85.6983 100.682 85.6968 101.018 85.6243C101.354 85.5518 101.671 85.4098 101.949 85.2074C102.789 84.6048 102.899 84.1053 102.937 83.6528C102.975 83.2003 102.845 82.553 103.002 82.2125C103.159 81.872 103.36 81.648 103.416 81.3904C103.44 81.1813 103.418 80.9695 103.352 80.7699L99.4763 85.1357Z" fill="#37474F"/>
<path d="M102.35 79.6611C102.35 79.6611 102.44 79.8134 102.458 79.8605C102.53 79.9952 102.552 80.1515 102.519 80.3009C102.485 80.4502 102.399 80.5825 102.276 80.6736C102.146 80.7856 101.864 80.6736 101.624 80.6467C101.405 80.6259 101.183 80.6585 100.979 80.7415C100.775 80.8246 100.593 80.9557 100.451 81.1238C100.475 81.8899 100.493 82.3446 100.28 82.9629C100.133 83.2843 99.9609 83.5936 99.7652 83.888C99.5591 84.1523 99.194 84.5824 99.3844 84.9632C99.4903 85.1411 99.6602 85.2717 99.8592 85.3283C100.183 85.4155 100.522 85.4322 100.854 85.3773C101.185 85.3225 101.5 85.1973 101.779 85.0102C102.057 84.8449 102.291 84.6139 102.46 84.3375C102.628 84.0611 102.727 83.7476 102.747 83.4243C102.812 82.9158 102.7 82.376 102.89 82.0019C103.08 81.6278 103.338 81.4979 103.405 80.985C103.408 80.8651 103.383 80.7461 103.333 80.6373C103.282 80.5285 103.207 80.4329 103.114 80.3578C102.702 79.968 102.467 79.5066 102.35 79.6611Z" fill="#455A64"/>
<path d="M101.846 83.8813C101.571 83.6506 101.229 83.5144 100.87 83.4927C100.512 83.4709 100.156 83.5647 99.8548 83.7603C99.8073 83.8033 99.7639 83.8506 99.7249 83.9014C99.5188 84.1658 99.1537 84.5734 99.3441 84.952C99.3909 85.0493 99.4592 85.1347 99.5438 85.2018C99.6283 85.2689 99.727 85.316 99.8324 85.3395C100.162 85.4232 100.505 85.4371 100.84 85.3804C101.176 85.3237 101.495 85.1976 101.779 85.0102C101.942 84.9035 102.093 84.778 102.227 84.6362L102.243 84.6182V84.6048C102.186 84.3293 102.048 84.0771 101.846 83.8813Z" fill="#F0F0F0"/>
<path d="M90.4379 62.9798C90.2654 65.5872 90.1377 68.9427 90.1377 68.9427C90.1377 68.9427 90.7358 69.6147 92.4023 69.7334C94.0689 69.8522 94.3691 69.7334 94.3691 69.7334L94.5617 69.0502L94.7521 69.888C94.7521 69.888 95.4779 70.1747 97.0593 69.888C98.8334 69.5654 99.0753 68.8912 99.0753 68.8912C99.0753 68.8912 99.0417 66.2816 98.914 64.8592C98.7863 63.4368 97.8187 61.0893 97.8187 61.0893L90.4379 62.9798Z" fill="#455A64"/>
<path d="M94.5617 69.0502L93.9905 66.6781C93.4012 66.6739 92.8217 66.5271 92.3015 66.2502C92.3015 66.2502 92.6599 66.9626 93.7777 67.1059L94.3242 69.0502L94.369 69.7334L94.5617 69.0502Z" fill="#37474F"/>
<path d="M86.2962 47.9629L87.5842 51.4685C87.5842 51.4685 91.1122 53.2358 92.7362 53.8653C92.2322 54.2102 91.8827 54.6941 91.484 55.6461L91.1682 56.5981C91.1682 56.5981 88.0053 54.8061 86.2021 53.5226C85.3822 52.9357 85.2568 52.3622 85.1179 51.744C84.9499 50.9891 84.8671 50.5478 84.6184 49.1568C84.5579 48.8074 84.4952 48.4848 84.4347 48.1869C84.3238 47.6878 84.1862 47.1951 84.0226 46.7107C83.8724 46.2348 83.8228 45.7329 83.877 45.2368C83.8734 44.8484 84.0027 44.4704 84.2435 44.1657C84.4843 43.8609 84.8221 43.6476 85.2008 43.5613C85.2972 43.5189 85.4051 43.5109 85.5067 43.5386C85.6082 43.5664 85.6971 43.6281 85.7586 43.7136C85.8031 43.826 85.8155 43.9485 85.7944 44.0675C85.7563 44.5715 85.6712 45.0867 85.7944 45.5773C85.7976 45.6093 85.8076 45.6404 85.8238 45.6682C85.8401 45.696 85.8621 45.72 85.8885 45.7386C85.996 45.7946 86.1551 45.4048 86.2312 45.3242C86.2993 45.2325 86.3999 45.1704 86.5123 45.1504C86.6247 45.1304 86.7405 45.1541 86.836 45.2166C86.9144 45.2771 86.7464 45.4563 86.6479 45.8416C86.5247 46.3344 86.6031 46.7376 86.3432 47.2214C86.2859 47.3355 86.2523 47.46 86.2442 47.5874C86.2361 47.7148 86.2538 47.8425 86.2962 47.9629Z" fill="#FFA8A7"/>
<path d="M92.6152 53.7062L89.9272 52.6176C89.9272 52.6176 89.45 52.6176 88.8878 53.5741C88.7234 53.8563 88.6168 54.1684 88.5741 54.4922C88.5314 54.8159 88.5535 55.145 88.6392 55.4602L90.98 56.8042L92.6152 53.7062Z" fill="#455A64"/>
<path d="M97.3348 54.208C98.0404 54.3334 98.3742 54.8912 98.5287 55.5901C98.6049 55.9395 98.5624 56.3539 98.4616 57.0886C98.3608 57.8234 97.8881 61.0512 97.8881 61.0512L98.7259 63.551C97.5902 64.7853 92.8212 65.791 90.3416 63.9677C90.3416 63.9677 90.5476 57.7091 90.7336 56.4614C90.9844 54.7702 91.6116 53.8989 92.3732 53.7264C92.5895 53.6999 92.8077 53.6939 93.0251 53.7085L95.7892 53.8608L97.3348 54.208Z" fill="#BA68C8"/>
<path d="M98.8424 64.391L99.2635 60.6794C99.2635 60.6794 98.2958 59.3354 97.2856 57.9398C96.114 56.0605 97.5409 54.2618 97.5409 54.2618C98.9768 54.5104 98.9297 55.3818 101.414 59.4608C101.938 60.321 101.862 60.3568 101.586 61.535C101.416 62.2899 101.279 62.7155 100.879 64.073C100.778 64.4112 100.688 64.7293 100.61 65.0205C100.487 65.5167 100.39 66.0192 100.321 66.5258C100.241 67.0186 100.061 67.4898 99.7921 67.9101C99.6152 68.2274 99.357 68.4918 99.044 68.6762C98.6715 68.839 98.2595 68.8889 97.859 68.8195C97.7558 68.8113 97.6584 68.7686 97.5825 68.6983C97.5065 68.628 97.4564 68.5342 97.4401 68.432C97.449 68.311 97.4926 68.1951 97.5656 68.0982C97.8232 67.6659 98.13 67.2426 98.2376 66.7542C98.2488 66.7241 98.2534 66.6919 98.2511 66.6598C98.2488 66.6277 98.2396 66.5965 98.2241 66.5683C98.1547 66.472 97.8366 66.7498 97.7336 66.7923C97.6316 66.8446 97.5135 66.8559 97.4035 66.8238C97.2935 66.7918 97.2 66.7188 97.1422 66.6198C97.1019 66.5302 97.3326 66.4451 97.5902 66.1427C97.9217 65.7574 98.0382 65.3632 98.4862 65.0474C98.5862 64.9671 98.6691 64.8677 98.7303 64.755C98.7914 64.6423 98.8295 64.5186 98.8424 64.391Z" fill="#FFA8A7"/>
<path d="M97.3347 54.208C97.8634 54.2797 98.1703 54.3424 98.56 54.7075C98.9237 55.0625 99.2264 55.475 99.456 55.9283L100.46 57.7046C100.46 57.7046 100.236 58.9053 98.3159 59.4496C98.3159 59.4496 96.9719 57.6957 96.8307 57.409C96.6896 57.1222 96.0109 55.2653 97.3347 54.208Z" fill="#455A64"/>
<path d="M95.9325 53.0006C96.5507 52.0643 97.4848 52.0307 98.3024 50.5702C99.1827 49.0022 98.0179 47.2998 97.6147 47.0109C97.6147 47.0109 97.5834 46.1731 96.4253 45.4832C94.9782 44.6186 92.017 44.8112 90.7312 46.8742L95.9325 53.0006Z" fill="#37474F"/>
<path d="M97.5208 46.937C98.2936 46.1619 99.3128 46.041 100.209 46.7533C101.271 47.5955 101.118 50.0371 102.579 50.4493C103.166 50.615 102.913 51.2266 102.131 51.4125C101.085 51.6566 100.072 51.1504 99.5167 49.8893C98.9611 48.6282 98.8805 47.2013 97.8703 47.3738C97.1848 47.488 97.5208 46.937 97.5208 46.937Z" fill="#37474F"/>
<path d="M96.2865 50.297C96.4209 50.3955 96.45 50.4403 96.5687 50.2186C96.8263 49.7392 97.4871 49.672 97.7044 50.1334C97.9911 50.745 97.6036 51.3184 97.0593 51.5379C96.3313 51.8314 96.1342 51.3878 96.1342 51.3878L95.7892 54.1587C95.5812 54.5143 95.288 54.8127 94.9361 55.027C94.5843 55.2412 94.1846 55.3647 93.7732 55.3862C92.3889 55.431 92.5658 54.3267 93.0721 53.8182L93.1057 52.9984C92.7644 52.9824 92.4275 52.9144 92.1066 52.7968C91.6833 52.6333 91.3786 52.3376 91.1614 51.6477C90.8679 50.7203 90.9172 49.7414 91.3854 47.9472C91.9297 45.8685 94.5348 46.0723 95.7825 47.0512C97.0302 48.0301 96.2865 50.297 96.2865 50.297Z" fill="#FFA8A7"/>
<path d="M96.5843 49.056L96.7613 47.1475L94.0576 45.3376C93.6096 45.2804 93.1547 45.3121 92.7189 45.4308C92.2831 45.5495 91.875 45.7529 91.5178 46.0293C91.1607 46.3058 90.8615 46.6499 90.6373 47.042C90.4132 47.4341 90.2685 47.8665 90.2115 48.3146L90.1555 48.7626L91.8243 48.9754C92.2003 49.023 92.5807 48.9328 92.8954 48.7215C93.21 48.5103 93.4374 48.1922 93.5357 47.8262L93.4259 49.1702C93.7352 49.2093 94.0478 49.1312 94.3024 48.9512C94.5569 48.7713 94.7349 48.5026 94.8013 48.1981L94.8461 47.9741C94.8303 48.3231 94.9386 48.6665 95.1518 48.9432C95.365 49.22 95.6694 49.4123 96.0109 49.4861L95.9571 50.2006C95.9452 50.3561 95.9945 50.5102 96.0945 50.6298C96.1945 50.7495 96.3373 50.8254 96.4925 50.8413L96.5686 50.2186L96.8957 49.1344L96.5843 49.056Z" fill="#37474F"/>
<path d="M93.8561 49.8579C93.8524 49.914 93.8654 49.97 93.8933 50.0188C93.9212 50.0676 93.9628 50.1072 94.013 50.1325C94.0632 50.1578 94.1197 50.1678 94.1756 50.1613C94.2314 50.1547 94.2841 50.1319 94.3271 50.0956C94.3701 50.0594 94.4014 50.0113 94.4173 49.9573C94.4331 49.9034 94.4328 49.8459 94.4162 49.7922C94.3997 49.7384 94.3677 49.6907 94.3243 49.655C94.2808 49.6193 94.2278 49.5972 94.1719 49.5914C94.1336 49.588 94.0951 49.5922 94.0585 49.6038C94.0218 49.6154 93.9879 49.6341 93.9585 49.6589C93.9292 49.6837 93.905 49.714 93.8874 49.7482C93.8698 49.7823 93.8592 49.8196 93.8561 49.8579Z" fill="#263238"/>
<path d="M94.304 49.0358L94.8752 49.4323C94.927 49.3536 94.9464 49.2579 94.9293 49.1652C94.9121 49.0725 94.8599 48.9901 94.7833 48.935C94.7456 48.9091 94.703 48.8911 94.658 48.8821C94.6131 48.8731 94.5669 48.8733 94.522 48.8827C94.4772 48.8922 94.4348 48.9106 94.3973 48.9369C94.3598 48.9632 94.328 48.9969 94.304 49.0358Z" fill="#263238"/>
<path d="M93.9882 51.3229L92.8682 51.6163C92.8842 51.6909 92.9151 51.7614 92.959 51.8238C93.0029 51.8861 93.059 51.939 93.1238 51.9791C93.1887 52.0193 93.261 52.0459 93.3363 52.0575C93.4117 52.0691 93.4887 52.0653 93.5626 52.0464C93.7134 52.0043 93.842 51.9054 93.9213 51.7705C94.0007 51.6356 94.0247 51.4751 93.9882 51.3229Z" fill="#B16668"/>
<path d="M93.9682 51.6701C93.8991 51.626 93.8198 51.6006 93.738 51.5965C93.6562 51.5923 93.5747 51.6094 93.5015 51.6463C93.4283 51.6831 93.3659 51.7383 93.3205 51.8065C93.2751 51.8747 93.2482 51.9535 93.2424 52.0352C93.3476 52.0667 93.4598 52.0667 93.565 52.0352C93.6567 52.0114 93.7412 51.9658 93.8114 51.9022C93.8817 51.8386 93.9354 51.759 93.9682 51.6701Z" fill="#F28F8F"/>
<path d="M91.392 48.7021L92.064 48.5318C92.0554 48.4868 92.0376 48.4439 92.0117 48.406C91.9858 48.3681 91.9524 48.336 91.9135 48.3116C91.8746 48.2872 91.8311 48.2711 91.7857 48.2643C91.7403 48.2575 91.694 48.2601 91.6496 48.272C91.5596 48.2968 91.4826 48.3553 91.4346 48.4354C91.3867 48.5155 91.3714 48.611 91.392 48.7021Z" fill="#263238"/>
<path d="M91.4706 49.5891C91.4669 49.6452 91.4799 49.7012 91.5078 49.75C91.5357 49.7988 91.5773 49.8384 91.6275 49.8637C91.6777 49.889 91.7343 49.899 91.7901 49.8925C91.846 49.8859 91.8986 49.8631 91.9416 49.8268C91.9846 49.7906 92.0159 49.7425 92.0318 49.6885C92.0476 49.6346 92.0473 49.5771 92.0307 49.5234C92.0142 49.4696 91.9822 49.422 91.9388 49.3862C91.8953 49.3505 91.8423 49.3284 91.7864 49.3226C91.7093 49.3163 91.6328 49.3409 91.5736 49.3908C91.5144 49.4407 91.4774 49.512 91.4706 49.5891Z" fill="#263238"/>
<path d="M93.0251 49.4592L92.7854 50.9734L92.0171 50.6218L93.0251 49.4592Z" fill="#F28F8F"/>
<path d="M93.1079 53.0029C93.1079 53.0029 94.481 53.0029 95.1374 52.6691C95.4032 52.5485 95.6343 52.3629 95.8094 52.1293C95.7237 52.3827 95.5803 52.6127 95.3905 52.8013C94.7073 53.4576 93.0945 53.3232 93.0945 53.3232L93.1079 53.0029Z" fill="#F28F8F"/>
<path d="M88.2986 42.047C88.1773 41.7936 88.0073 41.5665 87.7982 41.3788C87.5891 41.1911 87.3451 41.0464 87.0801 40.953C86.8151 40.8596 86.5343 40.8193 86.2537 40.8345C85.9731 40.8496 85.6983 40.9199 85.4449 41.0413C83.6126 41.9171 82.8062 44.6746 82.8062 44.6746C82.8062 44.6746 85.4606 45.7766 87.2862 44.8986C87.5399 44.7779 87.7674 44.6083 87.9556 44.3997C88.1438 44.191 88.2891 43.9474 88.3831 43.6826C88.4772 43.4178 88.5181 43.137 88.5036 42.8564C88.4891 42.5758 88.4194 42.3007 88.2986 42.047ZM85.5524 43.3619C85.4634 43.177 85.4313 42.9698 85.4602 42.7666C85.489 42.5634 85.5775 42.3734 85.7144 42.2205C85.8513 42.0676 86.0305 41.9588 86.2293 41.9078C86.4281 41.8568 86.6375 41.8659 86.8311 41.934C87.0247 42.0021 87.1938 42.1261 87.3169 42.2903C87.4399 42.4545 87.5116 42.6515 87.5226 42.8564C87.5337 43.0614 87.4837 43.265 87.379 43.4415C87.2743 43.618 87.1196 43.7595 86.9345 43.848C86.8118 43.907 86.6788 43.9412 86.5429 43.9487C86.407 43.9562 86.271 43.9368 86.1426 43.8916C86.0142 43.8465 85.896 43.7764 85.7947 43.6856C85.6935 43.5947 85.6111 43.4847 85.5524 43.3619Z" fill="#BA68C8"/>
<path d="M12.3425 80.9088C12.5418 80.2502 13.9866 75.7366 14.5377 74.2067C15.1604 72.4797 15.2455 71.8704 15.6308 70.2957C15.8122 69.5475 16.0116 68.7546 16.2087 67.9594C16.473 69.1869 16.8673 71.3597 16.9524 71.839C16.9524 71.913 16.939 72.0026 16.93 72.1056C16.7642 72.847 16.7598 73.3734 16.7754 74.3635C16.7754 74.9907 17.1898 77.616 17.4161 79.2042C17.4676 79.5558 17.5214 79.9075 17.5572 80.2614C17.5626 80.6027 17.4785 80.9395 17.313 81.2381C17.1825 81.491 17.1377 81.7795 17.1854 82.0602C17.2003 82.1478 17.2291 82.2324 17.2705 82.311C17.4138 82.5709 17.7028 82.6538 17.9425 82.8016C18.2342 83.0404 18.5 83.3092 18.7354 83.6035C18.9739 83.8787 19.2581 84.1105 19.5754 84.289C19.9597 84.4381 20.3664 84.5214 20.7783 84.5354C21.014 84.5485 21.2504 84.5312 21.4817 84.4838C21.6993 84.4756 21.9139 84.4294 22.1156 84.3472C22.1984 84.3088 22.2694 84.2488 22.321 84.1735C22.3726 84.0982 22.403 84.0105 22.409 83.9194C22.391 83.8149 22.3514 83.7154 22.2928 83.6271C22.2342 83.5388 22.1578 83.4636 22.0686 83.4064C21.1434 82.6291 19.795 81.657 19.5508 80.4115C19.5508 80.4115 19.6874 79.4058 19.739 78.801C19.9204 76.7514 19.9966 75.0982 20.1713 73.481C20.3953 71.5187 20.4558 71.2925 20.4177 69.6192C20.4042 69.0525 20.3774 68.4477 20.3415 67.8272C20.3102 65.8672 20.1847 63.9677 20.1892 62.5072C20.1892 62.5072 17.4788 62.5587 15.3306 62.6954C13.0145 62.9776 12.2238 63.5018 12.2932 63.7974C12.0958 64.8381 11.9797 65.8926 11.946 66.9514C11.8721 68.3648 11.6481 72.0451 11.6481 72.0451C11.0976 72.9881 10.7569 74.0386 10.649 75.1251C10.5841 75.7478 10.3332 79.9478 10.2794 80.2525C10.1903 80.5338 10.0614 80.8008 9.8964 81.0454C9.77085 81.2235 9.69366 81.4312 9.6724 81.648C9.6694 81.7238 9.67925 81.7995 9.70152 81.872C9.7844 82.1386 10.0263 82.32 10.219 82.5126C10.5454 82.8734 10.7588 83.322 10.8327 83.8029C10.9285 84.219 11.149 84.5961 11.4648 84.8835C11.7807 85.1709 12.1768 85.355 12.6001 85.4112C13.1015 85.4733 13.6088 85.3575 14.0337 85.0842C14.2039 84.9722 14.3764 84.7907 14.3338 84.5891C14.284 84.4508 14.1873 84.3343 14.0606 84.2598C13.1536 83.5532 12.5419 82.5343 12.3447 81.4016C12.3102 81.2369 12.3102 81.0668 12.3447 80.9021" fill="#B16668"/>
<path d="M17.2078 82.3984C17.2078 82.3984 17.1339 82.3984 17.1428 82.5821C17.1387 82.6632 17.1576 82.7439 17.1972 82.8148C17.2368 82.8857 17.2956 82.944 17.3668 82.983C17.5214 83.095 18.0724 83.319 18.4174 83.7738C18.6593 84.0941 18.7646 84.4458 19.5732 84.8691C20.3819 85.2925 21.5444 85.1245 21.9476 84.9206C22.3508 84.7168 22.4382 84.6339 22.4606 84.2733L17.2078 82.3984Z" fill="#263238"/>
<path d="M19.544 80.416C19.4432 80.5706 18.8967 80.64 18.648 80.7386C18.3994 80.8371 18.442 81.3747 18.442 81.3747C18.218 81.3747 18.218 81.2112 18.1328 80.9267C18.0096 80.4586 17.6624 80.4608 17.5504 80.4003V80.257C17.5504 80.257 17.4317 80.2234 17.4048 80.4474C17.365 80.7479 17.2975 81.0441 17.2033 81.3322C17.1361 81.5315 17.0263 82.2618 17.1808 82.4835C17.3311 82.6172 17.493 82.7372 17.6647 82.8419C18.0401 83.0582 18.3696 83.3459 18.6346 83.6886C18.8317 83.9866 19.4388 84.6765 20.7716 84.6899C22.1044 84.7034 22.474 84.224 22.474 84.224C22.5635 84.0652 22.5901 83.8785 22.5486 83.701C22.5071 83.5235 22.4006 83.368 22.25 83.2653C21.6989 82.8598 21.466 82.6829 20.7872 82.1453C19.674 81.2582 19.9652 80.313 19.544 80.416Z" fill="#455A64"/>
<path d="M19.3962 84.3651C19.6606 83.711 20.0122 83.2451 20.7178 82.9875C21.4234 82.7299 21.746 82.8128 22.0372 82.9875C22.3284 83.1622 22.8369 83.599 22.4852 84.2285C22.4852 84.2285 22.2858 84.7414 21.0046 84.7683C19.7233 84.7952 19.3962 84.3651 19.3962 84.3651Z" fill="#FAFAFA"/>
<path d="M9.47527 82.0422C9.41703 82.2662 9.35207 82.4454 9.56039 82.6941C9.76871 82.9427 10.033 83.0906 10.2145 83.2854C10.3959 83.4803 10.4676 83.9104 10.5796 84.2755C10.7446 84.8121 11.0977 85.2711 11.5741 85.568C12.1297 85.8749 12.5754 86.016 13.2183 85.8995C13.8612 85.783 14.2084 85.5837 14.3674 85.0326L9.47527 82.0422Z" fill="#263238"/>
<path d="M12.4658 80.8259C12.5643 80.5594 11.9013 80.9626 11.1621 80.7834C11.0299 80.752 10.9672 80.8102 10.9381 80.9469C10.909 81.0835 10.8754 81.2291 10.7141 81.1709C10.6821 81.1568 10.6534 81.1361 10.6299 81.1103C10.6064 81.0844 10.5885 81.054 10.5774 81.0208C10.5566 80.9536 10.5424 80.8846 10.5349 80.8147C10.5058 80.6243 10.4587 80.3443 10.2773 80.2502L10.3109 80.0262C10.3109 80.0262 10.1384 79.8672 10.0286 80.407C9.91889 80.9469 9.35665 81.303 9.48433 82.04C9.61835 82.2813 9.79433 82.4967 10.004 82.6762C10.3713 82.9558 10.6244 83.3594 10.7163 83.8118C10.835 84.3606 11.3458 85.1939 12.0917 85.4112C12.4856 85.5366 12.9044 85.5632 13.3111 85.4886C13.7177 85.414 14.0998 85.2405 14.4235 84.9834C14.4772 84.905 14.5144 84.8167 14.533 84.7235C14.5516 84.6304 14.5512 84.5345 14.5317 84.4416C14.5123 84.3487 14.4742 84.2606 14.4198 84.1828C14.3654 84.105 14.2958 84.039 14.2152 83.9888C13.7741 83.6563 13.3826 83.2626 13.0526 82.8195C12.7077 82.4096 12.365 81.4352 12.4658 80.8259Z" fill="#455A64"/>
<path d="M11.312 84.9162C11.6525 84.3942 12.0781 83.7962 12.88 83.6259C13.6819 83.4557 14.0247 83.8074 14.2957 84.0381C14.3687 84.0905 14.4299 84.1575 14.4754 84.235C14.5209 84.3125 14.5496 84.3987 14.5598 84.488C14.5699 84.5773 14.5612 84.6677 14.5342 84.7534C14.5073 84.8391 14.4626 84.9182 14.4032 84.9856C14.1855 85.2073 13.9206 85.3771 13.6281 85.4822C13.3357 85.5873 13.0233 85.625 12.7143 85.5926C12.4473 85.5785 12.1859 85.5114 11.9452 85.3952C11.7045 85.2791 11.4892 85.1162 11.312 84.9162Z" fill="#FAFAFA"/>
<path d="M12.1857 62.4288C12.1857 62.4288 12.0065 64.5322 11.9415 65.7664C11.8766 67.0006 11.4935 71.9622 11.4935 71.9622C10.9742 72.8687 10.6564 73.8764 10.5617 74.9168C10.4026 76.5408 10.3489 78.2275 10.3108 78.7405C10.3108 78.7405 11.5764 79.5738 12.9137 79.2781C13.0122 78.904 14.7818 73.9021 15.1761 72.6163C15.5569 71.3731 16.193 68.4208 16.193 68.4208C16.193 68.4208 16.7598 71.2006 16.6724 71.7248C16.323 73.8349 17.1204 77.3875 17.275 78.848C17.275 78.848 17.434 79.2646 18.4823 79.2781C19.5665 79.2915 19.7703 78.9219 19.7703 78.9219C19.7703 78.9219 20.4423 71.904 20.5162 70.5802C20.5901 69.2563 20.337 64.2342 20.1735 62.5162L12.1857 62.4288Z" fill="#455A64"/>
<path d="M16.2019 68.4208L16.4259 67.1037C16.4259 67.1037 18.1865 66.976 18.9661 66.1046C18.9661 66.1046 18.6973 67.256 16.8537 67.4195L16.6073 68.6918L16.6701 71.2589C16.5446 70.3002 16.3721 69.4624 16.2019 68.4208Z" fill="#37474F"/>
<path d="M23.6366 47.0154L22.5166 50.577C22.5166 50.577 19.0626 52.4966 17.4722 53.1955C17.9896 53.5181 18.3682 53.984 18.7982 54.9181L19.1477 55.8566C19.1477 55.8566 22.2299 53.9302 23.9749 52.5661C24.7701 51.9456 24.8709 51.3654 24.9784 50.7427C25.115 49.9811 25.1778 49.5376 25.3659 48.1354C25.4107 47.7859 25.46 47.4634 25.5048 47.161C25.5953 46.6572 25.7119 46.1585 25.8542 45.6669C25.9828 45.1849 26.0103 44.6816 25.9349 44.1885C25.921 43.8004 25.7751 43.4286 25.5214 43.1346C25.2677 42.8405 24.9213 42.6418 24.5394 42.5712C24.4414 42.5336 24.3336 42.5306 24.2337 42.5628C24.1339 42.595 24.0481 42.6604 23.9906 42.7482C23.9494 42.8623 23.9416 42.9859 23.9682 43.1043C24.0286 43.6061 24.1362 44.1168 24.0376 44.6118C24.0356 44.6438 24.0267 44.6749 24.0116 44.7031C23.9966 44.7313 23.9756 44.7559 23.9502 44.7754C23.845 44.8358 23.668 44.4528 23.5896 44.3766C23.5175 44.288 23.4142 44.2304 23.301 44.2154C23.1877 44.2004 23.073 44.2292 22.9803 44.296C22.9042 44.361 23.0811 44.5312 23.2043 44.9142C23.3477 45.4003 23.2872 45.8102 23.5694 46.2784C23.6295 46.3905 23.6664 46.5134 23.678 46.6401C23.6895 46.7667 23.6755 46.8943 23.6366 47.0154Z" fill="#B16668"/>
<path d="M17.3779 53.1216L20.207 51.8246C20.207 51.8246 20.6864 51.8112 21.289 52.7363C21.4655 53.0109 21.5858 53.3179 21.6427 53.6394C21.6996 53.9608 21.692 54.2904 21.6205 54.609L19.4746 56.2509L17.3779 53.1216Z" fill="#455A64"/>
<path d="M12.4679 53.5472C11.6123 53.7219 11.3479 54.1318 11.2539 54.8912C11.189 55.5909 11.2551 56.2966 11.4487 56.9722L11.9438 60.0678L11.9236 64.064C13.7604 65.1011 17.9134 65.4954 20.4356 63.6922C20.4356 63.6922 20.1131 57.2544 19.9383 55.991C19.6337 53.8003 18.7355 53.0208 17.6827 53.0925L14.6385 53.312C13.91 53.3338 13.1842 53.4124 12.4679 53.5472Z" fill="#BA68C8"/>
<path d="M19.5978 61.4006L15.8323 59.4496C15.8323 59.4496 15.0663 58.0474 14.1949 56.2509C12.7053 53.984 11.937 53.8518 11.937 53.8518C10.2189 54.8083 10.9021 56.2688 13.216 60.704C13.664 61.5686 14.2621 61.7837 15.4739 62.2182C16.2445 62.496 16.6522 62.6483 18.1395 63.1142C18.4957 63.2262 18.9482 63.3539 19.2595 63.448C19.777 63.6115 20.1264 63.7728 20.664 63.9274C21.16 64.1031 21.6778 64.2094 22.2029 64.2432C22.5896 64.2704 22.9764 64.193 23.3229 64.0192C23.6811 63.7794 23.9602 63.4387 24.1248 63.0403C24.18 62.9433 24.2002 62.8302 24.1818 62.72C24.1635 62.6099 24.1077 62.5094 24.024 62.4355C23.9106 62.3754 23.7824 62.3489 23.6544 62.3594C23.1191 62.3437 22.568 62.3773 22.064 62.1958C22.0305 62.1888 21.9988 62.1748 21.971 62.1548C21.9432 62.1347 21.9199 62.109 21.9027 62.0794C21.8579 61.9606 22.2858 61.833 22.3776 61.7635C22.4811 61.7009 22.5572 61.6016 22.5909 61.4854C22.6245 61.3691 22.6131 61.2445 22.5591 61.1363C22.5031 61.0467 22.297 61.2058 21.8871 61.2662C21.3517 61.3424 20.9395 61.2147 20.3997 61.4365C20.2707 61.4856 20.133 61.5078 19.995 61.5016C19.8571 61.4955 19.7219 61.4611 19.5978 61.4006Z" fill="#B16668"/>
<path d="M12.1208 53.6413C10.6245 54.1386 10.7074 55.2989 10.8104 55.8566C10.906 56.3301 11.0657 56.7883 11.2853 57.2186C11.8341 58.473 12.8802 60.4531 12.8802 60.4531C12.8802 60.4531 14.1122 60.321 15.6802 58.912C15.6802 58.912 13.8456 55.3034 13.6642 54.9494C13.5051 54.656 12.907 53.6861 12.1208 53.6413Z" fill="#455A64"/>
<path d="M19.5956 47.4432C19.5915 47.8823 19.4583 48.3106 19.2127 48.6747C18.9671 49.0387 18.6199 49.3226 18.2143 49.4909C17.8087 49.6592 17.3625 49.7046 16.9313 49.6214C16.5001 49.5382 16.1028 49.33 15.789 49.0229C15.4751 48.7157 15.2585 48.323 15.166 47.8937C15.0735 47.4644 15.1092 47.0174 15.2688 46.6082C15.4283 46.1991 15.7046 45.8458 16.0633 45.5924C16.422 45.339 16.8472 45.1967 17.2862 45.183C17.5862 45.1798 17.884 45.2357 18.1624 45.3475C18.4409 45.4593 18.6946 45.6249 18.909 45.8348C19.1235 46.0447 19.2945 46.2947 19.4123 46.5707C19.5301 46.8467 19.5924 47.1432 19.5956 47.4432Z" fill="#263238"/>
<path d="M12.7949 49.3651C12.7949 49.3651 13.2429 51.175 13.3997 51.4707C13.5084 51.6531 13.6834 51.7863 13.888 51.8426L13.8253 50.5613L12.7949 49.3651Z" fill="#263238"/>
<path d="M13.2161 46.7421C13.0802 46.7301 12.9434 46.7493 12.8161 46.7982C12.6888 46.8471 12.5743 46.9245 12.4814 47.0243C12.17 47.3603 12.3783 48.3683 12.8039 49.3651L13.5364 49.4278L13.2161 46.7421Z" fill="#263238"/>
<path d="M13.7471 49.4234C13.6037 49.5152 13.3864 49.2397 13.2005 49.056C13.0146 48.8723 12.4165 48.6304 12.141 49.2576C11.8655 49.8848 12.4411 50.7158 12.9093 50.8502C13.7179 51.0742 13.8232 50.5613 13.8232 50.5613L13.9666 53.4442C14.154 53.826 14.4331 54.1554 14.7791 54.4029C15.1251 54.6504 15.527 54.8081 15.949 54.8621C17.3736 55.0144 17.3266 53.8272 16.845 53.2672L16.8203 52.4563C17.1739 52.4657 17.5267 52.4204 17.8664 52.3219C18.3144 52.1875 18.6504 51.9053 18.9282 51.2019C19.3 50.2656 19.3247 49.2554 18.9775 47.3693C18.5743 45.183 15.8706 45.1965 14.5109 46.1082C13.1512 47.0198 13.7471 49.4234 13.7471 49.4234Z" fill="#B16668"/>
<path d="M14.1882 47.9494C14.0784 48.5834 14.0023 49.6563 13.7536 49.6698C13.6797 49.6698 13.3863 49.2218 13.2003 49.056C13.1175 48.9843 13.1107 48.832 13.1018 48.7222C13.0656 48.3426 13.0573 47.9607 13.0771 47.5798C13.0973 47.1722 13.0189 46.7197 13.1376 46.3254C13.2373 46.0241 13.4405 45.7678 13.7111 45.6019C14.3091 45.2211 15.1111 45.2368 15.7853 45.0822C16.5794 44.9194 17.338 44.616 18.0253 44.1862L18.2336 44.0541C18.2917 44.0087 18.3638 43.985 18.4375 43.9869C18.4686 43.9918 18.4981 44.0039 18.5237 44.0222C18.5494 44.0404 18.5705 44.0644 18.5853 44.0922C18.616 44.1476 18.6358 44.2084 18.6435 44.2714C18.6767 44.46 18.682 44.6524 18.6592 44.8426C18.6638 45.0127 18.6236 45.1811 18.5427 45.3309L19.04 45.0106C19.0711 44.9837 19.111 44.9693 19.152 44.9702C19.2192 44.9702 19.2461 45.0621 19.2551 45.1293C19.2734 45.4161 19.2191 45.7029 19.0974 45.9632C18.9756 46.2236 18.7903 46.4491 18.5584 46.6189C18.0894 46.9535 17.5362 47.1505 16.9613 47.1878C16.3901 47.2461 15.8167 47.2125 15.2432 47.217C14.9967 47.1926 14.7479 47.2304 14.5197 47.3267C14.4252 47.4027 14.347 47.497 14.2901 47.6041C14.2331 47.7111 14.1984 47.8286 14.1882 47.9494Z" fill="#263238"/>
<path d="M13.2161 46.9034L12.3201 46.4554C12.3461 46.3935 12.3848 46.3378 12.4336 46.2917C12.4823 46.2456 12.5401 46.2102 12.6033 46.1877C12.6665 46.1651 12.7337 46.156 12.8006 46.1608C12.8676 46.1656 12.9328 46.1843 12.9921 46.2157C13.1102 46.28 13.1992 46.3871 13.2409 46.515C13.2825 46.6428 13.2736 46.7818 13.2161 46.9034Z" fill="#263238"/>
<path d="M16.8202 52.4563C16.8202 52.4563 15.4045 52.351 14.7527 51.959C14.4914 51.812 14.2711 51.6017 14.1121 51.3475C14.1792 51.6177 14.3097 51.8681 14.4929 52.0778C15.1469 52.808 16.8449 52.9043 16.8449 52.9043L16.8202 52.4563Z" fill="#9A4A4D"/>
<path d="M16.2245 49.0291C16.224 49.0876 16.2064 49.1446 16.1738 49.1931C16.1411 49.2415 16.095 49.2794 16.041 49.3018C15.9871 49.3243 15.9277 49.3303 15.8703 49.3193C15.8129 49.3083 15.76 49.2806 15.7183 49.2397C15.6765 49.1989 15.6477 49.1466 15.6353 49.0895C15.623 49.0324 15.6278 48.9729 15.6491 48.9184C15.6703 48.864 15.7071 48.817 15.7548 48.7833C15.8026 48.7496 15.8592 48.7307 15.9176 48.729C15.9575 48.7284 15.9971 48.7357 16.0342 48.7505C16.0713 48.7653 16.105 48.7872 16.1335 48.8151C16.1621 48.843 16.1848 48.8763 16.2004 48.913C16.216 48.9498 16.2242 48.9892 16.2245 49.0291Z" fill="#263238"/>
<path d="M15.8123 48.1443L15.1918 48.5117C15.1444 48.4265 15.1317 48.3264 15.1563 48.2321C15.1809 48.1378 15.241 48.0566 15.3239 48.0054C15.3649 47.9818 15.4103 47.9666 15.4573 47.9608C15.5042 47.955 15.5519 47.9587 15.5974 47.9717C15.643 47.9846 15.6854 48.0066 15.7223 48.0362C15.7592 48.0659 15.7898 48.1026 15.8123 48.1443Z" fill="#263238"/>
<path d="M16.1013 50.624L17.2795 51.0294C17.2564 51.1084 17.2175 51.182 17.1653 51.2456C17.113 51.3092 17.0485 51.3616 16.9754 51.3997C16.9024 51.4378 16.8225 51.4607 16.7404 51.4671C16.6583 51.4736 16.5758 51.4634 16.4978 51.4371C16.3393 51.3792 16.2095 51.2622 16.1355 51.1105C16.0616 50.9589 16.0493 50.7845 16.1013 50.624Z" fill="#9A4A4D"/>
<path opacity="0.6" d="M16.3947 50.969C16.2975 50.9754 16.2045 51.0113 16.1282 51.072C16.1608 51.1579 16.2117 51.2358 16.2775 51.3C16.3433 51.3642 16.4223 51.4133 16.509 51.4438C16.6385 51.4909 16.7804 51.4909 16.9099 51.4438C16.9079 51.3786 16.8929 51.3145 16.8658 51.2551C16.8387 51.1958 16.8001 51.1424 16.7521 51.0982C16.7041 51.054 16.6478 51.0198 16.5864 50.9976C16.5251 50.9754 16.4599 50.9656 16.3947 50.969Z" fill="#F28F8F"/>
<path d="M18.7376 48.225L18.144 47.7994C18.1699 47.7597 18.2036 47.7258 18.243 47.6996C18.2824 47.6735 18.3268 47.6556 18.3733 47.6472C18.4199 47.6389 18.4677 47.6401 18.5138 47.6508C18.5599 47.6616 18.6033 47.6816 18.6413 47.7098C18.7212 47.7663 18.7759 47.8517 18.7939 47.9478C18.8119 48.044 18.7917 48.1434 18.7376 48.225Z" fill="#263238"/>
<path d="M18.6033 48.832C18.6024 48.8899 18.5845 48.9462 18.5519 48.9941C18.5192 49.0419 18.4733 49.0791 18.4197 49.101C18.3661 49.123 18.3072 49.1287 18.2504 49.1175C18.1936 49.1063 18.1414 49.0786 18.1001 49.038C18.0589 48.9974 18.0305 48.9455 18.0184 48.8889C18.0064 48.8322 18.0112 48.7733 18.0324 48.7194C18.0535 48.6655 18.09 48.619 18.1374 48.5857C18.1847 48.5523 18.2408 48.5336 18.2986 48.5318C18.3384 48.5315 18.3777 48.5391 18.4145 48.554C18.4513 48.5689 18.4848 48.5909 18.5131 48.6188C18.5414 48.6467 18.5639 48.6799 18.5794 48.7164C18.5949 48.753 18.603 48.7923 18.6033 48.832Z" fill="#263238"/>
<path d="M17.0264 48.6774L17.1585 50.2566L17.9761 49.952L17.0264 48.6774Z" fill="#9A4A4D"/>
<path d="M24.3041 40.096C24.0516 39.9729 23.7772 39.9007 23.4968 39.8836C23.2164 39.8665 22.9354 39.9049 22.6697 39.9964C22.4041 40.0879 22.1591 40.2308 21.9487 40.417C21.7384 40.6032 21.5667 40.8291 21.4436 41.0816C21.3205 41.3341 21.2484 41.6084 21.2313 41.8889C21.2142 42.1693 21.2525 42.4503 21.344 42.716C21.4355 42.9816 21.5785 43.2266 21.7647 43.437C21.9509 43.6473 22.1767 43.819 22.4292 43.9421C24.2526 44.8381 26.9092 43.7494 26.9092 43.7494C26.9092 43.7494 26.1275 40.992 24.3041 40.096ZM24.1787 42.4144C24.089 42.5991 23.9466 42.753 23.7695 42.8567C23.5923 42.9604 23.3884 43.0092 23.1835 42.9969C22.9786 42.9846 22.7819 42.9117 22.6184 42.7876C22.4549 42.6635 22.332 42.4936 22.2651 42.2995C22.1982 42.1055 22.1904 41.8959 22.2427 41.6974C22.295 41.4989 22.405 41.3204 22.5588 41.1845C22.7126 41.0485 22.9033 40.9613 23.1067 40.9338C23.3102 40.9063 23.5172 40.9398 23.7015 41.0301C23.9469 41.1507 24.1347 41.3634 24.224 41.6218C24.3134 41.8802 24.2971 42.1635 24.1787 42.4099V42.4144Z" fill="#BA68C8"/>
<path d="M50.1581 12.7837C49.6005 12.8886 49.1072 13.2106 48.7868 13.6788C48.4663 14.1471 48.3448 14.7235 48.449 15.2813C48.8231 17.2771 51.2781 18.769 51.2781 18.769C51.2781 18.769 53.0298 16.4886 52.6557 14.495C52.5513 13.937 52.2296 13.4432 51.7612 13.1223C51.2929 12.8014 50.7162 12.6796 50.1581 12.7837ZM50.7181 15.7763C50.5165 15.814 50.3082 15.7911 50.1195 15.7105C49.9309 15.6298 49.7705 15.495 49.6585 15.3231C49.5465 15.1512 49.4879 14.95 49.4903 14.7449C49.4927 14.5397 49.5559 14.3399 49.6718 14.1707C49.7878 14.0014 49.9513 13.8704 50.1418 13.7941C50.3322 13.7178 50.541 13.6998 50.7417 13.7422C50.9424 13.7846 51.1261 13.8855 51.2694 14.0323C51.4127 14.1791 51.5093 14.365 51.5469 14.5667C51.5973 14.837 51.5383 15.1163 51.3829 15.3431C51.2275 15.5699 50.9884 15.7258 50.7181 15.7763Z" fill="#BA68C8"/>
<path d="M75.3963 18.1866C74.9302 17.8631 74.3548 17.738 73.7965 17.8389C73.2382 17.9397 72.7428 18.2581 72.4193 18.7242C71.2612 20.3907 71.9243 23.1885 71.9243 23.1885C71.9243 23.1885 74.778 22.8323 75.9339 21.1725C76.0957 20.9415 76.2103 20.6808 76.2708 20.4053C76.3314 20.1299 76.3369 19.8451 76.2869 19.5676C76.2369 19.29 76.1325 19.0251 75.9797 18.788C75.8268 18.551 75.6285 18.3466 75.3963 18.1866ZM73.6603 20.6864C73.4917 20.5694 73.3616 20.4051 73.2865 20.2142C73.2113 20.0233 73.1945 19.8144 73.2381 19.6139C73.2817 19.4134 73.3838 19.2303 73.5314 19.0879C73.6791 18.9454 73.8657 18.85 74.0676 18.8136C74.2696 18.7772 74.4777 18.8016 74.6658 18.8835C74.8539 18.9655 75.0135 19.1014 75.1243 19.2741C75.2351 19.4468 75.2922 19.6484 75.2884 19.8536C75.2846 20.0587 75.22 20.2581 75.1029 20.4266C75.0253 20.5385 74.9265 20.6341 74.812 20.7077C74.6974 20.7814 74.5695 20.8318 74.4355 20.8559C74.3015 20.88 74.164 20.8775 74.031 20.8484C73.898 20.8193 73.772 20.7643 73.6603 20.6864Z" fill="#455A64"/>
</svg>
